<svg width="471" height="229" viewBox="0 0 471 229" fill="none" xmlns="http://www.w3.org/2000/svg">
<rect width="471" height="229" fill="white"/>
<rect x="68.5" y="0.5" width="82" height="22" fill="#F2F2F2" stroke="black"/>
<rect x="150.5" y="0.5" width="149" height="22" fill="#F2F2F2" stroke="black"/>
<rect x="299.5" y="0.5" width="171" height="22" fill="#F2F2F2" stroke="black"/>
<path d="M372.297 11.728H368.292V15.0034H372.944V16H367.073V6.75781H372.881V7.76074H368.292V10.7314H372.297V11.728ZM376.036 6.75781L379.057 14.2988L382.079 6.75781H383.659V16H382.44V12.4009L382.555 8.51611L379.521 16H378.587L375.56 8.53516L375.68 12.4009V16H374.461V6.75781H376.036ZM391.029 13.5879H387.157L386.287 16H385.03L388.56 6.75781H389.626L393.162 16H391.911L391.029 13.5879ZM387.525 12.585H390.667L389.093 8.26221L387.525 12.585ZM395.713 16H394.495V6.75781H395.713V16ZM399.173 15.0034H403.553V16H397.948V6.75781H399.173V15.0034Z" fill="black"/>
<path d="M168.687 12.2612H166.516V16H165.291V6.75781H168.351C169.392 6.75781 170.191 6.99479 170.75 7.46875C171.313 7.94271 171.594 8.63249 171.594 9.53809C171.594 10.1136 171.438 10.6151 171.125 11.0425C170.816 11.4699 170.384 11.7894 169.83 12.001L172 15.9238V16H170.693L168.687 12.2612ZM166.516 11.2646H168.389C168.994 11.2646 169.474 11.1081 169.83 10.7949C170.189 10.4818 170.369 10.0628 170.369 9.53809C170.369 8.9668 170.198 8.52881 169.855 8.22412C169.516 7.91943 169.026 7.76497 168.382 7.76074H166.516V11.2646ZM178.532 11.728H174.527V15.0034H179.18V16H173.308V6.75781H179.116V7.76074H174.527V10.7314H178.532V11.728ZM187.521 14.7876C187.207 15.2362 186.769 15.5726 186.207 15.7969C185.648 16.0169 184.996 16.127 184.251 16.127C183.498 16.127 182.83 15.9513 182.246 15.6001C181.662 15.2446 181.209 14.741 180.887 14.0894C180.57 13.4377 180.407 12.6823 180.398 11.8232V11.0171C180.398 9.62484 180.722 8.54574 181.37 7.77979C182.021 7.01383 182.935 6.63086 184.112 6.63086C185.077 6.63086 185.853 6.87842 186.441 7.37354C187.03 7.86442 187.389 8.56266 187.521 9.46826H186.302C186.073 8.24528 185.345 7.63379 184.118 7.63379C183.301 7.63379 182.681 7.92155 182.258 8.49707C181.839 9.06836 181.628 9.89779 181.624 10.9854V11.7407C181.624 12.7775 181.861 13.6027 182.334 14.2163C182.808 14.8257 183.45 15.1304 184.258 15.1304C184.715 15.1304 185.115 15.0796 185.458 14.978C185.8 14.8765 186.084 14.7051 186.308 14.4639V12.3882H184.169V11.3979H187.521V14.7876ZM190.866 16H189.647V6.75781H190.866V16ZM195.823 11.8804C194.778 11.5799 194.016 11.2118 193.538 10.7759C193.064 10.3358 192.827 9.79411 192.827 9.15088C192.827 8.42301 193.117 7.8221 193.697 7.34814C194.281 6.86995 195.038 6.63086 195.969 6.63086C196.604 6.63086 197.169 6.75358 197.664 6.99902C198.163 7.24447 198.549 7.58301 198.819 8.01465C199.094 8.44629 199.232 8.91813 199.232 9.43018H198.007C198.007 8.87158 197.829 8.43359 197.474 8.11621C197.118 7.7946 196.617 7.63379 195.969 7.63379C195.368 7.63379 194.899 7.76709 194.56 8.03369C194.226 8.29606 194.059 8.66211 194.059 9.13184C194.059 9.50846 194.217 9.82796 194.535 10.0903C194.856 10.3485 195.4 10.5854 196.166 10.8013C196.936 11.0171 197.537 11.2562 197.969 11.5186C198.405 11.7767 198.726 12.0793 198.934 12.4263C199.145 12.7733 199.251 13.1816 199.251 13.6514C199.251 14.4004 198.959 15.0013 198.375 15.4541C197.791 15.9027 197.01 16.127 196.033 16.127C195.398 16.127 194.806 16.0063 194.255 15.7651C193.705 15.5197 193.28 15.1854 192.979 14.7622C192.683 14.339 192.535 13.8587 192.535 13.3213H193.76C193.76 13.8799 193.965 14.3221 194.376 14.6479C194.791 14.9696 195.343 15.1304 196.033 15.1304C196.676 15.1304 197.169 14.9992 197.512 14.7368C197.854 14.4744 198.026 14.1169 198.026 13.6641C198.026 13.2113 197.867 12.8621 197.55 12.6167C197.232 12.367 196.657 12.1216 195.823 11.8804ZM207.205 7.76074H204.234V16H203.021V7.76074H200.057V6.75781H207.205V7.76074ZM211.965 12.2612H209.794V16H208.569V6.75781H211.629C212.67 6.75781 213.47 6.99479 214.028 7.46875C214.591 7.94271 214.873 8.63249 214.873 9.53809C214.873 10.1136 214.716 10.6151 214.403 11.0425C214.094 11.4699 213.662 11.7894 213.108 12.001L215.279 15.9238V16H213.971L211.965 12.2612ZM209.794 11.2646H211.667C212.272 11.2646 212.752 11.1081 213.108 10.7949C213.468 10.4818 213.647 10.0628 213.647 9.53809C213.647 8.9668 213.476 8.52881 213.133 8.22412C212.795 7.91943 212.304 7.76497 211.661 7.76074H209.794V11.2646ZM221.69 13.5879H217.818L216.948 16H215.691L219.221 6.75781H220.287L223.823 16H222.572L221.69 13.5879ZM218.186 12.585H221.328L219.754 8.26221L218.186 12.585ZM230.627 7.76074H227.657V16H226.444V7.76074H223.48V6.75781H230.627V7.76074ZM233.306 16H232.087V6.75781H233.306V16ZM242.65 11.6772C242.65 12.5828 242.498 13.3742 242.193 14.0513C241.888 14.7241 241.457 15.2383 240.898 15.5938C240.339 15.9492 239.688 16.127 238.943 16.127C238.215 16.127 237.57 15.9492 237.007 15.5938C236.444 15.234 236.006 14.7241 235.693 14.064C235.384 13.3996 235.225 12.6315 235.217 11.7598V11.0933C235.217 10.2046 235.371 9.4196 235.68 8.73828C235.989 8.05697 236.425 7.53646 236.988 7.17676C237.555 6.81283 238.202 6.63086 238.93 6.63086C239.671 6.63086 240.322 6.81071 240.885 7.17041C241.452 7.52588 241.888 8.04427 242.193 8.72559C242.498 9.40267 242.65 10.1919 242.65 11.0933V11.6772ZM241.438 11.0806C241.438 9.98454 241.217 9.14453 240.777 8.56055C240.337 7.97233 239.722 7.67822 238.93 7.67822C238.16 7.67822 237.553 7.97233 237.108 8.56055C236.668 9.14453 236.442 9.95703 236.429 10.998V11.6772C236.429 12.7394 236.651 13.5752 237.096 14.1846C237.544 14.7897 238.16 15.0923 238.943 15.0923C239.73 15.0923 240.339 14.8066 240.771 14.2354C241.203 13.6598 241.425 12.8368 241.438 11.7661V11.0806ZM251.581 16H250.356L245.703 8.87793V16H244.478V6.75781H245.703L250.369 13.9116V6.75781H251.581V16ZM258.513 16.9585H252.698V16H258.513V16.9585ZM259.611 16V6.75781H262.22C263.024 6.75781 263.735 6.93555 264.353 7.29102C264.97 7.64648 265.446 8.15218 265.781 8.80811C266.119 9.46403 266.291 10.2173 266.295 11.0679V11.6582C266.295 12.5299 266.126 13.2938 265.787 13.9497C265.453 14.6056 264.972 15.1092 264.346 15.4604C263.724 15.8117 262.998 15.9915 262.169 16H259.611ZM260.83 7.76074V15.0034H262.112C263.051 15.0034 263.781 14.7114 264.302 14.1274C264.826 13.5435 265.089 12.7119 265.089 11.6328V11.0933C265.089 10.0438 264.841 9.22917 264.346 8.64941C263.855 8.06543 263.157 7.76921 262.251 7.76074H260.83ZM273.106 13.5879H269.234L268.364 16H267.107L270.637 6.75781H271.703L275.239 16H273.988L273.106 13.5879ZM269.602 12.585H272.744L271.17 8.26221L269.602 12.585ZM282.043 7.76074H279.073V16H277.86V7.76074H274.896V6.75781H282.043V7.76074ZM288.639 11.728H284.633V15.0034H289.286V16H283.415V6.75781H289.223V7.76074H284.633V10.7314H288.639V11.728Z" fill="black"/>
<path d="M93.2979 15.0034H97.6777V16H92.0728V6.75781H93.2979V15.0034ZM105.758 11.6772C105.758 12.5828 105.606 13.3742 105.301 14.0513C104.997 14.7241 104.565 15.2383 104.006 15.5938C103.448 15.9492 102.796 16.127 102.051 16.127C101.323 16.127 100.678 15.9492 100.115 15.5938C99.5524 15.234 99.1144 14.7241 98.8013 14.064C98.4924 13.3996 98.3337 12.6315 98.3252 11.7598V11.0933C98.3252 10.2046 98.4797 9.4196 98.7886 8.73828C99.0975 8.05697 99.5334 7.53646 100.096 7.17676C100.663 6.81283 101.311 6.63086 102.039 6.63086C102.779 6.63086 103.431 6.81071 103.994 7.17041C104.561 7.52588 104.997 8.04427 105.301 8.72559C105.606 9.40267 105.758 10.1919 105.758 11.0933V11.6772ZM104.546 11.0806C104.546 9.98454 104.326 9.14453 103.886 8.56055C103.446 7.97233 102.83 7.67822 102.039 7.67822C101.268 7.67822 100.661 7.97233 100.217 8.56055C99.7767 9.14453 99.5503 9.95703 99.5376 10.998V11.6772C99.5376 12.7394 99.7598 13.5752 100.204 14.1846C100.653 14.7897 101.268 15.0923 102.051 15.0923C102.838 15.0923 103.448 14.8066 103.879 14.2354C104.311 13.6598 104.533 12.8368 104.546 11.7661V11.0806ZM114.41 14.7876C114.097 15.2362 113.659 15.5726 113.096 15.7969C112.538 16.0169 111.886 16.127 111.141 16.127C110.388 16.127 109.719 15.9513 109.135 15.6001C108.551 15.2446 108.098 14.741 107.777 14.0894C107.459 13.4377 107.297 12.6823 107.288 11.8232V11.0171C107.288 9.62484 107.612 8.54574 108.259 7.77979C108.911 7.01383 109.825 6.63086 111.001 6.63086C111.966 6.63086 112.743 6.87842 113.331 7.37354C113.919 7.86442 114.279 8.56266 114.41 9.46826H113.191C112.963 8.24528 112.235 7.63379 111.008 7.63379C110.191 7.63379 109.571 7.92155 109.148 8.49707C108.729 9.06836 108.517 9.89779 108.513 10.9854V11.7407C108.513 12.7775 108.75 13.6027 109.224 14.2163C109.698 14.8257 110.339 15.1304 111.147 15.1304C111.604 15.1304 112.004 15.0796 112.347 14.978C112.69 14.8765 112.973 14.7051 113.198 14.4639V12.3882H111.059V11.3979H114.41V14.7876ZM117.755 16H116.537V6.75781H117.755V16ZM127.093 16H125.868L121.215 8.87793V16H119.99V6.75781H121.215L125.88 13.9116V6.75781H127.093V16Z" fill="black"/>
<rect x="68.5" y="21.5" width="82" height="22" fill="#6FCF97" stroke="black"/>
<rect x="150.5" y="21.5" width="149" height="22" fill="#F2F2F2" stroke="black"/>
<rect x="299.5" y="21.5" width="171" height="22" fill="#F2F2F2" stroke="black"/>
<path d="M309.101 29.1318V36.7935C309.101 38.1138 308.502 38.7739 307.305 38.7739C307.047 38.7739 306.807 38.7358 306.587 38.6597V37.7202C306.723 37.7541 306.901 37.771 307.121 37.771C307.383 37.771 307.582 37.6991 307.717 37.5552C307.857 37.4155 307.927 37.1701 307.927 36.8188V29.1318H309.101ZM307.806 27.3101C307.806 27.1239 307.863 26.9652 307.978 26.834C308.096 26.6986 308.267 26.6309 308.492 26.6309C308.72 26.6309 308.894 26.6965 309.012 26.8276C309.131 26.9588 309.19 27.1196 309.19 27.3101C309.19 27.5005 309.131 27.6592 309.012 27.7861C308.894 27.9131 308.72 27.9766 308.492 27.9766C308.263 27.9766 308.092 27.9131 307.978 27.7861C307.863 27.6592 307.806 27.5005 307.806 27.3101ZM310.688 32.5024C310.688 31.8296 310.819 31.2244 311.082 30.687C311.348 30.1496 311.716 29.7349 312.186 29.4429C312.66 29.1509 313.2 29.0049 313.805 29.0049C314.74 29.0049 315.495 29.3286 316.071 29.9761C316.651 30.6235 316.94 31.4847 316.94 32.5596V32.6421C316.94 33.3107 316.811 33.9116 316.553 34.4448C316.299 34.9738 315.933 35.3864 315.455 35.6826C314.981 35.9788 314.435 36.127 313.817 36.127C312.886 36.127 312.131 35.8032 311.551 35.1558C310.976 34.5083 310.688 33.6514 310.688 32.585V32.5024ZM311.869 32.6421C311.869 33.4038 312.044 34.0153 312.396 34.4766C312.751 34.9378 313.225 35.1685 313.817 35.1685C314.414 35.1685 314.888 34.9357 315.239 34.4702C315.59 34.0005 315.766 33.3446 315.766 32.5024C315.766 31.7492 315.586 31.1398 315.227 30.6743C314.871 30.2046 314.397 29.9697 313.805 29.9697C313.225 29.9697 312.757 30.2004 312.402 30.6616C312.046 31.1229 311.869 31.783 311.869 32.6421ZM319.587 29.9634C320.108 29.3244 320.785 29.0049 321.619 29.0049C323.07 29.0049 323.802 29.8237 323.815 31.4614V36H322.641V31.4551C322.636 30.96 322.522 30.5939 322.298 30.3569C322.078 30.12 321.733 30.0015 321.263 30.0015C320.882 30.0015 320.548 30.103 320.26 30.3062C319.972 30.5093 319.748 30.7759 319.587 31.106V36H318.413V26.25H319.587V29.9634ZM326.684 29.1318L326.722 29.9951C327.247 29.335 327.932 29.0049 328.779 29.0049C330.23 29.0049 330.962 29.8237 330.975 31.4614V36H329.801V31.4551C329.797 30.96 329.682 30.5939 329.458 30.3569C329.238 30.12 328.893 30.0015 328.423 30.0015C328.042 30.0015 327.708 30.103 327.42 30.3062C327.133 30.5093 326.908 30.7759 326.748 31.106V36H325.573V29.1318H326.684ZM332.46 32.5088C332.46 31.4551 332.71 30.6087 333.209 29.9697C333.709 29.3265 334.363 29.0049 335.171 29.0049C335.975 29.0049 336.612 29.2799 337.082 29.8301V26.25H338.256V36H337.177L337.12 35.2637C336.65 35.8392 335.996 36.127 335.158 36.127C334.363 36.127 333.713 35.8011 333.209 35.1494C332.71 34.4977 332.46 33.6471 332.46 32.5977V32.5088ZM333.635 32.6421C333.635 33.4207 333.796 34.0301 334.117 34.4702C334.439 34.9103 334.883 35.1304 335.45 35.1304C336.195 35.1304 336.739 34.7961 337.082 34.1274V30.9727C336.73 30.3252 336.191 30.0015 335.463 30.0015C334.887 30.0015 334.439 30.2236 334.117 30.668C333.796 31.1123 333.635 31.7703 333.635 32.6421ZM339.773 32.5024C339.773 31.8296 339.904 31.2244 340.167 30.687C340.433 30.1496 340.801 29.7349 341.271 29.4429C341.745 29.1509 342.285 29.0049 342.89 29.0049C343.825 29.0049 344.58 29.3286 345.156 29.9761C345.736 30.6235 346.025 31.4847 346.025 32.5596V32.6421C346.025 33.3107 345.896 33.9116 345.638 34.4448C345.384 34.9738 345.018 35.3864 344.54 35.6826C344.066 35.9788 343.52 36.127 342.902 36.127C341.971 36.127 341.216 35.8032 340.636 35.1558C340.061 34.5083 339.773 33.6514 339.773 32.585V32.5024ZM340.954 32.6421C340.954 33.4038 341.129 34.0153 341.48 34.4766C341.836 34.9378 342.31 35.1685 342.902 35.1685C343.499 35.1685 343.973 34.9357 344.324 34.4702C344.675 34.0005 344.851 33.3446 344.851 32.5024C344.851 31.7492 344.671 31.1398 344.312 30.6743C343.956 30.2046 343.482 29.9697 342.89 29.9697C342.31 29.9697 341.842 30.2004 341.487 30.6616C341.131 31.1229 340.954 31.783 340.954 32.6421ZM350.348 36.127C349.417 36.127 348.66 35.8223 348.076 35.2129C347.492 34.5993 347.2 33.7804 347.2 32.7563V32.5405C347.2 31.8592 347.329 31.252 347.587 30.7188C347.849 30.1813 348.213 29.7624 348.679 29.4619C349.148 29.1572 349.656 29.0049 350.202 29.0049C351.095 29.0049 351.789 29.299 352.284 29.8872C352.779 30.4754 353.027 31.3175 353.027 32.4136V32.9023H348.374C348.391 33.5794 348.588 34.1274 348.964 34.5464C349.345 34.9611 349.828 35.1685 350.412 35.1685C350.826 35.1685 351.178 35.0838 351.465 34.9146C351.753 34.7453 352.005 34.521 352.221 34.2417L352.938 34.8003C352.362 35.6847 351.499 36.127 350.348 36.127ZM350.202 29.9697C349.728 29.9697 349.33 30.1432 349.009 30.4902C348.687 30.833 348.488 31.3154 348.412 31.9375H351.853V31.8486C351.819 31.252 351.658 30.7907 351.37 30.4648C351.082 30.1348 350.693 29.9697 350.202 29.9697ZM364.535 32.8135C364.484 33.8376 364.23 34.6458 363.773 35.2383C363.316 35.8307 362.705 36.127 361.939 36.127C361.148 36.127 360.64 35.7715 360.416 35.0605C360.187 35.4202 359.925 35.689 359.628 35.8667C359.336 36.0402 359.034 36.127 358.721 36.127C358.12 36.127 357.665 35.8815 357.356 35.3906C357.047 34.8997 356.933 34.2205 357.013 33.353C357.077 32.6548 357.235 32.0327 357.489 31.4868C357.747 30.9367 358.077 30.505 358.479 30.1919C358.886 29.8787 359.311 29.7222 359.755 29.7222C360.098 29.7222 360.405 29.7687 360.676 29.8618C360.947 29.9507 361.251 30.1284 361.59 30.395L361.26 33.9116C361.179 34.8892 361.45 35.3779 362.072 35.3779C362.55 35.3779 362.938 35.141 363.234 34.667C363.53 34.193 363.691 33.5752 363.716 32.8135C363.797 31.1673 363.49 29.9126 362.796 29.0493C362.106 28.186 361.055 27.7544 359.641 27.7544C358.791 27.7544 358.035 27.966 357.375 28.3892C356.715 28.8081 356.194 29.4154 355.813 30.2109C355.433 31.0065 355.219 31.9248 355.172 32.9658C355.122 34.0153 355.249 34.9272 355.553 35.7017C355.858 36.4718 356.321 37.0601 356.943 37.4663C357.57 37.8768 358.325 38.082 359.209 38.082C359.59 38.082 359.971 38.0355 360.352 37.9424C360.737 37.8493 361.057 37.7287 361.311 37.5806L361.545 38.3105C361.283 38.4756 360.934 38.611 360.498 38.7168C360.066 38.8226 359.628 38.8755 359.184 38.8755C358.126 38.8755 357.216 38.6364 356.455 38.1582C355.693 37.6842 355.122 36.9987 354.741 36.1016C354.364 35.2087 354.201 34.1634 354.252 32.9658C354.303 31.8021 354.563 30.7568 355.033 29.8301C355.502 28.8991 356.139 28.1818 356.943 27.6782C357.747 27.1704 358.655 26.9165 359.667 26.9165C360.72 26.9165 361.624 27.1535 362.377 27.6274C363.13 28.1014 363.691 28.7848 364.059 29.6777C364.427 30.5706 364.586 31.6159 364.535 32.8135ZM358.022 33.353C357.963 33.9539 358.018 34.4152 358.188 34.7368C358.361 35.0584 358.634 35.2192 359.006 35.2192C359.26 35.2192 359.504 35.1113 359.736 34.8955C359.973 34.6797 360.168 34.3708 360.32 33.9688L360.327 33.9116L360.619 30.7188C360.382 30.596 360.128 30.5347 359.857 30.5347C359.362 30.5347 358.951 30.7865 358.625 31.29C358.304 31.7936 358.103 32.4813 358.022 33.353ZM367.284 29.1318V36.7935C367.284 38.1138 366.685 38.7739 365.487 38.7739C365.229 38.7739 364.99 38.7358 364.77 38.6597V37.7202C364.905 37.7541 365.083 37.771 365.303 37.771C365.566 37.771 365.764 37.6991 365.9 37.5552C366.04 37.4155 366.109 37.1701 366.109 36.8188V29.1318H367.284ZM365.989 27.3101C365.989 27.1239 366.046 26.9652 366.16 26.834C366.279 26.6986 366.45 26.6309 366.674 26.6309C366.903 26.6309 367.076 26.6965 367.195 26.8276C367.313 26.9588 367.373 27.1196 367.373 27.3101C367.373 27.5005 367.313 27.6592 367.195 27.7861C367.076 27.9131 366.903 27.9766 366.674 27.9766C366.446 27.9766 366.274 27.9131 366.16 27.7861C366.046 27.6592 365.989 27.5005 365.989 27.3101ZM368.871 32.5024C368.871 31.8296 369.002 31.2244 369.264 30.687C369.531 30.1496 369.899 29.7349 370.369 29.4429C370.843 29.1509 371.382 29.0049 371.987 29.0049C372.923 29.0049 373.678 29.3286 374.253 29.9761C374.833 30.6235 375.123 31.4847 375.123 32.5596V32.6421C375.123 33.3107 374.994 33.9116 374.736 34.4448C374.482 34.9738 374.116 35.3864 373.638 35.6826C373.164 35.9788 372.618 36.127 372 36.127C371.069 36.127 370.314 35.8032 369.734 35.1558C369.158 34.5083 368.871 33.6514 368.871 32.585V32.5024ZM370.051 32.6421C370.051 33.4038 370.227 34.0153 370.578 34.4766C370.934 34.9378 371.408 35.1685 372 35.1685C372.597 35.1685 373.071 34.9357 373.422 34.4702C373.773 34.0005 373.949 33.3446 373.949 32.5024C373.949 31.7492 373.769 31.1398 373.409 30.6743C373.054 30.2046 372.58 29.9697 371.987 29.9697C371.408 29.9697 370.94 30.2004 370.584 30.6616C370.229 31.1229 370.051 31.783 370.051 32.6421ZM377.77 29.9634C378.291 29.3244 378.968 29.0049 379.801 29.0049C381.253 29.0049 381.985 29.8237 381.998 31.4614V36H380.823V31.4551C380.819 30.96 380.705 30.5939 380.48 30.3569C380.26 30.12 379.916 30.0015 379.446 30.0015C379.065 30.0015 378.731 30.103 378.443 30.3062C378.155 30.5093 377.931 30.7759 377.77 31.106V36H376.596V26.25H377.77V29.9634ZM384.867 29.1318L384.905 29.9951C385.43 29.335 386.115 29.0049 386.961 29.0049C388.413 29.0049 389.145 29.8237 389.158 31.4614V36H387.983V31.4551C387.979 30.96 387.865 30.5939 387.641 30.3569C387.421 30.12 387.076 30.0015 386.606 30.0015C386.225 30.0015 385.891 30.103 385.603 30.3062C385.315 30.5093 385.091 30.7759 384.93 31.106V36H383.756V29.1318H384.867ZM390.643 32.5088C390.643 31.4551 390.893 30.6087 391.392 29.9697C391.891 29.3265 392.545 29.0049 393.354 29.0049C394.158 29.0049 394.794 29.2799 395.264 29.8301V26.25H396.438V36H395.359L395.302 35.2637C394.833 35.8392 394.179 36.127 393.341 36.127C392.545 36.127 391.896 35.8011 391.392 35.1494C390.893 34.4977 390.643 33.6471 390.643 32.5977V32.5088ZM391.817 32.6421C391.817 33.4207 391.978 34.0301 392.3 34.4702C392.621 34.9103 393.066 35.1304 393.633 35.1304C394.378 35.1304 394.921 34.7961 395.264 34.1274V30.9727C394.913 30.3252 394.373 30.0015 393.646 30.0015C393.07 30.0015 392.621 30.2236 392.3 30.668C391.978 31.1123 391.817 31.7703 391.817 32.6421ZM397.956 32.5024C397.956 31.8296 398.087 31.2244 398.349 30.687C398.616 30.1496 398.984 29.7349 399.454 29.4429C399.928 29.1509 400.467 29.0049 401.072 29.0049C402.007 29.0049 402.763 29.3286 403.338 29.9761C403.918 30.6235 404.208 31.4847 404.208 32.5596V32.6421C404.208 33.3107 404.079 33.9116 403.821 34.4448C403.567 34.9738 403.201 35.3864 402.723 35.6826C402.249 35.9788 401.703 36.127 401.085 36.127C400.154 36.127 399.399 35.8032 398.819 35.1558C398.243 34.5083 397.956 33.6514 397.956 32.585V32.5024ZM399.136 32.6421C399.136 33.4038 399.312 34.0153 399.663 34.4766C400.019 34.9378 400.493 35.1685 401.085 35.1685C401.682 35.1685 402.156 34.9357 402.507 34.4702C402.858 34.0005 403.034 33.3446 403.034 32.5024C403.034 31.7492 402.854 31.1398 402.494 30.6743C402.139 30.2046 401.665 29.9697 401.072 29.9697C400.493 29.9697 400.025 30.2004 399.669 30.6616C399.314 31.1229 399.136 31.783 399.136 32.6421ZM408.531 36.127C407.6 36.127 406.842 35.8223 406.258 35.2129C405.674 34.5993 405.382 33.7804 405.382 32.7563V32.5405C405.382 31.8592 405.511 31.252 405.77 30.7188C406.032 30.1813 406.396 29.7624 406.861 29.4619C407.331 29.1572 407.839 29.0049 408.385 29.0049C409.278 29.0049 409.972 29.299 410.467 29.8872C410.962 30.4754 411.209 31.3175 411.209 32.4136V32.9023H406.557C406.574 33.5794 406.77 34.1274 407.147 34.5464C407.528 34.9611 408.01 35.1685 408.594 35.1685C409.009 35.1685 409.36 35.0838 409.648 34.9146C409.936 34.7453 410.188 34.521 410.403 34.2417L411.121 34.8003C410.545 35.6847 409.682 36.127 408.531 36.127ZM408.385 29.9697C407.911 29.9697 407.513 30.1432 407.191 30.4902C406.87 30.833 406.671 31.3154 406.595 31.9375H410.035V31.8486C410.001 31.252 409.84 30.7907 409.553 30.4648C409.265 30.1348 408.876 29.9697 408.385 29.9697ZM413.679 29.1318L413.71 29.8936C414.214 29.3011 414.893 29.0049 415.748 29.0049C416.709 29.0049 417.362 29.373 417.709 30.1094C417.938 29.7793 418.234 29.5127 418.598 29.3096C418.966 29.1064 419.4 29.0049 419.899 29.0049C421.406 29.0049 422.172 29.8026 422.197 31.3979V36H421.023V31.4678C421.023 30.9769 420.911 30.6108 420.687 30.3696C420.462 30.1242 420.086 30.0015 419.557 30.0015C419.121 30.0015 418.759 30.1326 418.471 30.395C418.183 30.6532 418.016 31.0023 417.97 31.4424V36H416.789V31.4995C416.789 30.5008 416.3 30.0015 415.323 30.0015C414.553 30.0015 414.026 30.3294 413.742 30.9854V36H412.568V29.1318H413.679ZM428.215 36C428.147 35.8646 428.092 35.6234 428.05 35.2764C427.504 35.8434 426.852 36.127 426.095 36.127C425.418 36.127 424.861 35.9365 424.425 35.5557C423.994 35.1706 423.778 34.6839 423.778 34.0957C423.778 33.3805 424.049 32.8262 424.59 32.4326C425.136 32.0348 425.902 31.8359 426.888 31.8359H428.031V31.2964C428.031 30.8859 427.908 30.5601 427.663 30.3188C427.417 30.0734 427.055 29.9507 426.577 29.9507C426.158 29.9507 425.807 30.0565 425.523 30.2681C425.24 30.4797 425.098 30.7357 425.098 31.0361H423.917C423.917 30.6934 424.038 30.3633 424.279 30.0459C424.525 29.7243 424.855 29.4704 425.27 29.2842C425.688 29.098 426.148 29.0049 426.647 29.0049C427.438 29.0049 428.058 29.2038 428.507 29.6016C428.955 29.9951 429.188 30.5389 429.205 31.2329V34.394C429.205 35.0246 429.285 35.526 429.446 35.8984V36H428.215ZM426.266 35.105C426.634 35.105 426.983 35.0098 427.313 34.8193C427.644 34.6289 427.883 34.3813 428.031 34.0767V32.6675H427.11C425.672 32.6675 424.952 33.0885 424.952 33.9307C424.952 34.2988 425.075 34.5866 425.32 34.7939C425.566 35.0013 425.881 35.105 426.266 35.105ZM432.322 36H431.147V29.1318H432.322V36ZM431.052 27.3101C431.052 27.1196 431.109 26.9588 431.224 26.8276C431.342 26.6965 431.516 26.6309 431.744 26.6309C431.973 26.6309 432.146 26.6965 432.265 26.8276C432.383 26.9588 432.442 27.1196 432.442 27.3101C432.442 27.5005 432.383 27.6592 432.265 27.7861C432.146 27.9131 431.973 27.9766 431.744 27.9766C431.516 27.9766 431.342 27.9131 431.224 27.7861C431.109 27.6592 431.052 27.5005 431.052 27.3101ZM435.483 36H434.309V26.25H435.483V36ZM437.394 35.3843C437.394 35.1812 437.453 35.0119 437.571 34.8765C437.694 34.741 437.876 34.6733 438.117 34.6733C438.358 34.6733 438.54 34.741 438.663 34.8765C438.79 35.0119 438.854 35.1812 438.854 35.3843C438.854 35.5789 438.79 35.7419 438.663 35.873C438.54 36.0042 438.358 36.0698 438.117 36.0698C437.876 36.0698 437.694 36.0042 437.571 35.873C437.453 35.7419 437.394 35.5789 437.394 35.3843ZM443.551 35.1685C443.97 35.1685 444.336 35.0415 444.649 34.7876C444.962 34.5337 445.136 34.2163 445.169 33.8354H446.28C446.259 34.229 446.124 34.6035 445.874 34.959C445.624 35.3145 445.29 35.598 444.871 35.8096C444.456 36.0212 444.016 36.127 443.551 36.127C442.616 36.127 441.871 35.8159 441.316 35.1938C440.766 34.5675 440.491 33.7127 440.491 32.6294V32.4326C440.491 31.764 440.614 31.1694 440.859 30.6489C441.105 30.1284 441.456 29.7243 441.913 29.4365C442.374 29.1488 442.918 29.0049 443.544 29.0049C444.315 29.0049 444.954 29.2355 445.461 29.6968C445.973 30.158 446.246 30.7568 446.28 31.4932H445.169C445.136 31.0488 444.966 30.6849 444.662 30.4014C444.361 30.1136 443.989 29.9697 443.544 29.9697C442.948 29.9697 442.484 30.1855 442.154 30.6172C441.828 31.0446 441.666 31.6646 441.666 32.4771V32.6992C441.666 33.4906 441.828 34.0999 442.154 34.5273C442.48 34.9548 442.946 35.1685 443.551 35.1685ZM447.29 32.5024C447.29 31.8296 447.421 31.2244 447.683 30.687C447.95 30.1496 448.318 29.7349 448.788 29.4429C449.262 29.1509 449.801 29.0049 450.406 29.0049C451.341 29.0049 452.097 29.3286 452.672 29.9761C453.252 30.6235 453.542 31.4847 453.542 32.5596V32.6421C453.542 33.3107 453.413 33.9116 453.155 34.4448C452.901 34.9738 452.535 35.3864 452.057 35.6826C451.583 35.9788 451.037 36.127 450.419 36.127C449.488 36.127 448.733 35.8032 448.153 35.1558C447.577 34.5083 447.29 33.6514 447.29 32.585V32.5024ZM448.47 32.6421C448.47 33.4038 448.646 34.0153 448.997 34.4766C449.353 34.9378 449.826 35.1685 450.419 35.1685C451.016 35.1685 451.49 34.9357 451.841 34.4702C452.192 34.0005 452.368 33.3446 452.368 32.5024C452.368 31.7492 452.188 31.1398 451.828 30.6743C451.473 30.2046 450.999 29.9697 450.406 29.9697C449.826 29.9697 449.359 30.2004 449.003 30.6616C448.648 31.1229 448.47 31.783 448.47 32.6421ZM456.119 29.1318L456.151 29.8936C456.654 29.3011 457.334 29.0049 458.188 29.0049C459.149 29.0049 459.803 29.373 460.15 30.1094C460.378 29.7793 460.675 29.5127 461.039 29.3096C461.407 29.1064 461.84 29.0049 462.34 29.0049C463.846 29.0049 464.612 29.8026 464.638 31.3979V36H463.463V31.4678C463.463 30.9769 463.351 30.6108 463.127 30.3696C462.903 30.1242 462.526 30.0015 461.997 30.0015C461.561 30.0015 461.199 30.1326 460.912 30.395C460.624 30.6532 460.457 31.0023 460.41 31.4424V36H459.229V31.4995C459.229 30.5008 458.741 30.0015 457.763 30.0015C456.993 30.0015 456.466 30.3294 456.183 30.9854V36H455.008V29.1318H456.119Z" fill="black"/>
<path d="M307 37.2695H465.52V37.9043H307V37.2695Z" fill="black"/>
<a href="mailto:johndoe@johndoemail.com">
<rect fill="black" fill-opacity="0" y="-0.117188" width="158.52" height="15.2344"/>
</a>
<path d="M198.627 37H197.447V29.1733L195.079 30.043V28.9766L198.443 27.7134H198.627V37ZM202.607 32.3662L203.077 27.7578H207.812V28.8433H204.074L203.794 31.3633C204.247 31.0967 204.761 30.9634 205.337 30.9634C206.179 30.9634 206.848 31.2427 207.343 31.8013C207.838 32.3556 208.085 33.1068 208.085 34.0547C208.085 35.0068 207.827 35.758 207.311 36.3081C206.799 36.854 206.082 37.127 205.159 37.127C204.342 37.127 203.676 36.9006 203.16 36.4478C202.643 35.995 202.349 35.3687 202.277 34.5688H203.388C203.46 35.0978 203.648 35.4977 203.953 35.7686C204.258 36.0352 204.66 36.1685 205.159 36.1685C205.705 36.1685 206.132 35.9823 206.441 35.6099C206.755 35.2375 206.911 34.7233 206.911 34.0674C206.911 33.4495 206.742 32.9544 206.403 32.582C206.069 32.2054 205.623 32.0171 205.064 32.0171C204.552 32.0171 204.15 32.1292 203.858 32.3535L203.547 32.6074L202.607 32.3662ZM211.932 33.5532H208.834V32.5947H211.932V33.5532ZM220.368 37H219.143L214.49 29.8779V37H213.265V27.7578H214.49L219.156 34.9116V27.7578H220.368V37ZM229.642 32.6772C229.642 33.5828 229.49 34.3742 229.185 35.0513C228.88 35.7241 228.449 36.2383 227.89 36.5938C227.332 36.9492 226.68 37.127 225.935 37.127C225.207 37.127 224.562 36.9492 223.999 36.5938C223.436 36.234 222.998 35.7241 222.685 35.064C222.376 34.3996 222.217 33.6315 222.209 32.7598V32.0933C222.209 31.2046 222.363 30.4196 222.672 29.7383C222.981 29.057 223.417 28.5365 223.98 28.1768C224.547 27.8128 225.194 27.6309 225.922 27.6309C226.663 27.6309 227.315 27.8107 227.877 28.1704C228.444 28.5259 228.88 29.0443 229.185 29.7256C229.49 30.4027 229.642 31.1919 229.642 32.0933V32.6772ZM228.43 32.0806C228.43 30.9845 228.21 30.1445 227.77 29.5605C227.329 28.9723 226.714 28.6782 225.922 28.6782C225.152 28.6782 224.545 28.9723 224.101 29.5605C223.66 30.1445 223.434 30.957 223.421 31.998V32.6772C223.421 33.7394 223.644 34.5752 224.088 35.1846C224.536 35.7897 225.152 36.0923 225.935 36.0923C226.722 36.0923 227.332 35.8066 227.763 35.2354C228.195 34.6598 228.417 33.8368 228.43 32.7661V32.0806ZM234.39 35.3813L237.031 27.7578H238.364L234.936 37H233.857L230.436 27.7578H231.762L234.39 35.3813ZM241.626 33.5532H238.529V32.5947H241.626V33.5532ZM248.71 37H242.655V36.1558L245.854 32.6011C246.328 32.0636 246.654 31.6278 246.832 31.2935C247.014 30.9549 247.104 30.6058 247.104 30.2461C247.104 29.7637 246.958 29.368 246.667 29.0591C246.375 28.7502 245.985 28.5957 245.499 28.5957C244.915 28.5957 244.46 28.7629 244.134 29.0972C243.812 29.4272 243.651 29.8885 243.651 30.481H242.477C242.477 29.6304 242.75 28.9427 243.296 28.418C243.846 27.8932 244.58 27.6309 245.499 27.6309C246.358 27.6309 247.037 27.8573 247.536 28.3101C248.035 28.7586 248.285 29.3574 248.285 30.1064C248.285 31.0163 247.705 32.0996 246.546 33.3564L244.07 36.0415H248.71V37ZM253.814 37H252.633V29.1733L250.266 30.043V28.9766L253.63 27.7134H253.814V37Z" fill="black"/>
<path d="M88.1011 30.1318V37.7935C88.1011 39.1138 87.5023 39.7739 86.3047 39.7739C86.0465 39.7739 85.8075 39.7358 85.5874 39.6597V38.7202C85.7228 38.7541 85.9006 38.771 86.1206 38.771C86.383 38.771 86.5819 38.6991 86.7173 38.5552C86.8569 38.4155 86.9268 38.1701 86.9268 37.8188V30.1318H88.1011ZM86.8062 28.3101C86.8062 28.1239 86.8633 27.9652 86.9775 27.834C87.096 27.6986 87.2674 27.6309 87.4917 27.6309C87.7202 27.6309 87.8937 27.6965 88.0122 27.8276C88.1307 27.9588 88.1899 28.1196 88.1899 28.3101C88.1899 28.5005 88.1307 28.6592 88.0122 28.7861C87.8937 28.9131 87.7202 28.9766 87.4917 28.9766C87.2632 28.9766 87.0918 28.9131 86.9775 28.7861C86.8633 28.6592 86.8062 28.5005 86.8062 28.3101ZM89.688 33.5024C89.688 32.8296 89.8192 32.2244 90.0815 31.687C90.3481 31.1496 90.7163 30.7349 91.186 30.4429C91.66 30.1509 92.1995 30.0049 92.8047 30.0049C93.7399 30.0049 94.4953 30.3286 95.0708 30.9761C95.6506 31.6235 95.9404 32.4847 95.9404 33.5596V33.6421C95.9404 34.3107 95.8114 34.9116 95.5532 35.4448C95.2993 35.9738 94.9333 36.3864 94.4551 36.6826C93.9811 36.9788 93.4352 37.127 92.8174 37.127C91.8864 37.127 91.131 36.8032 90.5513 36.1558C89.9757 35.5083 89.688 34.6514 89.688 33.585V33.5024ZM90.8687 33.6421C90.8687 34.4038 91.0443 35.0153 91.3955 35.4766C91.751 35.9378 92.2249 36.1685 92.8174 36.1685C93.4141 36.1685 93.888 35.9357 94.2393 35.4702C94.5905 35.0005 94.7661 34.3446 94.7661 33.5024C94.7661 32.7492 94.5863 32.1398 94.2266 31.6743C93.8711 31.2046 93.3971 30.9697 92.8047 30.9697C92.2249 30.9697 91.7573 31.2004 91.4019 31.6616C91.0464 32.1229 90.8687 32.783 90.8687 33.6421ZM98.5874 30.9634C99.1079 30.3244 99.785 30.0049 100.619 30.0049C102.07 30.0049 102.802 30.8237 102.815 32.4614V37H101.641V32.4551C101.636 31.96 101.522 31.5939 101.298 31.3569C101.078 31.12 100.733 31.0015 100.263 31.0015C99.8823 31.0015 99.548 31.103 99.2603 31.3062C98.9725 31.5093 98.7482 31.7759 98.5874 32.106V37H97.4131V27.25H98.5874V30.9634ZM105.684 30.1318L105.722 30.9951C106.247 30.335 106.932 30.0049 107.779 30.0049C109.23 30.0049 109.962 30.8237 109.975 32.4614V37H108.801V32.4551C108.797 31.96 108.682 31.5939 108.458 31.3569C108.238 31.12 107.893 31.0015 107.423 31.0015C107.042 31.0015 106.708 31.103 106.42 31.3062C106.133 31.5093 105.908 31.7759 105.748 32.106V37H104.573V30.1318H105.684ZM111.46 33.5088C111.46 32.4551 111.71 31.6087 112.209 30.9697C112.709 30.3265 113.363 30.0049 114.171 30.0049C114.975 30.0049 115.612 30.2799 116.082 30.8301V27.25H117.256V37H116.177L116.12 36.2637C115.65 36.8392 114.996 37.127 114.158 37.127C113.363 37.127 112.713 36.8011 112.209 36.1494C111.71 35.4977 111.46 34.6471 111.46 33.5977V33.5088ZM112.635 33.6421C112.635 34.4207 112.796 35.0301 113.117 35.4702C113.439 35.9103 113.883 36.1304 114.45 36.1304C115.195 36.1304 115.739 35.7961 116.082 35.1274V31.9727C115.73 31.3252 115.191 31.0015 114.463 31.0015C113.887 31.0015 113.439 31.2236 113.117 31.668C112.796 32.1123 112.635 32.7703 112.635 33.6421ZM118.773 33.5024C118.773 32.8296 118.904 32.2244 119.167 31.687C119.433 31.1496 119.801 30.7349 120.271 30.4429C120.745 30.1509 121.285 30.0049 121.89 30.0049C122.825 30.0049 123.58 30.3286 124.156 30.9761C124.736 31.6235 125.025 32.4847 125.025 33.5596V33.6421C125.025 34.3107 124.896 34.9116 124.638 35.4448C124.384 35.9738 124.018 36.3864 123.54 36.6826C123.066 36.9788 122.52 37.127 121.902 37.127C120.971 37.127 120.216 36.8032 119.636 36.1558C119.061 35.5083 118.773 34.6514 118.773 33.585V33.5024ZM119.954 33.6421C119.954 34.4038 120.129 35.0153 120.48 35.4766C120.836 35.9378 121.31 36.1685 121.902 36.1685C122.499 36.1685 122.973 35.9357 123.324 35.4702C123.675 35.0005 123.851 34.3446 123.851 33.5024C123.851 32.7492 123.671 32.1398 123.312 31.6743C122.956 31.2046 122.482 30.9697 121.89 30.9697C121.31 30.9697 120.842 31.2004 120.487 31.6616C120.131 32.1229 119.954 32.783 119.954 33.6421ZM129.348 37.127C128.417 37.127 127.66 36.8223 127.076 36.2129C126.492 35.5993 126.2 34.7804 126.2 33.7563V33.5405C126.2 32.8592 126.329 32.252 126.587 31.7188C126.849 31.1813 127.213 30.7624 127.679 30.4619C128.148 30.1572 128.656 30.0049 129.202 30.0049C130.095 30.0049 130.789 30.299 131.284 30.8872C131.779 31.4754 132.027 32.3175 132.027 33.4136V33.9023H127.374C127.391 34.5794 127.588 35.1274 127.964 35.5464C128.345 35.9611 128.828 36.1685 129.412 36.1685C129.826 36.1685 130.178 36.0838 130.465 35.9146C130.753 35.7453 131.005 35.521 131.221 35.2417L131.938 35.8003C131.362 36.6847 130.499 37.127 129.348 37.127ZM129.202 30.9697C128.728 30.9697 128.33 31.1432 128.009 31.4902C127.687 31.833 127.488 32.3154 127.412 32.9375H130.853V32.8486C130.819 32.252 130.658 31.7907 130.37 31.4648C130.082 31.1348 129.693 30.9697 129.202 30.9697Z" fill="black"/>
<rect x="86.5" y="58.5" width="82" height="22" fill="#F2F2F2" stroke="black"/>
<path d="M168.5 58.5H232.5V80.5H168.5V58.5Z" fill="#F2F2F2" stroke="black"/>
<path d="M183.462 70.2612H181.292V74H180.066V64.7578H183.126C184.167 64.7578 184.967 64.9948 185.525 65.4688C186.088 65.9427 186.37 66.6325 186.37 67.5381C186.37 68.1136 186.213 68.6151 185.9 69.0425C185.591 69.4699 185.159 69.7894 184.605 70.001L186.776 73.9238V74H185.468L183.462 70.2612ZM181.292 69.2646H183.164C183.769 69.2646 184.25 69.1081 184.605 68.7949C184.965 68.4818 185.145 68.0628 185.145 67.5381C185.145 66.9668 184.973 66.5288 184.63 66.2241C184.292 65.9194 183.801 65.765 183.158 65.7607H181.292V69.2646ZM195.193 69.6772C195.193 70.5828 195.041 71.3742 194.736 72.0513C194.431 72.7241 194 73.2383 193.441 73.5938C192.882 73.9492 192.231 74.127 191.486 74.127C190.758 74.127 190.113 73.9492 189.55 73.5938C188.987 73.234 188.549 72.7241 188.236 72.064C187.927 71.3996 187.768 70.6315 187.76 69.7598V69.0933C187.76 68.2046 187.914 67.4196 188.223 66.7383C188.532 66.057 188.968 65.5365 189.531 65.1768C190.098 64.8128 190.745 64.6309 191.473 64.6309C192.214 64.6309 192.865 64.8107 193.428 65.1704C193.995 65.5259 194.431 66.0443 194.736 66.7256C195.041 67.4027 195.193 68.1919 195.193 69.0933V69.6772ZM193.98 69.0806C193.98 67.9845 193.76 67.1445 193.32 66.5605C192.88 65.9723 192.264 65.6782 191.473 65.6782C190.703 65.6782 190.096 65.9723 189.651 66.5605C189.211 67.1445 188.985 67.957 188.972 68.998V69.6772C188.972 70.7394 189.194 71.5752 189.639 72.1846C190.087 72.7897 190.703 73.0923 191.486 73.0923C192.273 73.0923 192.882 72.8066 193.314 72.2354C193.746 71.6598 193.968 70.8368 193.98 69.7661V69.0806ZM198.246 73.0034H202.626V74H197.021V64.7578H198.246V73.0034ZM209.24 69.728H205.235V73.0034H209.888V74H204.016V64.7578H209.824V65.7607H205.235V68.7314H209.24V69.728ZM216.172 74.9585H210.357V74H216.172V74.9585ZM218.578 74H217.359V64.7578H218.578V74ZM220.812 74V64.7578H223.421C224.225 64.7578 224.936 64.9355 225.554 65.291C226.172 65.6465 226.648 66.1522 226.982 66.8081C227.32 67.464 227.492 68.2173 227.496 69.0679V69.6582C227.496 70.5299 227.327 71.2938 226.988 71.9497C226.654 72.6056 226.174 73.1092 225.547 73.4604C224.925 73.8117 224.2 73.9915 223.37 74H220.812ZM222.031 65.7607V73.0034H223.313C224.252 73.0034 224.982 72.7114 225.503 72.1274C226.028 71.5435 226.29 70.7119 226.29 69.6328V69.0933C226.29 68.0438 226.042 67.2292 225.547 66.6494C225.056 66.0654 224.358 65.7692 223.453 65.7607H222.031Z" fill="black"/>
<path d="M111.298 73.0034H115.678V74H110.073V64.7578H111.298V73.0034ZM123.758 69.6772C123.758 70.5828 123.606 71.3742 123.301 72.0513C122.997 72.7241 122.565 73.2383 122.006 73.5938C121.448 73.9492 120.796 74.127 120.051 74.127C119.323 74.127 118.678 73.9492 118.115 73.5938C117.552 73.234 117.114 72.7241 116.801 72.064C116.492 71.3996 116.334 70.6315 116.325 69.7598V69.0933C116.325 68.2046 116.48 67.4196 116.789 66.7383C117.097 66.057 117.533 65.5365 118.096 65.1768C118.663 64.8128 119.311 64.6309 120.039 64.6309C120.779 64.6309 121.431 64.8107 121.994 65.1704C122.561 65.5259 122.997 66.0443 123.301 66.7256C123.606 67.4027 123.758 68.1919 123.758 69.0933V69.6772ZM122.546 69.0806C122.546 67.9845 122.326 67.1445 121.886 66.5605C121.446 65.9723 120.83 65.6782 120.039 65.6782C119.268 65.6782 118.661 65.9723 118.217 66.5605C117.777 67.1445 117.55 67.957 117.538 68.998V69.6772C117.538 70.7394 117.76 71.5752 118.204 72.1846C118.653 72.7897 119.268 73.0923 120.051 73.0923C120.838 73.0923 121.448 72.8066 121.879 72.2354C122.311 71.6598 122.533 70.8368 122.546 69.7661V69.0806ZM132.41 72.7876C132.097 73.2362 131.659 73.5726 131.096 73.7969C130.538 74.0169 129.886 74.127 129.141 74.127C128.388 74.127 127.719 73.9513 127.135 73.6001C126.551 73.2446 126.098 72.741 125.777 72.0894C125.459 71.4377 125.297 70.6823 125.288 69.8232V69.0171C125.288 67.6248 125.612 66.5457 126.259 65.7798C126.911 65.0138 127.825 64.6309 129.001 64.6309C129.966 64.6309 130.743 64.8784 131.331 65.3735C131.919 65.8644 132.279 66.5627 132.41 67.4683H131.191C130.963 66.2453 130.235 65.6338 129.008 65.6338C128.191 65.6338 127.571 65.9215 127.148 66.4971C126.729 67.0684 126.517 67.8978 126.513 68.9854V69.7407C126.513 70.7775 126.75 71.6027 127.224 72.2163C127.698 72.8257 128.339 73.1304 129.147 73.1304C129.604 73.1304 130.004 73.0796 130.347 72.978C130.69 72.8765 130.973 72.7051 131.198 72.4639V70.3882H129.059V69.3979H132.41V72.7876ZM135.755 74H134.537V64.7578H135.755V74ZM145.093 74H143.868L139.215 66.8779V74H137.99V64.7578H139.215L143.88 71.9116V64.7578H145.093V74Z" fill="black"/>
<rect x="86.5" y="79.5" width="82" height="22" fill="#6FCF97" stroke="black"/>
<rect x="168.5" y="79.5" width="64" height="22" fill="#F2F2F2" stroke="black"/>
<path d="M197.627 95H196.447V87.1733L194.079 88.043V86.9766L197.443 85.7134H197.627V95Z" fill="black"/>
<path d="M106.101 88.1318V95.7935C106.101 97.1138 105.502 97.7739 104.305 97.7739C104.047 97.7739 103.807 97.7358 103.587 97.6597V96.7202C103.723 96.7541 103.901 96.771 104.121 96.771C104.383 96.771 104.582 96.6991 104.717 96.5552C104.857 96.4155 104.927 96.1701 104.927 95.8188V88.1318H106.101ZM104.806 86.3101C104.806 86.1239 104.863 85.9652 104.978 85.834C105.096 85.6986 105.267 85.6309 105.492 85.6309C105.72 85.6309 105.894 85.6965 106.012 85.8276C106.131 85.9588 106.19 86.1196 106.19 86.3101C106.19 86.5005 106.131 86.6592 106.012 86.7861C105.894 86.9131 105.72 86.9766 105.492 86.9766C105.263 86.9766 105.092 86.9131 104.978 86.7861C104.863 86.6592 104.806 86.5005 104.806 86.3101ZM107.688 91.5024C107.688 90.8296 107.819 90.2244 108.082 89.687C108.348 89.1496 108.716 88.7349 109.186 88.4429C109.66 88.1509 110.2 88.0049 110.805 88.0049C111.74 88.0049 112.495 88.3286 113.071 88.9761C113.651 89.6235 113.94 90.4847 113.94 91.5596V91.6421C113.94 92.3107 113.811 92.9116 113.553 93.4448C113.299 93.9738 112.933 94.3864 112.455 94.6826C111.981 94.9788 111.435 95.127 110.817 95.127C109.886 95.127 109.131 94.8032 108.551 94.1558C107.976 93.5083 107.688 92.6514 107.688 91.585V91.5024ZM108.869 91.6421C108.869 92.4038 109.044 93.0153 109.396 93.4766C109.751 93.9378 110.225 94.1685 110.817 94.1685C111.414 94.1685 111.888 93.9357 112.239 93.4702C112.59 93.0005 112.766 92.3446 112.766 91.5024C112.766 90.7492 112.586 90.1398 112.227 89.6743C111.871 89.2046 111.397 88.9697 110.805 88.9697C110.225 88.9697 109.757 89.2004 109.402 89.6616C109.046 90.1229 108.869 90.783 108.869 91.6421ZM116.587 88.9634C117.108 88.3244 117.785 88.0049 118.619 88.0049C120.07 88.0049 120.802 88.8237 120.815 90.4614V95H119.641V90.4551C119.636 89.96 119.522 89.5939 119.298 89.3569C119.078 89.12 118.733 89.0015 118.263 89.0015C117.882 89.0015 117.548 89.103 117.26 89.3062C116.972 89.5093 116.748 89.7759 116.587 90.106V95H115.413V85.25H116.587V88.9634ZM123.684 88.1318L123.722 88.9951C124.247 88.335 124.932 88.0049 125.779 88.0049C127.23 88.0049 127.962 88.8237 127.975 90.4614V95H126.801V90.4551C126.797 89.96 126.682 89.5939 126.458 89.3569C126.238 89.12 125.893 89.0015 125.423 89.0015C125.042 89.0015 124.708 89.103 124.42 89.3062C124.133 89.5093 123.908 89.7759 123.748 90.106V95H122.573V88.1318H123.684ZM129.46 91.5088C129.46 90.4551 129.71 89.6087 130.209 88.9697C130.709 88.3265 131.363 88.0049 132.171 88.0049C132.975 88.0049 133.612 88.2799 134.082 88.8301V85.25H135.256V95H134.177L134.12 94.2637C133.65 94.8392 132.996 95.127 132.158 95.127C131.363 95.127 130.713 94.8011 130.209 94.1494C129.71 93.4977 129.46 92.6471 129.46 91.5977V91.5088ZM130.635 91.6421C130.635 92.4207 130.796 93.0301 131.117 93.4702C131.439 93.9103 131.883 94.1304 132.45 94.1304C133.195 94.1304 133.739 93.7961 134.082 93.1274V89.9727C133.73 89.3252 133.191 89.0015 132.463 89.0015C131.887 89.0015 131.439 89.2236 131.117 89.668C130.796 90.1123 130.635 90.7703 130.635 91.6421ZM136.773 91.5024C136.773 90.8296 136.904 90.2244 137.167 89.687C137.433 89.1496 137.801 88.7349 138.271 88.4429C138.745 88.1509 139.285 88.0049 139.89 88.0049C140.825 88.0049 141.58 88.3286 142.156 88.9761C142.736 89.6235 143.025 90.4847 143.025 91.5596V91.6421C143.025 92.3107 142.896 92.9116 142.638 93.4448C142.384 93.9738 142.018 94.3864 141.54 94.6826C141.066 94.9788 140.52 95.127 139.902 95.127C138.971 95.127 138.216 94.8032 137.636 94.1558C137.061 93.5083 136.773 92.6514 136.773 91.585V91.5024ZM137.954 91.6421C137.954 92.4038 138.129 93.0153 138.48 93.4766C138.836 93.9378 139.31 94.1685 139.902 94.1685C140.499 94.1685 140.973 93.9357 141.324 93.4702C141.675 93.0005 141.851 92.3446 141.851 91.5024C141.851 90.7492 141.671 90.1398 141.312 89.6743C140.956 89.2046 140.482 88.9697 139.89 88.9697C139.31 88.9697 138.842 89.2004 138.487 89.6616C138.131 90.1229 137.954 90.783 137.954 91.6421ZM147.348 95.127C146.417 95.127 145.66 94.8223 145.076 94.2129C144.492 93.5993 144.2 92.7804 144.2 91.7563V91.5405C144.2 90.8592 144.329 90.252 144.587 89.7188C144.849 89.1813 145.213 88.7624 145.679 88.4619C146.148 88.1572 146.656 88.0049 147.202 88.0049C148.095 88.0049 148.789 88.299 149.284 88.8872C149.779 89.4754 150.027 90.3175 150.027 91.4136V91.9023H145.374C145.391 92.5794 145.588 93.1274 145.964 93.5464C146.345 93.9611 146.828 94.1685 147.412 94.1685C147.826 94.1685 148.178 94.0838 148.465 93.9146C148.753 93.7453 149.005 93.521 149.221 93.2417L149.938 93.8003C149.362 94.6847 148.499 95.127 147.348 95.127ZM147.202 88.9697C146.728 88.9697 146.33 89.1432 146.009 89.4902C145.687 89.833 145.488 90.3154 145.412 90.9375H148.853V90.8486C148.819 90.252 148.658 89.7907 148.37 89.4648C148.082 89.1348 147.693 88.9697 147.202 88.9697Z" fill="black"/>
<rect x="86.5" y="100.5" width="82" height="22" fill="#6FCF97" stroke="black"/>
<rect x="168.5" y="100.5" width="64" height="22" fill="#F2F2F2" stroke="black"/>
<path d="M199.824 116H193.768V115.156L196.967 111.601C197.441 111.064 197.767 110.628 197.945 110.293C198.127 109.955 198.218 109.606 198.218 109.246C198.218 108.764 198.072 108.368 197.78 108.059C197.488 107.75 197.098 107.596 196.612 107.596C196.028 107.596 195.573 107.763 195.247 108.097C194.925 108.427 194.765 108.889 194.765 109.481H193.59C193.59 108.63 193.863 107.943 194.409 107.418C194.959 106.893 195.694 106.631 196.612 106.631C197.471 106.631 198.15 106.857 198.649 107.31C199.149 107.759 199.398 108.357 199.398 109.106C199.398 110.016 198.819 111.1 197.659 112.356L195.184 115.042H199.824V116Z" fill="black"/>
<path d="M106.101 109.132V116.793C106.101 118.114 105.502 118.774 104.305 118.774C104.047 118.774 103.807 118.736 103.587 118.66V117.72C103.723 117.754 103.901 117.771 104.121 117.771C104.383 117.771 104.582 117.699 104.717 117.555C104.857 117.416 104.927 117.17 104.927 116.819V109.132H106.101ZM104.806 107.31C104.806 107.124 104.863 106.965 104.978 106.834C105.096 106.699 105.267 106.631 105.492 106.631C105.72 106.631 105.894 106.696 106.012 106.828C106.131 106.959 106.19 107.12 106.19 107.31C106.19 107.5 106.131 107.659 106.012 107.786C105.894 107.913 105.72 107.977 105.492 107.977C105.263 107.977 105.092 107.913 104.978 107.786C104.863 107.659 104.806 107.5 104.806 107.31ZM107.688 112.502C107.688 111.83 107.819 111.224 108.082 110.687C108.348 110.15 108.716 109.735 109.186 109.443C109.66 109.151 110.2 109.005 110.805 109.005C111.74 109.005 112.495 109.329 113.071 109.976C113.651 110.624 113.94 111.485 113.94 112.56V112.642C113.94 113.311 113.811 113.912 113.553 114.445C113.299 114.974 112.933 115.386 112.455 115.683C111.981 115.979 111.435 116.127 110.817 116.127C109.886 116.127 109.131 115.803 108.551 115.156C107.976 114.508 107.688 113.651 107.688 112.585V112.502ZM108.869 112.642C108.869 113.404 109.044 114.015 109.396 114.477C109.751 114.938 110.225 115.168 110.817 115.168C111.414 115.168 111.888 114.936 112.239 114.47C112.59 114 112.766 113.345 112.766 112.502C112.766 111.749 112.586 111.14 112.227 110.674C111.871 110.205 111.397 109.97 110.805 109.97C110.225 109.97 109.757 110.2 109.402 110.662C109.046 111.123 108.869 111.783 108.869 112.642ZM116.587 109.963C117.108 109.324 117.785 109.005 118.619 109.005C120.07 109.005 120.802 109.824 120.815 111.461V116H119.641V111.455C119.636 110.96 119.522 110.594 119.298 110.357C119.078 110.12 118.733 110.001 118.263 110.001C117.882 110.001 117.548 110.103 117.26 110.306C116.972 110.509 116.748 110.776 116.587 111.106V116H115.413V106.25H116.587V109.963ZM123.684 109.132L123.722 109.995C124.247 109.335 124.932 109.005 125.779 109.005C127.23 109.005 127.962 109.824 127.975 111.461V116H126.801V111.455C126.797 110.96 126.682 110.594 126.458 110.357C126.238 110.12 125.893 110.001 125.423 110.001C125.042 110.001 124.708 110.103 124.42 110.306C124.133 110.509 123.908 110.776 123.748 111.106V116H122.573V109.132H123.684ZM129.46 112.509C129.46 111.455 129.71 110.609 130.209 109.97C130.709 109.326 131.363 109.005 132.171 109.005C132.975 109.005 133.612 109.28 134.082 109.83V106.25H135.256V116H134.177L134.12 115.264C133.65 115.839 132.996 116.127 132.158 116.127C131.363 116.127 130.713 115.801 130.209 115.149C129.71 114.498 129.46 113.647 129.46 112.598V112.509ZM130.635 112.642C130.635 113.421 130.796 114.03 131.117 114.47C131.439 114.91 131.883 115.13 132.45 115.13C133.195 115.13 133.739 114.796 134.082 114.127V110.973C133.73 110.325 133.191 110.001 132.463 110.001C131.887 110.001 131.439 110.224 131.117 110.668C130.796 111.112 130.635 111.77 130.635 112.642ZM136.773 112.502C136.773 111.83 136.904 111.224 137.167 110.687C137.433 110.15 137.801 109.735 138.271 109.443C138.745 109.151 139.285 109.005 139.89 109.005C140.825 109.005 141.58 109.329 142.156 109.976C142.736 110.624 143.025 111.485 143.025 112.56V112.642C143.025 113.311 142.896 113.912 142.638 114.445C142.384 114.974 142.018 115.386 141.54 115.683C141.066 115.979 140.52 116.127 139.902 116.127C138.971 116.127 138.216 115.803 137.636 115.156C137.061 114.508 136.773 113.651 136.773 112.585V112.502ZM137.954 112.642C137.954 113.404 138.129 114.015 138.48 114.477C138.836 114.938 139.31 115.168 139.902 115.168C140.499 115.168 140.973 114.936 141.324 114.47C141.675 114 141.851 113.345 141.851 112.502C141.851 111.749 141.671 111.14 141.312 110.674C140.956 110.205 140.482 109.97 139.89 109.97C139.31 109.97 138.842 110.2 138.487 110.662C138.131 111.123 137.954 111.783 137.954 112.642ZM147.348 116.127C146.417 116.127 145.66 115.822 145.076 115.213C144.492 114.599 144.2 113.78 144.2 112.756V112.541C144.2 111.859 144.329 111.252 144.587 110.719C144.849 110.181 145.213 109.762 145.679 109.462C146.148 109.157 146.656 109.005 147.202 109.005C148.095 109.005 148.789 109.299 149.284 109.887C149.779 110.475 150.027 111.318 150.027 112.414V112.902H145.374C145.391 113.579 145.588 114.127 145.964 114.546C146.345 114.961 146.828 115.168 147.412 115.168C147.826 115.168 148.178 115.084 148.465 114.915C148.753 114.745 149.005 114.521 149.221 114.242L149.938 114.8C149.362 115.685 148.499 116.127 147.348 116.127ZM147.202 109.97C146.728 109.97 146.33 110.143 146.009 110.49C145.687 110.833 145.488 111.315 145.412 111.938H148.853V111.849C148.819 111.252 148.658 110.791 148.37 110.465C148.082 110.135 147.693 109.97 147.202 109.97Z" fill="black"/>
<rect x="86.5" y="122.5" width="82" height="22" fill="#6FCF97" stroke="black"/>
<rect x="168.5" y="122.5" width="64" height="22" fill="#F2F2F2" stroke="black"/>
<path d="M195.476 132.808H196.358C196.912 132.799 197.348 132.653 197.666 132.37C197.983 132.086 198.142 131.703 198.142 131.221C198.142 130.137 197.602 129.596 196.523 129.596C196.015 129.596 195.609 129.742 195.304 130.034C195.004 130.321 194.854 130.704 194.854 131.183H193.679C193.679 130.451 193.946 129.843 194.479 129.361C195.016 128.874 195.698 128.631 196.523 128.631C197.395 128.631 198.078 128.861 198.573 129.323C199.068 129.784 199.316 130.425 199.316 131.246C199.316 131.648 199.185 132.037 198.922 132.414C198.664 132.791 198.311 133.072 197.862 133.258C198.37 133.419 198.762 133.686 199.037 134.058C199.316 134.431 199.456 134.885 199.456 135.423C199.456 136.252 199.185 136.91 198.643 137.397C198.101 137.884 197.397 138.127 196.529 138.127C195.662 138.127 194.955 137.892 194.409 137.422C193.868 136.953 193.597 136.333 193.597 135.562H194.777C194.777 136.049 194.936 136.438 195.253 136.73C195.571 137.022 195.996 137.168 196.529 137.168C197.096 137.168 197.53 137.02 197.831 136.724C198.131 136.428 198.281 136.003 198.281 135.448C198.281 134.911 198.116 134.498 197.786 134.21C197.456 133.923 196.98 133.775 196.358 133.766H195.476V132.808Z" fill="black"/>
<path d="M106.101 131.132V138.793C106.101 140.114 105.502 140.774 104.305 140.774C104.047 140.774 103.807 140.736 103.587 140.66V139.72C103.723 139.754 103.901 139.771 104.121 139.771C104.383 139.771 104.582 139.699 104.717 139.555C104.857 139.416 104.927 139.17 104.927 138.819V131.132H106.101ZM104.806 129.31C104.806 129.124 104.863 128.965 104.978 128.834C105.096 128.699 105.267 128.631 105.492 128.631C105.72 128.631 105.894 128.696 106.012 128.828C106.131 128.959 106.19 129.12 106.19 129.31C106.19 129.5 106.131 129.659 106.012 129.786C105.894 129.913 105.72 129.977 105.492 129.977C105.263 129.977 105.092 129.913 104.978 129.786C104.863 129.659 104.806 129.5 104.806 129.31ZM107.688 134.502C107.688 133.83 107.819 133.224 108.082 132.687C108.348 132.15 108.716 131.735 109.186 131.443C109.66 131.151 110.2 131.005 110.805 131.005C111.74 131.005 112.495 131.329 113.071 131.976C113.651 132.624 113.94 133.485 113.94 134.56V134.642C113.94 135.311 113.811 135.912 113.553 136.445C113.299 136.974 112.933 137.386 112.455 137.683C111.981 137.979 111.435 138.127 110.817 138.127C109.886 138.127 109.131 137.803 108.551 137.156C107.976 136.508 107.688 135.651 107.688 134.585V134.502ZM108.869 134.642C108.869 135.404 109.044 136.015 109.396 136.477C109.751 136.938 110.225 137.168 110.817 137.168C111.414 137.168 111.888 136.936 112.239 136.47C112.59 136 112.766 135.345 112.766 134.502C112.766 133.749 112.586 133.14 112.227 132.674C111.871 132.205 111.397 131.97 110.805 131.97C110.225 131.97 109.757 132.2 109.402 132.662C109.046 133.123 108.869 133.783 108.869 134.642ZM116.587 131.963C117.108 131.324 117.785 131.005 118.619 131.005C120.07 131.005 120.802 131.824 120.815 133.461V138H119.641V133.455C119.636 132.96 119.522 132.594 119.298 132.357C119.078 132.12 118.733 132.001 118.263 132.001C117.882 132.001 117.548 132.103 117.26 132.306C116.972 132.509 116.748 132.776 116.587 133.106V138H115.413V128.25H116.587V131.963ZM123.684 131.132L123.722 131.995C124.247 131.335 124.932 131.005 125.779 131.005C127.23 131.005 127.962 131.824 127.975 133.461V138H126.801V133.455C126.797 132.96 126.682 132.594 126.458 132.357C126.238 132.12 125.893 132.001 125.423 132.001C125.042 132.001 124.708 132.103 124.42 132.306C124.133 132.509 123.908 132.776 123.748 133.106V138H122.573V131.132H123.684ZM129.46 134.509C129.46 133.455 129.71 132.609 130.209 131.97C130.709 131.326 131.363 131.005 132.171 131.005C132.975 131.005 133.612 131.28 134.082 131.83V128.25H135.256V138H134.177L134.12 137.264C133.65 137.839 132.996 138.127 132.158 138.127C131.363 138.127 130.713 137.801 130.209 137.149C129.71 136.498 129.46 135.647 129.46 134.598V134.509ZM130.635 134.642C130.635 135.421 130.796 136.03 131.117 136.47C131.439 136.91 131.883 137.13 132.45 137.13C133.195 137.13 133.739 136.796 134.082 136.127V132.973C133.73 132.325 133.191 132.001 132.463 132.001C131.887 132.001 131.439 132.224 131.117 132.668C130.796 133.112 130.635 133.77 130.635 134.642ZM136.773 134.502C136.773 133.83 136.904 133.224 137.167 132.687C137.433 132.15 137.801 131.735 138.271 131.443C138.745 131.151 139.285 131.005 139.89 131.005C140.825 131.005 141.58 131.329 142.156 131.976C142.736 132.624 143.025 133.485 143.025 134.56V134.642C143.025 135.311 142.896 135.912 142.638 136.445C142.384 136.974 142.018 137.386 141.54 137.683C141.066 137.979 140.52 138.127 139.902 138.127C138.971 138.127 138.216 137.803 137.636 137.156C137.061 136.508 136.773 135.651 136.773 134.585V134.502ZM137.954 134.642C137.954 135.404 138.129 136.015 138.48 136.477C138.836 136.938 139.31 137.168 139.902 137.168C140.499 137.168 140.973 136.936 141.324 136.47C141.675 136 141.851 135.345 141.851 134.502C141.851 133.749 141.671 133.14 141.312 132.674C140.956 132.205 140.482 131.97 139.89 131.97C139.31 131.97 138.842 132.2 138.487 132.662C138.131 133.123 137.954 133.783 137.954 134.642ZM147.348 138.127C146.417 138.127 145.66 137.822 145.076 137.213C144.492 136.599 144.2 135.78 144.2 134.756V134.541C144.2 133.859 144.329 133.252 144.587 132.719C144.849 132.181 145.213 131.762 145.679 131.462C146.148 131.157 146.656 131.005 147.202 131.005C148.095 131.005 148.789 131.299 149.284 131.887C149.779 132.475 150.027 133.318 150.027 134.414V134.902H145.374C145.391 135.579 145.588 136.127 145.964 136.546C146.345 136.961 146.828 137.168 147.412 137.168C147.826 137.168 148.178 137.084 148.465 136.915C148.753 136.745 149.005 136.521 149.221 136.242L149.938 136.8C149.362 137.685 148.499 138.127 147.348 138.127ZM147.202 131.97C146.728 131.97 146.33 132.143 146.009 132.49C145.687 132.833 145.488 133.315 145.412 133.938H148.853V133.849C148.819 133.252 148.658 132.791 148.37 132.465C148.082 132.135 147.693 131.97 147.202 131.97Z" fill="black"/>
<rect x="86.5" y="141.5" width="82" height="22" fill="#EB5757" stroke="black"/>
<rect x="168.5" y="141.5" width="64" height="22" fill="#F2F2F2" stroke="black"/>
<path d="M195.476 151.808H196.358C196.912 151.799 197.348 151.653 197.666 151.37C197.983 151.086 198.142 150.703 198.142 150.221C198.142 149.137 197.602 148.596 196.523 148.596C196.015 148.596 195.609 148.742 195.304 149.034C195.004 149.321 194.854 149.704 194.854 150.183H193.679C193.679 149.451 193.946 148.843 194.479 148.361C195.016 147.874 195.698 147.631 196.523 147.631C197.395 147.631 198.078 147.861 198.573 148.323C199.068 148.784 199.316 149.425 199.316 150.246C199.316 150.648 199.185 151.037 198.922 151.414C198.664 151.791 198.311 152.072 197.862 152.258C198.37 152.419 198.762 152.686 199.037 153.058C199.316 153.431 199.456 153.885 199.456 154.423C199.456 155.252 199.185 155.91 198.643 156.397C198.101 156.884 197.397 157.127 196.529 157.127C195.662 157.127 194.955 156.892 194.409 156.422C193.868 155.953 193.597 155.333 193.597 154.562H194.777C194.777 155.049 194.936 155.438 195.253 155.73C195.571 156.022 195.996 156.168 196.529 156.168C197.096 156.168 197.53 156.02 197.831 155.724C198.131 155.428 198.281 155.003 198.281 154.448C198.281 153.911 198.116 153.498 197.786 153.21C197.456 152.923 196.98 152.775 196.358 152.766H195.476V151.808Z" fill="black"/>
<path d="M109.129 157C109.061 156.865 109.006 156.623 108.964 156.276C108.418 156.843 107.766 157.127 107.009 157.127C106.332 157.127 105.775 156.937 105.339 156.556C104.908 156.171 104.692 155.684 104.692 155.096C104.692 154.381 104.963 153.826 105.504 153.433C106.05 153.035 106.816 152.836 107.802 152.836H108.945V152.296C108.945 151.886 108.822 151.56 108.577 151.319C108.331 151.073 107.969 150.951 107.491 150.951C107.072 150.951 106.721 151.056 106.438 151.268C106.154 151.48 106.012 151.736 106.012 152.036H104.832C104.832 151.693 104.952 151.363 105.193 151.046C105.439 150.724 105.769 150.47 106.184 150.284C106.603 150.098 107.062 150.005 107.561 150.005C108.352 150.005 108.972 150.204 109.421 150.602C109.869 150.995 110.102 151.539 110.119 152.233V155.394C110.119 156.025 110.2 156.526 110.36 156.898V157H109.129ZM107.18 156.105C107.548 156.105 107.897 156.01 108.228 155.819C108.558 155.629 108.797 155.381 108.945 155.077V153.667H108.024C106.586 153.667 105.866 154.089 105.866 154.931C105.866 155.299 105.989 155.587 106.234 155.794C106.48 156.001 106.795 156.105 107.18 156.105ZM113.236 157H112.062V147.25H113.236V157ZM117.971 157.127C117.04 157.127 116.283 156.822 115.699 156.213C115.115 155.599 114.823 154.78 114.823 153.756V153.541C114.823 152.859 114.952 152.252 115.21 151.719C115.472 151.181 115.836 150.762 116.302 150.462C116.771 150.157 117.279 150.005 117.825 150.005C118.718 150.005 119.412 150.299 119.907 150.887C120.402 151.475 120.65 152.318 120.65 153.414V153.902H115.997C116.014 154.579 116.211 155.127 116.587 155.546C116.968 155.961 117.451 156.168 118.035 156.168C118.449 156.168 118.801 156.084 119.088 155.915C119.376 155.745 119.628 155.521 119.844 155.242L120.561 155.8C119.986 156.685 119.122 157.127 117.971 157.127ZM117.825 150.97C117.351 150.97 116.953 151.143 116.632 151.49C116.31 151.833 116.111 152.315 116.035 152.938H119.476V152.849C119.442 152.252 119.281 151.791 118.993 151.465C118.705 151.135 118.316 150.97 117.825 150.97ZM124.319 152.639L125.842 150.132H127.213L124.966 153.528L127.283 157H125.925L124.338 154.429L122.751 157H121.386L123.703 153.528L121.456 150.132H122.814L124.319 152.639Z" fill="black"/>
<rect x="86.5" y="162.5" width="82" height="22" fill="#EB5757" stroke="black"/>
<rect x="168.5" y="162.5" width="64" height="22" fill="#F2F2F2" stroke="black"/>
<path d="M199.824 178H193.768V177.156L196.967 173.601C197.441 173.064 197.767 172.628 197.945 172.293C198.127 171.955 198.218 171.606 198.218 171.246C198.218 170.764 198.072 170.368 197.78 170.059C197.488 169.75 197.098 169.596 196.612 169.596C196.028 169.596 195.573 169.763 195.247 170.097C194.925 170.427 194.765 170.889 194.765 171.481H193.59C193.59 170.63 193.863 169.943 194.409 169.418C194.959 168.893 195.694 168.631 196.612 168.631C197.471 168.631 198.15 168.857 198.649 169.31C199.149 169.759 199.398 170.357 199.398 171.106C199.398 172.016 198.819 173.1 197.659 174.356L195.184 177.042H199.824V178Z" fill="black"/>
<path d="M106.806 174.82L106.069 175.588V178H104.895V168.25H106.069V174.147L106.698 173.392L108.837 171.132H110.265L107.593 174.001L110.576 178H109.199L106.806 174.82ZM115.718 178C115.65 177.865 115.595 177.623 115.553 177.276C115.007 177.843 114.355 178.127 113.598 178.127C112.921 178.127 112.364 177.937 111.928 177.556C111.497 177.171 111.281 176.684 111.281 176.096C111.281 175.381 111.552 174.826 112.093 174.433C112.639 174.035 113.405 173.836 114.391 173.836H115.534V173.296C115.534 172.886 115.411 172.56 115.166 172.319C114.92 172.073 114.558 171.951 114.08 171.951C113.661 171.951 113.31 172.056 113.026 172.268C112.743 172.48 112.601 172.736 112.601 173.036H111.42C111.42 172.693 111.541 172.363 111.782 172.046C112.028 171.724 112.358 171.47 112.772 171.284C113.191 171.098 113.651 171.005 114.15 171.005C114.941 171.005 115.561 171.204 116.01 171.602C116.458 171.995 116.691 172.539 116.708 173.233V176.394C116.708 177.025 116.788 177.526 116.949 177.898V178H115.718ZM113.769 177.105C114.137 177.105 114.486 177.01 114.816 176.819C115.146 176.629 115.386 176.381 115.534 176.077V174.667H114.613C113.174 174.667 112.455 175.089 112.455 175.931C112.455 176.299 112.578 176.587 112.823 176.794C113.069 177.001 113.384 177.105 113.769 177.105ZM120.142 169.469V171.132H121.424V172.04H120.142V176.299C120.142 176.574 120.199 176.781 120.313 176.921C120.428 177.056 120.622 177.124 120.897 177.124C121.033 177.124 121.219 177.099 121.456 177.048V178C121.147 178.085 120.847 178.127 120.555 178.127C120.03 178.127 119.634 177.968 119.368 177.651C119.101 177.333 118.968 176.883 118.968 176.299V172.04H117.717V171.132H118.968V169.469H120.142ZM125.652 178.127C124.721 178.127 123.963 177.822 123.379 177.213C122.795 176.599 122.503 175.78 122.503 174.756V174.541C122.503 173.859 122.632 173.252 122.891 172.719C123.153 172.181 123.517 171.762 123.982 171.462C124.452 171.157 124.96 171.005 125.506 171.005C126.399 171.005 127.093 171.299 127.588 171.887C128.083 172.475 128.331 173.318 128.331 174.414V174.902H123.678C123.695 175.579 123.891 176.127 124.268 176.546C124.649 176.961 125.131 177.168 125.715 177.168C126.13 177.168 126.481 177.084 126.769 176.915C127.057 176.745 127.309 176.521 127.524 176.242L128.242 176.8C127.666 177.685 126.803 178.127 125.652 178.127ZM125.506 171.97C125.032 171.97 124.634 172.143 124.312 172.49C123.991 172.833 123.792 173.315 123.716 173.938H127.156V173.849C127.122 173.252 126.962 172.791 126.674 172.465C126.386 172.135 125.997 171.97 125.506 171.97Z" fill="black"/>
<rect x="86.5" y="184.5" width="82" height="22" fill="#EB5757" stroke="black"/>
<rect x="168.5" y="184.5" width="64" height="22" fill="#F2F2F2" stroke="black"/>
<path d="M199.824 200H193.768V199.156L196.967 195.601C197.441 195.064 197.767 194.628 197.945 194.293C198.127 193.955 198.218 193.606 198.218 193.246C198.218 192.764 198.072 192.368 197.78 192.059C197.488 191.75 197.098 191.596 196.612 191.596C196.028 191.596 195.573 191.763 195.247 192.097C194.925 192.427 194.765 192.889 194.765 193.481H193.59C193.59 192.63 193.863 191.943 194.409 191.418C194.959 190.893 195.694 190.631 196.612 190.631C197.471 190.631 198.15 190.857 198.649 191.31C199.149 191.759 199.398 192.357 199.398 193.106C199.398 194.016 198.819 195.1 197.659 196.356L195.184 199.042H199.824V200Z" fill="black"/>
<path d="M105.993 193.132L106.025 193.894C106.528 193.301 107.208 193.005 108.062 193.005C109.023 193.005 109.677 193.373 110.024 194.109C110.252 193.779 110.549 193.513 110.913 193.31C111.281 193.106 111.715 193.005 112.214 193.005C113.72 193.005 114.486 193.803 114.512 195.398V200H113.337V195.468C113.337 194.977 113.225 194.611 113.001 194.37C112.777 194.124 112.4 194.001 111.871 194.001C111.435 194.001 111.073 194.133 110.786 194.395C110.498 194.653 110.331 195.002 110.284 195.442V200H109.104V195.5C109.104 194.501 108.615 194.001 107.637 194.001C106.867 194.001 106.34 194.329 106.057 194.985V200H104.882V193.132H105.993ZM117.565 200H116.391V193.132H117.565V200ZM116.295 191.31C116.295 191.12 116.353 190.959 116.467 190.828C116.585 190.696 116.759 190.631 116.987 190.631C117.216 190.631 117.389 190.696 117.508 190.828C117.626 190.959 117.686 191.12 117.686 191.31C117.686 191.5 117.626 191.659 117.508 191.786C117.389 191.913 117.216 191.977 116.987 191.977C116.759 191.977 116.585 191.913 116.467 191.786C116.353 191.659 116.295 191.5 116.295 191.31ZM121.367 196.82L120.631 197.588V200H119.457V190.25H120.631V196.147L121.259 195.392L123.398 193.132H124.827L122.154 196.001L125.138 200H123.76L121.367 196.82ZM128.762 200.127C127.831 200.127 127.074 199.822 126.49 199.213C125.906 198.599 125.614 197.78 125.614 196.756V196.541C125.614 195.859 125.743 195.252 126.001 194.719C126.263 194.181 126.627 193.762 127.093 193.462C127.562 193.157 128.07 193.005 128.616 193.005C129.509 193.005 130.203 193.299 130.698 193.887C131.193 194.475 131.441 195.318 131.441 196.414V196.902H126.788C126.805 197.579 127.002 198.127 127.378 198.546C127.759 198.961 128.242 199.168 128.826 199.168C129.24 199.168 129.592 199.084 129.879 198.915C130.167 198.745 130.419 198.521 130.635 198.242L131.352 198.8C130.777 199.685 129.913 200.127 128.762 200.127ZM128.616 193.97C128.142 193.97 127.744 194.143 127.423 194.49C127.101 194.833 126.902 195.315 126.826 195.938H130.267V195.849C130.233 195.252 130.072 194.791 129.784 194.465C129.496 194.135 129.107 193.97 128.616 193.97Z" fill="black"/>
<rect x="86.5" y="206.5" width="82" height="22" fill="#EB5757" stroke="black"/>
<rect x="168.5" y="206.5" width="64" height="22" fill="#F2F2F2" stroke="black"/>
<path d="M195.476 216.808H196.358C196.912 216.799 197.348 216.653 197.666 216.37C197.983 216.086 198.142 215.703 198.142 215.221C198.142 214.137 197.602 213.596 196.523 213.596C196.015 213.596 195.609 213.742 195.304 214.034C195.004 214.321 194.854 214.704 194.854 215.183H193.679C193.679 214.451 193.946 213.843 194.479 213.361C195.016 212.874 195.698 212.631 196.523 212.631C197.395 212.631 198.078 212.861 198.573 213.323C199.068 213.784 199.316 214.425 199.316 215.246C199.316 215.648 199.185 216.037 198.922 216.414C198.664 216.791 198.311 217.072 197.862 217.258C198.37 217.419 198.762 217.686 199.037 218.058C199.316 218.431 199.456 218.885 199.456 219.423C199.456 220.252 199.185 220.91 198.643 221.397C198.101 221.884 197.397 222.127 196.529 222.127C195.662 222.127 194.955 221.892 194.409 221.422C193.868 220.953 193.597 220.333 193.597 219.562H194.777C194.777 220.049 194.936 220.438 195.253 220.73C195.571 221.022 195.996 221.168 196.529 221.168C197.096 221.168 197.53 221.02 197.831 220.724C198.131 220.428 198.281 220.003 198.281 219.448C198.281 218.911 198.116 218.498 197.786 218.21C197.456 217.923 196.98 217.775 196.358 217.766H195.476V216.808Z" fill="black"/>
<path d="M104.603 218.509C104.603 217.455 104.853 216.609 105.352 215.97C105.851 215.326 106.505 215.005 107.313 215.005C108.118 215.005 108.754 215.28 109.224 215.83V212.25H110.398V222H109.319L109.262 221.264C108.792 221.839 108.139 222.127 107.301 222.127C106.505 222.127 105.856 221.801 105.352 221.149C104.853 220.498 104.603 219.647 104.603 218.598V218.509ZM105.777 218.642C105.777 219.421 105.938 220.03 106.26 220.47C106.581 220.91 107.026 221.13 107.593 221.13C108.338 221.13 108.881 220.796 109.224 220.127V216.973C108.873 216.325 108.333 216.001 107.605 216.001C107.03 216.001 106.581 216.224 106.26 216.668C105.938 217.112 105.777 217.77 105.777 218.642ZM113.331 215.132L113.363 215.894C113.866 215.301 114.546 215.005 115.4 215.005C116.361 215.005 117.015 215.373 117.362 216.109C117.59 215.779 117.887 215.513 118.25 215.31C118.619 215.106 119.052 215.005 119.552 215.005C121.058 215.005 121.824 215.803 121.85 217.398V222H120.675V217.468C120.675 216.977 120.563 216.611 120.339 216.37C120.115 216.124 119.738 216.001 119.209 216.001C118.773 216.001 118.411 216.133 118.124 216.395C117.836 216.653 117.669 217.002 117.622 217.442V222H116.441V217.5C116.441 216.501 115.953 216.001 114.975 216.001C114.205 216.001 113.678 216.329 113.395 216.985V222H112.22V215.132H113.331ZM124.903 222H123.729V215.132H124.903V222ZM123.633 213.31C123.633 213.12 123.69 212.959 123.805 212.828C123.923 212.696 124.097 212.631 124.325 212.631C124.554 212.631 124.727 212.696 124.846 212.828C124.964 212.959 125.023 213.12 125.023 213.31C125.023 213.5 124.964 213.659 124.846 213.786C124.727 213.913 124.554 213.977 124.325 213.977C124.097 213.977 123.923 213.913 123.805 213.786C123.69 213.659 123.633 213.5 123.633 213.31ZM128.381 213.469V215.132H129.664V216.04H128.381V220.299C128.381 220.574 128.438 220.781 128.553 220.921C128.667 221.056 128.862 221.124 129.137 221.124C129.272 221.124 129.458 221.099 129.695 221.048V222C129.386 222.085 129.086 222.127 128.794 222.127C128.269 222.127 127.874 221.968 127.607 221.651C127.34 221.333 127.207 220.883 127.207 220.299V216.04H125.957V215.132H127.207V213.469H128.381ZM134.361 216.186C134.183 216.156 133.991 216.141 133.783 216.141C133.013 216.141 132.49 216.469 132.215 217.125V222H131.041V215.132H132.184L132.203 215.925C132.588 215.312 133.134 215.005 133.84 215.005C134.069 215.005 134.242 215.035 134.361 215.094V216.186ZM137.808 220.28L139.407 215.132H140.664L137.903 223.06C137.475 224.203 136.796 224.774 135.865 224.774L135.643 224.755L135.205 224.672V223.72L135.522 223.746C135.92 223.746 136.229 223.665 136.449 223.504C136.674 223.344 136.858 223.049 137.001 222.622L137.262 221.924L134.812 215.132H136.094L137.808 220.28Z" fill="black"/>
<line x1="68" y1="32.5" x2="46" y2="32.5" stroke="black"/>
<line x1="83" y1="90.5" x2="46" y2="90.5" stroke="black"/>
<line x1="83" y1="111.5" x2="46" y2="111.5" stroke="black"/>
<line x1="84" y1="132.5" x2="46" y2="132.5" stroke="black"/>
<line x1="45.5" y1="133" x2="45.5" y2="32" stroke="black"/>
<path d="M86 90.5L77.75 95.2631V85.7369L86 90.5Z" fill="#6FCF97"/>
<path d="M86 111.5L77.75 116.263V106.737L86 111.5Z" fill="#6FCF97"/>
<path d="M86 132.5L77.75 137.263V127.737L86 132.5Z" fill="#6FCF97"/>
</svg>
