<svg width="399" height="115" viewBox="0 0 399 115" fill="none" xmlns="http://www.w3.org/2000/svg">
<rect width="399" height="115" fill="white"/>
<rect x="252.5" y="28.5" width="82" height="22" fill="#F2F2F2" stroke="black"/>
<path d="M334.5 28.5H398.5V50.5H334.5V28.5Z" fill="#F2F2F2" stroke="black"/>
<path d="M349.462 40.2612H347.292V44H346.066V34.7578H349.126C350.167 34.7578 350.967 34.9948 351.525 35.4688C352.088 35.9427 352.37 36.6325 352.37 37.5381C352.37 38.1136 352.213 38.6151 351.9 39.0425C351.591 39.4699 351.159 39.7894 350.605 40.001L352.776 43.9238V44H351.468L349.462 40.2612ZM347.292 39.2646H349.164C349.769 39.2646 350.25 39.1081 350.605 38.7949C350.965 38.4818 351.145 38.0628 351.145 37.5381C351.145 36.9668 350.973 36.5288 350.63 36.2241C350.292 35.9194 349.801 35.765 349.158 35.7607H347.292V39.2646ZM361.193 39.6772C361.193 40.5828 361.041 41.3742 360.736 42.0513C360.431 42.7241 360 43.2383 359.441 43.5938C358.882 43.9492 358.231 44.127 357.486 44.127C356.758 44.127 356.113 43.9492 355.55 43.5938C354.987 43.234 354.549 42.7241 354.236 42.064C353.927 41.3996 353.768 40.6315 353.76 39.7598V39.0933C353.76 38.2046 353.914 37.4196 354.223 36.7383C354.532 36.057 354.968 35.5365 355.531 35.1768C356.098 34.8128 356.745 34.6309 357.473 34.6309C358.214 34.6309 358.865 34.8107 359.428 35.1704C359.995 35.5259 360.431 36.0443 360.736 36.7256C361.041 37.4027 361.193 38.1919 361.193 39.0933V39.6772ZM359.98 39.0806C359.98 37.9845 359.76 37.1445 359.32 36.5605C358.88 35.9723 358.264 35.6782 357.473 35.6782C356.703 35.6782 356.096 35.9723 355.651 36.5605C355.211 37.1445 354.985 37.957 354.972 38.998V39.6772C354.972 40.7394 355.194 41.5752 355.639 42.1846C356.087 42.7897 356.703 43.0923 357.486 43.0923C358.273 43.0923 358.882 42.8066 359.314 42.2354C359.746 41.6598 359.968 40.8368 359.98 39.7661V39.0806ZM364.246 43.0034H368.626V44H363.021V34.7578H364.246V43.0034ZM375.24 39.728H371.235V43.0034H375.888V44H370.016V34.7578H375.824V35.7607H371.235V38.7314H375.24V39.728ZM382.172 44.9585H376.357V44H382.172V44.9585ZM384.578 44H383.359V34.7578H384.578V44ZM386.812 44V34.7578H389.421C390.225 34.7578 390.936 34.9355 391.554 35.291C392.172 35.6465 392.648 36.1522 392.982 36.8081C393.32 37.464 393.492 38.2173 393.496 39.0679V39.6582C393.496 40.5299 393.327 41.2938 392.988 41.9497C392.654 42.6056 392.174 43.1092 391.547 43.4604C390.925 43.8117 390.2 43.9915 389.37 44H386.812ZM388.031 35.7607V43.0034H389.313C390.252 43.0034 390.982 42.7114 391.503 42.1274C392.028 41.5435 392.29 40.7119 392.29 39.6328V39.0933C392.29 38.0438 392.042 37.2292 391.547 36.6494C391.056 36.0654 390.358 35.7692 389.453 35.7607H388.031Z" fill="black"/>
<path d="M277.298 43.0034H281.678V44H276.073V34.7578H277.298V43.0034ZM289.758 39.6772C289.758 40.5828 289.606 41.3742 289.301 42.0513C288.997 42.7241 288.565 43.2383 288.006 43.5938C287.448 43.9492 286.796 44.127 286.051 44.127C285.323 44.127 284.678 43.9492 284.115 43.5938C283.552 43.234 283.114 42.7241 282.801 42.064C282.492 41.3996 282.334 40.6315 282.325 39.7598V39.0933C282.325 38.2046 282.48 37.4196 282.789 36.7383C283.097 36.057 283.533 35.5365 284.096 35.1768C284.663 34.8128 285.311 34.6309 286.039 34.6309C286.779 34.6309 287.431 34.8107 287.994 35.1704C288.561 35.5259 288.997 36.0443 289.301 36.7256C289.606 37.4027 289.758 38.1919 289.758 39.0933V39.6772ZM288.546 39.0806C288.546 37.9845 288.326 37.1445 287.886 36.5605C287.446 35.9723 286.83 35.6782 286.039 35.6782C285.268 35.6782 284.661 35.9723 284.217 36.5605C283.777 37.1445 283.55 37.957 283.538 38.998V39.6772C283.538 40.7394 283.76 41.5752 284.204 42.1846C284.653 42.7897 285.268 43.0923 286.051 43.0923C286.838 43.0923 287.448 42.8066 287.879 42.2354C288.311 41.6598 288.533 40.8368 288.546 39.7661V39.0806ZM298.41 42.7876C298.097 43.2362 297.659 43.5726 297.096 43.7969C296.538 44.0169 295.886 44.127 295.141 44.127C294.388 44.127 293.719 43.9513 293.135 43.6001C292.551 43.2446 292.098 42.741 291.777 42.0894C291.459 41.4377 291.297 40.6823 291.288 39.8232V39.0171C291.288 37.6248 291.612 36.5457 292.259 35.7798C292.911 35.0138 293.825 34.6309 295.001 34.6309C295.966 34.6309 296.743 34.8784 297.331 35.3735C297.919 35.8644 298.279 36.5627 298.41 37.4683H297.191C296.963 36.2453 296.235 35.6338 295.008 35.6338C294.191 35.6338 293.571 35.9215 293.148 36.4971C292.729 37.0684 292.517 37.8978 292.513 38.9854V39.7407C292.513 40.7775 292.75 41.6027 293.224 42.2163C293.698 42.8257 294.339 43.1304 295.147 43.1304C295.604 43.1304 296.004 43.0796 296.347 42.978C296.69 42.8765 296.973 42.7051 297.198 42.4639V40.3882H295.059V39.3979H298.41V42.7876ZM301.755 44H300.537V34.7578H301.755V44ZM311.093 44H309.868L305.215 36.8779V44H303.99V34.7578H305.215L309.88 41.9116V34.7578H311.093V44Z" fill="black"/>
<rect x="252.5" y="49.5" width="82" height="22" fill="#6FCF97" stroke="black"/>
<rect x="334.5" y="49.5" width="64" height="22" fill="#F2F2F2" stroke="black"/>
<path d="M363.627 65H362.447V57.1733L360.079 58.043V56.9766L363.443 55.7134H363.627V65Z" fill="black"/>
<path d="M272.101 58.1318V65.7935C272.101 67.1138 271.502 67.7739 270.305 67.7739C270.047 67.7739 269.807 67.7358 269.587 67.6597V66.7202C269.723 66.7541 269.901 66.771 270.121 66.771C270.383 66.771 270.582 66.6991 270.717 66.5552C270.857 66.4155 270.927 66.1701 270.927 65.8188V58.1318H272.101ZM270.806 56.3101C270.806 56.1239 270.863 55.9652 270.978 55.834C271.096 55.6986 271.267 55.6309 271.492 55.6309C271.72 55.6309 271.894 55.6965 272.012 55.8276C272.131 55.9588 272.19 56.1196 272.19 56.3101C272.19 56.5005 272.131 56.6592 272.012 56.7861C271.894 56.9131 271.72 56.9766 271.492 56.9766C271.263 56.9766 271.092 56.9131 270.978 56.7861C270.863 56.6592 270.806 56.5005 270.806 56.3101ZM273.688 61.5024C273.688 60.8296 273.819 60.2244 274.082 59.687C274.348 59.1496 274.716 58.7349 275.186 58.4429C275.66 58.1509 276.2 58.0049 276.805 58.0049C277.74 58.0049 278.495 58.3286 279.071 58.9761C279.651 59.6235 279.94 60.4847 279.94 61.5596V61.6421C279.94 62.3107 279.811 62.9116 279.553 63.4448C279.299 63.9738 278.933 64.3864 278.455 64.6826C277.981 64.9788 277.435 65.127 276.817 65.127C275.886 65.127 275.131 64.8032 274.551 64.1558C273.976 63.5083 273.688 62.6514 273.688 61.585V61.5024ZM274.869 61.6421C274.869 62.4038 275.044 63.0153 275.396 63.4766C275.751 63.9378 276.225 64.1685 276.817 64.1685C277.414 64.1685 277.888 63.9357 278.239 63.4702C278.59 63.0005 278.766 62.3446 278.766 61.5024C278.766 60.7492 278.586 60.1398 278.227 59.6743C277.871 59.2046 277.397 58.9697 276.805 58.9697C276.225 58.9697 275.757 59.2004 275.402 59.6616C275.046 60.1229 274.869 60.783 274.869 61.6421ZM282.587 58.9634C283.108 58.3244 283.785 58.0049 284.619 58.0049C286.07 58.0049 286.802 58.8237 286.815 60.4614V65H285.641V60.4551C285.636 59.96 285.522 59.5939 285.298 59.3569C285.078 59.12 284.733 59.0015 284.263 59.0015C283.882 59.0015 283.548 59.103 283.26 59.3062C282.972 59.5093 282.748 59.7759 282.587 60.106V65H281.413V55.25H282.587V58.9634ZM289.684 58.1318L289.722 58.9951C290.247 58.335 290.932 58.0049 291.779 58.0049C293.23 58.0049 293.962 58.8237 293.975 60.4614V65H292.801V60.4551C292.797 59.96 292.682 59.5939 292.458 59.3569C292.238 59.12 291.893 59.0015 291.423 59.0015C291.042 59.0015 290.708 59.103 290.42 59.3062C290.133 59.5093 289.908 59.7759 289.748 60.106V65H288.573V58.1318H289.684ZM295.46 61.5088C295.46 60.4551 295.71 59.6087 296.209 58.9697C296.709 58.3265 297.363 58.0049 298.171 58.0049C298.975 58.0049 299.612 58.2799 300.082 58.8301V55.25H301.256V65H300.177L300.12 64.2637C299.65 64.8392 298.996 65.127 298.158 65.127C297.363 65.127 296.713 64.8011 296.209 64.1494C295.71 63.4977 295.46 62.6471 295.46 61.5977V61.5088ZM296.635 61.6421C296.635 62.4207 296.796 63.0301 297.117 63.4702C297.439 63.9103 297.883 64.1304 298.45 64.1304C299.195 64.1304 299.739 63.7961 300.082 63.1274V59.9727C299.73 59.3252 299.191 59.0015 298.463 59.0015C297.887 59.0015 297.439 59.2236 297.117 59.668C296.796 60.1123 296.635 60.7703 296.635 61.6421ZM302.773 61.5024C302.773 60.8296 302.904 60.2244 303.167 59.687C303.433 59.1496 303.801 58.7349 304.271 58.4429C304.745 58.1509 305.285 58.0049 305.89 58.0049C306.825 58.0049 307.58 58.3286 308.156 58.9761C308.736 59.6235 309.025 60.4847 309.025 61.5596V61.6421C309.025 62.3107 308.896 62.9116 308.638 63.4448C308.384 63.9738 308.018 64.3864 307.54 64.6826C307.066 64.9788 306.52 65.127 305.902 65.127C304.971 65.127 304.216 64.8032 303.636 64.1558C303.061 63.5083 302.773 62.6514 302.773 61.585V61.5024ZM303.954 61.6421C303.954 62.4038 304.129 63.0153 304.48 63.4766C304.836 63.9378 305.31 64.1685 305.902 64.1685C306.499 64.1685 306.973 63.9357 307.324 63.4702C307.675 63.0005 307.851 62.3446 307.851 61.5024C307.851 60.7492 307.671 60.1398 307.312 59.6743C306.956 59.2046 306.482 58.9697 305.89 58.9697C305.31 58.9697 304.842 59.2004 304.487 59.6616C304.131 60.1229 303.954 60.783 303.954 61.6421ZM313.348 65.127C312.417 65.127 311.66 64.8223 311.076 64.2129C310.492 63.5993 310.2 62.7804 310.2 61.7563V61.5405C310.2 60.8592 310.329 60.252 310.587 59.7188C310.849 59.1813 311.213 58.7624 311.679 58.4619C312.148 58.1572 312.656 58.0049 313.202 58.0049C314.095 58.0049 314.789 58.299 315.284 58.8872C315.779 59.4754 316.027 60.3175 316.027 61.4136V61.9023H311.374C311.391 62.5794 311.588 63.1274 311.964 63.5464C312.345 63.9611 312.828 64.1685 313.412 64.1685C313.826 64.1685 314.178 64.0838 314.465 63.9146C314.753 63.7453 315.005 63.521 315.221 63.2417L315.938 63.8003C315.362 64.6847 314.499 65.127 313.348 65.127ZM313.202 58.9697C312.728 58.9697 312.33 59.1432 312.009 59.4902C311.687 59.833 311.488 60.3154 311.412 60.9375H314.853V60.8486C314.819 60.252 314.658 59.7907 314.37 59.4648C314.082 59.1348 313.693 58.9697 313.202 58.9697Z" fill="black"/>
<rect x="252.5" y="71.5" width="82" height="22" fill="#6FCF97" stroke="black"/>
<rect x="334.5" y="71.5" width="64" height="22" fill="#F2F2F2" stroke="black"/>
<path d="M365.824 86H359.768V85.1558L362.967 81.6011C363.441 81.0636 363.767 80.6278 363.945 80.2935C364.127 79.9549 364.218 79.6058 364.218 79.2461C364.218 78.7637 364.072 78.368 363.78 78.0591C363.488 77.7502 363.098 77.5957 362.612 77.5957C362.028 77.5957 361.573 77.7629 361.247 78.0972C360.925 78.4272 360.765 78.8885 360.765 79.481H359.59C359.59 78.6304 359.863 77.9427 360.409 77.418C360.959 76.8932 361.694 76.6309 362.612 76.6309C363.471 76.6309 364.15 76.8573 364.649 77.3101C365.149 77.7586 365.398 78.3574 365.398 79.1064C365.398 80.0163 364.819 81.0996 363.659 82.3564L361.184 85.0415H365.824V86Z" fill="black"/>
<path d="M272.101 79.1318V86.7935C272.101 88.1138 271.502 88.7739 270.305 88.7739C270.047 88.7739 269.807 88.7358 269.587 88.6597V87.7202C269.723 87.7541 269.901 87.771 270.121 87.771C270.383 87.771 270.582 87.6991 270.717 87.5552C270.857 87.4155 270.927 87.1701 270.927 86.8188V79.1318H272.101ZM270.806 77.3101C270.806 77.1239 270.863 76.9652 270.978 76.834C271.096 76.6986 271.267 76.6309 271.492 76.6309C271.72 76.6309 271.894 76.6965 272.012 76.8276C272.131 76.9588 272.19 77.1196 272.19 77.3101C272.19 77.5005 272.131 77.6592 272.012 77.7861C271.894 77.9131 271.72 77.9766 271.492 77.9766C271.263 77.9766 271.092 77.9131 270.978 77.7861C270.863 77.6592 270.806 77.5005 270.806 77.3101ZM273.688 82.5024C273.688 81.8296 273.819 81.2244 274.082 80.687C274.348 80.1496 274.716 79.7349 275.186 79.4429C275.66 79.1509 276.2 79.0049 276.805 79.0049C277.74 79.0049 278.495 79.3286 279.071 79.9761C279.651 80.6235 279.94 81.4847 279.94 82.5596V82.6421C279.94 83.3107 279.811 83.9116 279.553 84.4448C279.299 84.9738 278.933 85.3864 278.455 85.6826C277.981 85.9788 277.435 86.127 276.817 86.127C275.886 86.127 275.131 85.8032 274.551 85.1558C273.976 84.5083 273.688 83.6514 273.688 82.585V82.5024ZM274.869 82.6421C274.869 83.4038 275.044 84.0153 275.396 84.4766C275.751 84.9378 276.225 85.1685 276.817 85.1685C277.414 85.1685 277.888 84.9357 278.239 84.4702C278.59 84.0005 278.766 83.3446 278.766 82.5024C278.766 81.7492 278.586 81.1398 278.227 80.6743C277.871 80.2046 277.397 79.9697 276.805 79.9697C276.225 79.9697 275.757 80.2004 275.402 80.6616C275.046 81.1229 274.869 81.783 274.869 82.6421ZM282.587 79.9634C283.108 79.3244 283.785 79.0049 284.619 79.0049C286.07 79.0049 286.802 79.8237 286.815 81.4614V86H285.641V81.4551C285.636 80.96 285.522 80.5939 285.298 80.3569C285.078 80.12 284.733 80.0015 284.263 80.0015C283.882 80.0015 283.548 80.103 283.26 80.3062C282.972 80.5093 282.748 80.7759 282.587 81.106V86H281.413V76.25H282.587V79.9634ZM289.684 79.1318L289.722 79.9951C290.247 79.335 290.932 79.0049 291.779 79.0049C293.23 79.0049 293.962 79.8237 293.975 81.4614V86H292.801V81.4551C292.797 80.96 292.682 80.5939 292.458 80.3569C292.238 80.12 291.893 80.0015 291.423 80.0015C291.042 80.0015 290.708 80.103 290.42 80.3062C290.133 80.5093 289.908 80.7759 289.748 81.106V86H288.573V79.1318H289.684ZM295.46 82.5088C295.46 81.4551 295.71 80.6087 296.209 79.9697C296.709 79.3265 297.363 79.0049 298.171 79.0049C298.975 79.0049 299.612 79.2799 300.082 79.8301V76.25H301.256V86H300.177L300.12 85.2637C299.65 85.8392 298.996 86.127 298.158 86.127C297.363 86.127 296.713 85.8011 296.209 85.1494C295.71 84.4977 295.46 83.6471 295.46 82.5977V82.5088ZM296.635 82.6421C296.635 83.4207 296.796 84.0301 297.117 84.4702C297.439 84.9103 297.883 85.1304 298.45 85.1304C299.195 85.1304 299.739 84.7961 300.082 84.1274V80.9727C299.73 80.3252 299.191 80.0015 298.463 80.0015C297.887 80.0015 297.439 80.2236 297.117 80.668C296.796 81.1123 296.635 81.7703 296.635 82.6421ZM302.773 82.5024C302.773 81.8296 302.904 81.2244 303.167 80.687C303.433 80.1496 303.801 79.7349 304.271 79.4429C304.745 79.1509 305.285 79.0049 305.89 79.0049C306.825 79.0049 307.58 79.3286 308.156 79.9761C308.736 80.6235 309.025 81.4847 309.025 82.5596V82.6421C309.025 83.3107 308.896 83.9116 308.638 84.4448C308.384 84.9738 308.018 85.3864 307.54 85.6826C307.066 85.9788 306.52 86.127 305.902 86.127C304.971 86.127 304.216 85.8032 303.636 85.1558C303.061 84.5083 302.773 83.6514 302.773 82.585V82.5024ZM303.954 82.6421C303.954 83.4038 304.129 84.0153 304.48 84.4766C304.836 84.9378 305.31 85.1685 305.902 85.1685C306.499 85.1685 306.973 84.9357 307.324 84.4702C307.675 84.0005 307.851 83.3446 307.851 82.5024C307.851 81.7492 307.671 81.1398 307.312 80.6743C306.956 80.2046 306.482 79.9697 305.89 79.9697C305.31 79.9697 304.842 80.2004 304.487 80.6616C304.131 81.1229 303.954 81.783 303.954 82.6421ZM313.348 86.127C312.417 86.127 311.66 85.8223 311.076 85.2129C310.492 84.5993 310.2 83.7804 310.2 82.7563V82.5405C310.2 81.8592 310.329 81.252 310.587 80.7188C310.849 80.1813 311.213 79.7624 311.679 79.4619C312.148 79.1572 312.656 79.0049 313.202 79.0049C314.095 79.0049 314.789 79.299 315.284 79.8872C315.779 80.4754 316.027 81.3175 316.027 82.4136V82.9023H311.374C311.391 83.5794 311.588 84.1274 311.964 84.5464C312.345 84.9611 312.828 85.1685 313.412 85.1685C313.826 85.1685 314.178 85.0838 314.465 84.9146C314.753 84.7453 315.005 84.521 315.221 84.2417L315.938 84.8003C315.362 85.6847 314.499 86.127 313.348 86.127ZM313.202 79.9697C312.728 79.9697 312.33 80.1432 312.009 80.4902C311.687 80.833 311.488 81.3154 311.412 81.9375H314.853V81.8486C314.819 81.252 314.658 80.7907 314.37 80.4648C314.082 80.1348 313.693 79.9697 313.202 79.9697Z" fill="black"/>
<rect x="252.5" y="92.5" width="82" height="22" fill="#6FCF97" stroke="black"/>
<rect x="334.5" y="92.5" width="64" height="22" fill="#F2F2F2" stroke="black"/>
<path d="M361.476 102.808H362.358C362.912 102.799 363.348 102.653 363.666 102.37C363.983 102.086 364.142 101.703 364.142 101.221C364.142 100.137 363.602 99.5957 362.523 99.5957C362.015 99.5957 361.609 99.7417 361.304 100.034C361.004 100.321 360.854 100.704 360.854 101.183H359.679C359.679 100.451 359.946 99.8433 360.479 99.3608C361.016 98.8742 361.698 98.6309 362.523 98.6309C363.395 98.6309 364.078 98.8615 364.573 99.3228C365.068 99.784 365.316 100.425 365.316 101.246C365.316 101.648 365.185 102.037 364.922 102.414C364.664 102.791 364.311 103.072 363.862 103.258C364.37 103.419 364.762 103.686 365.037 104.058C365.316 104.431 365.456 104.885 365.456 105.423C365.456 106.252 365.185 106.91 364.643 107.397C364.101 107.884 363.397 108.127 362.529 108.127C361.662 108.127 360.955 107.892 360.409 107.422C359.868 106.953 359.597 106.333 359.597 105.562H360.777C360.777 106.049 360.936 106.438 361.253 106.73C361.571 107.022 361.996 107.168 362.529 107.168C363.096 107.168 363.53 107.02 363.831 106.724C364.131 106.428 364.281 106.003 364.281 105.448C364.281 104.911 364.116 104.498 363.786 104.21C363.456 103.923 362.98 103.775 362.358 103.766H361.476V102.808Z" fill="black"/>
<path d="M272.101 101.132V108.793C272.101 110.114 271.502 110.774 270.305 110.774C270.047 110.774 269.807 110.736 269.587 110.66V109.72C269.723 109.754 269.901 109.771 270.121 109.771C270.383 109.771 270.582 109.699 270.717 109.555C270.857 109.416 270.927 109.17 270.927 108.819V101.132H272.101ZM270.806 99.3101C270.806 99.1239 270.863 98.9652 270.978 98.834C271.096 98.6986 271.267 98.6309 271.492 98.6309C271.72 98.6309 271.894 98.6965 272.012 98.8276C272.131 98.9588 272.19 99.1196 272.19 99.3101C272.19 99.5005 272.131 99.6592 272.012 99.7861C271.894 99.9131 271.72 99.9766 271.492 99.9766C271.263 99.9766 271.092 99.9131 270.978 99.7861C270.863 99.6592 270.806 99.5005 270.806 99.3101ZM273.688 104.502C273.688 103.83 273.819 103.224 274.082 102.687C274.348 102.15 274.716 101.735 275.186 101.443C275.66 101.151 276.2 101.005 276.805 101.005C277.74 101.005 278.495 101.329 279.071 101.976C279.651 102.624 279.94 103.485 279.94 104.56V104.642C279.94 105.311 279.811 105.912 279.553 106.445C279.299 106.974 278.933 107.386 278.455 107.683C277.981 107.979 277.435 108.127 276.817 108.127C275.886 108.127 275.131 107.803 274.551 107.156C273.976 106.508 273.688 105.651 273.688 104.585V104.502ZM274.869 104.642C274.869 105.404 275.044 106.015 275.396 106.477C275.751 106.938 276.225 107.168 276.817 107.168C277.414 107.168 277.888 106.936 278.239 106.47C278.59 106 278.766 105.345 278.766 104.502C278.766 103.749 278.586 103.14 278.227 102.674C277.871 102.205 277.397 101.97 276.805 101.97C276.225 101.97 275.757 102.2 275.402 102.662C275.046 103.123 274.869 103.783 274.869 104.642ZM282.587 101.963C283.108 101.324 283.785 101.005 284.619 101.005C286.07 101.005 286.802 101.824 286.815 103.461V108H285.641V103.455C285.636 102.96 285.522 102.594 285.298 102.357C285.078 102.12 284.733 102.001 284.263 102.001C283.882 102.001 283.548 102.103 283.26 102.306C282.972 102.509 282.748 102.776 282.587 103.106V108H281.413V98.25H282.587V101.963ZM289.684 101.132L289.722 101.995C290.247 101.335 290.932 101.005 291.779 101.005C293.23 101.005 293.962 101.824 293.975 103.461V108H292.801V103.455C292.797 102.96 292.682 102.594 292.458 102.357C292.238 102.12 291.893 102.001 291.423 102.001C291.042 102.001 290.708 102.103 290.42 102.306C290.133 102.509 289.908 102.776 289.748 103.106V108H288.573V101.132H289.684ZM295.46 104.509C295.46 103.455 295.71 102.609 296.209 101.97C296.709 101.326 297.363 101.005 298.171 101.005C298.975 101.005 299.612 101.28 300.082 101.83V98.25H301.256V108H300.177L300.12 107.264C299.65 107.839 298.996 108.127 298.158 108.127C297.363 108.127 296.713 107.801 296.209 107.149C295.71 106.498 295.46 105.647 295.46 104.598V104.509ZM296.635 104.642C296.635 105.421 296.796 106.03 297.117 106.47C297.439 106.91 297.883 107.13 298.45 107.13C299.195 107.13 299.739 106.796 300.082 106.127V102.973C299.73 102.325 299.191 102.001 298.463 102.001C297.887 102.001 297.439 102.224 297.117 102.668C296.796 103.112 296.635 103.77 296.635 104.642ZM302.773 104.502C302.773 103.83 302.904 103.224 303.167 102.687C303.433 102.15 303.801 101.735 304.271 101.443C304.745 101.151 305.285 101.005 305.89 101.005C306.825 101.005 307.58 101.329 308.156 101.976C308.736 102.624 309.025 103.485 309.025 104.56V104.642C309.025 105.311 308.896 105.912 308.638 106.445C308.384 106.974 308.018 107.386 307.54 107.683C307.066 107.979 306.52 108.127 305.902 108.127C304.971 108.127 304.216 107.803 303.636 107.156C303.061 106.508 302.773 105.651 302.773 104.585V104.502ZM303.954 104.642C303.954 105.404 304.129 106.015 304.48 106.477C304.836 106.938 305.31 107.168 305.902 107.168C306.499 107.168 306.973 106.936 307.324 106.47C307.675 106 307.851 105.345 307.851 104.502C307.851 103.749 307.671 103.14 307.312 102.674C306.956 102.205 306.482 101.97 305.89 101.97C305.31 101.97 304.842 102.2 304.487 102.662C304.131 103.123 303.954 103.783 303.954 104.642ZM313.348 108.127C312.417 108.127 311.66 107.822 311.076 107.213C310.492 106.599 310.2 105.78 310.2 104.756V104.541C310.2 103.859 310.329 103.252 310.587 102.719C310.849 102.181 311.213 101.762 311.679 101.462C312.148 101.157 312.656 101.005 313.202 101.005C314.095 101.005 314.789 101.299 315.284 101.887C315.779 102.475 316.027 103.318 316.027 104.414V104.902H311.374C311.391 105.579 311.588 106.127 311.964 106.546C312.345 106.961 312.828 107.168 313.412 107.168C313.826 107.168 314.178 107.084 314.465 106.915C314.753 106.745 315.005 106.521 315.221 106.242L315.938 106.8C315.362 107.685 314.499 108.127 313.348 108.127ZM313.202 101.97C312.728 101.97 312.33 102.143 312.009 102.49C311.687 102.833 311.488 103.315 311.412 103.938H314.853V103.849C314.819 103.252 314.658 102.791 314.37 102.465C314.082 102.135 313.693 101.97 313.202 101.97Z" fill="black"/>
<rect x="0.5" y="28.5" width="82" height="22" fill="#F2F2F2" stroke="black"/>
<rect x="81.5" y="28.5" width="171" height="22" fill="#F2F2F2" stroke="black"/>
<path d="M154.297 39.728H150.292V43.0034H154.944V44H149.073V34.7578H154.881V35.7607H150.292V38.7314H154.297V39.728ZM158.036 34.7578L161.057 42.2988L164.079 34.7578H165.659V44H164.44V40.4009L164.555 36.5161L161.521 44H160.587L157.56 36.5352L157.68 40.4009V44H156.461V34.7578H158.036ZM173.029 41.5879H169.157L168.287 44H167.03L170.56 34.7578H171.626L175.162 44H173.911L173.029 41.5879ZM169.525 40.585H172.667L171.093 36.2622L169.525 40.585ZM177.713 44H176.495V34.7578H177.713V44ZM181.173 43.0034H185.553V44H179.948V34.7578H181.173V43.0034Z" fill="black"/>
<path d="M25.2979 43.0034H29.6777V44H24.0728V34.7578H25.2979V43.0034ZM37.7583 39.6772C37.7583 40.5828 37.606 41.3742 37.3013 42.0513C36.9966 42.7241 36.5649 43.2383 36.0063 43.5938C35.4478 43.9492 34.7961 44.127 34.0513 44.127C33.3234 44.127 32.6781 43.9492 32.1152 43.5938C31.5524 43.234 31.1144 42.7241 30.8013 42.064C30.4924 41.3996 30.3337 40.6315 30.3252 39.7598V39.0933C30.3252 38.2046 30.4797 37.4196 30.7886 36.7383C31.0975 36.057 31.5334 35.5365 32.0962 35.1768C32.6632 34.8128 33.3107 34.6309 34.0386 34.6309C34.7791 34.6309 35.4308 34.8107 35.9937 35.1704C36.5607 35.5259 36.9966 36.0443 37.3013 36.7256C37.606 37.4027 37.7583 38.1919 37.7583 39.0933V39.6772ZM36.5459 39.0806C36.5459 37.9845 36.3258 37.1445 35.8857 36.5605C35.4456 35.9723 34.8299 35.6782 34.0386 35.6782C33.2684 35.6782 32.6611 35.9723 32.2168 36.5605C31.7767 37.1445 31.5503 37.957 31.5376 38.998V39.6772C31.5376 40.7394 31.7598 41.5752 32.2041 42.1846C32.6527 42.7897 33.2684 43.0923 34.0513 43.0923C34.8384 43.0923 35.4478 42.8066 35.8794 42.2354C36.311 41.6598 36.5332 40.8368 36.5459 39.7661V39.0806ZM46.4102 42.7876C46.097 43.2362 45.659 43.5726 45.0962 43.7969C44.5376 44.0169 43.8859 44.127 43.1411 44.127C42.3879 44.127 41.7192 43.9513 41.1353 43.6001C40.5513 43.2446 40.0985 42.741 39.7769 42.0894C39.4595 41.4377 39.2965 40.6823 39.2881 39.8232V39.0171C39.2881 37.6248 39.6118 36.5457 40.2593 35.7798C40.911 35.0138 41.825 34.6309 43.0015 34.6309C43.9663 34.6309 44.7428 34.8784 45.3311 35.3735C45.9193 35.8644 46.279 36.5627 46.4102 37.4683H45.1914C44.9629 36.2453 44.235 35.6338 43.0078 35.6338C42.1911 35.6338 41.5711 35.9215 41.1479 36.4971C40.729 37.0684 40.5174 37.8978 40.5132 38.9854V39.7407C40.5132 40.7775 40.7502 41.6027 41.2241 42.2163C41.6981 42.8257 42.3392 43.1304 43.1475 43.1304C43.6045 43.1304 44.0044 43.0796 44.3472 42.978C44.6899 42.8765 44.9735 42.7051 45.1978 42.4639V40.3882H43.0586V39.3979H46.4102V42.7876ZM49.7554 44H48.5366V34.7578H49.7554V44ZM59.0928 44H57.8677L53.2148 36.8779V44H51.9897V34.7578H53.2148L57.8804 41.9116V34.7578H59.0928V44Z" fill="black"/>
<rect x="0.5" y="49.5" width="82" height="22" fill="#6FCF97" stroke="black"/>
<rect x="81.5" y="49.5" width="171" height="22" fill="#F2F2F2" stroke="black"/>
<path d="M91.1011 57.1318V64.7935C91.1011 66.1138 90.5023 66.7739 89.3047 66.7739C89.0465 66.7739 88.8075 66.7358 88.5874 66.6597V65.7202C88.7228 65.7541 88.9006 65.771 89.1206 65.771C89.383 65.771 89.5819 65.6991 89.7173 65.5552C89.8569 65.4155 89.9268 65.1701 89.9268 64.8188V57.1318H91.1011ZM89.8062 55.3101C89.8062 55.1239 89.8633 54.9652 89.9775 54.834C90.096 54.6986 90.2674 54.6309 90.4917 54.6309C90.7202 54.6309 90.8937 54.6965 91.0122 54.8276C91.1307 54.9588 91.1899 55.1196 91.1899 55.3101C91.1899 55.5005 91.1307 55.6592 91.0122 55.7861C90.8937 55.9131 90.7202 55.9766 90.4917 55.9766C90.2632 55.9766 90.0918 55.9131 89.9775 55.7861C89.8633 55.6592 89.8062 55.5005 89.8062 55.3101ZM92.688 60.5024C92.688 59.8296 92.8192 59.2244 93.0815 58.687C93.3481 58.1496 93.7163 57.7349 94.186 57.4429C94.66 57.1509 95.1995 57.0049 95.8047 57.0049C96.7399 57.0049 97.4953 57.3286 98.0708 57.9761C98.6506 58.6235 98.9404 59.4847 98.9404 60.5596V60.6421C98.9404 61.3107 98.8114 61.9116 98.5532 62.4448C98.2993 62.9738 97.9333 63.3864 97.4551 63.6826C96.9811 63.9788 96.4352 64.127 95.8174 64.127C94.8864 64.127 94.131 63.8032 93.5513 63.1558C92.9757 62.5083 92.688 61.6514 92.688 60.585V60.5024ZM93.8687 60.6421C93.8687 61.4038 94.0443 62.0153 94.3955 62.4766C94.751 62.9378 95.2249 63.1685 95.8174 63.1685C96.4141 63.1685 96.888 62.9357 97.2393 62.4702C97.5905 62.0005 97.7661 61.3446 97.7661 60.5024C97.7661 59.7492 97.5863 59.1398 97.2266 58.6743C96.8711 58.2046 96.3971 57.9697 95.8047 57.9697C95.2249 57.9697 94.7573 58.2004 94.4019 58.6616C94.0464 59.1229 93.8687 59.783 93.8687 60.6421ZM101.587 57.9634C102.108 57.3244 102.785 57.0049 103.619 57.0049C105.07 57.0049 105.802 57.8237 105.815 59.4614V64H104.641V59.4551C104.636 58.96 104.522 58.5939 104.298 58.3569C104.078 58.12 103.733 58.0015 103.263 58.0015C102.882 58.0015 102.548 58.103 102.26 58.3062C101.972 58.5093 101.748 58.7759 101.587 59.106V64H100.413V54.25H101.587V57.9634ZM108.684 57.1318L108.722 57.9951C109.247 57.335 109.932 57.0049 110.779 57.0049C112.23 57.0049 112.962 57.8237 112.975 59.4614V64H111.801V59.4551C111.797 58.96 111.682 58.5939 111.458 58.3569C111.238 58.12 110.893 58.0015 110.423 58.0015C110.042 58.0015 109.708 58.103 109.42 58.3062C109.133 58.5093 108.908 58.7759 108.748 59.106V64H107.573V57.1318H108.684ZM114.46 60.5088C114.46 59.4551 114.71 58.6087 115.209 57.9697C115.709 57.3265 116.363 57.0049 117.171 57.0049C117.975 57.0049 118.612 57.2799 119.082 57.8301V54.25H120.256V64H119.177L119.12 63.2637C118.65 63.8392 117.996 64.127 117.158 64.127C116.363 64.127 115.713 63.8011 115.209 63.1494C114.71 62.4977 114.46 61.6471 114.46 60.5977V60.5088ZM115.635 60.6421C115.635 61.4207 115.796 62.0301 116.117 62.4702C116.439 62.9103 116.883 63.1304 117.45 63.1304C118.195 63.1304 118.739 62.7961 119.082 62.1274V58.9727C118.73 58.3252 118.191 58.0015 117.463 58.0015C116.887 58.0015 116.439 58.2236 116.117 58.668C115.796 59.1123 115.635 59.7703 115.635 60.6421ZM121.773 60.5024C121.773 59.8296 121.904 59.2244 122.167 58.687C122.433 58.1496 122.801 57.7349 123.271 57.4429C123.745 57.1509 124.285 57.0049 124.89 57.0049C125.825 57.0049 126.58 57.3286 127.156 57.9761C127.736 58.6235 128.025 59.4847 128.025 60.5596V60.6421C128.025 61.3107 127.896 61.9116 127.638 62.4448C127.384 62.9738 127.018 63.3864 126.54 63.6826C126.066 63.9788 125.52 64.127 124.902 64.127C123.971 64.127 123.216 63.8032 122.636 63.1558C122.061 62.5083 121.773 61.6514 121.773 60.585V60.5024ZM122.954 60.6421C122.954 61.4038 123.129 62.0153 123.48 62.4766C123.836 62.9378 124.31 63.1685 124.902 63.1685C125.499 63.1685 125.973 62.9357 126.324 62.4702C126.675 62.0005 126.851 61.3446 126.851 60.5024C126.851 59.7492 126.671 59.1398 126.312 58.6743C125.956 58.2046 125.482 57.9697 124.89 57.9697C124.31 57.9697 123.842 58.2004 123.487 58.6616C123.131 59.1229 122.954 59.783 122.954 60.6421ZM132.348 64.127C131.417 64.127 130.66 63.8223 130.076 63.2129C129.492 62.5993 129.2 61.7804 129.2 60.7563V60.5405C129.2 59.8592 129.329 59.252 129.587 58.7188C129.849 58.1813 130.213 57.7624 130.679 57.4619C131.148 57.1572 131.656 57.0049 132.202 57.0049C133.095 57.0049 133.789 57.299 134.284 57.8872C134.779 58.4754 135.027 59.3175 135.027 60.4136V60.9023H130.374C130.391 61.5794 130.588 62.1274 130.964 62.5464C131.345 62.9611 131.828 63.1685 132.412 63.1685C132.826 63.1685 133.178 63.0838 133.465 62.9146C133.753 62.7453 134.005 62.521 134.221 62.2417L134.938 62.8003C134.362 63.6847 133.499 64.127 132.348 64.127ZM132.202 57.9697C131.728 57.9697 131.33 58.1432 131.009 58.4902C130.687 58.833 130.488 59.3154 130.412 59.9375H133.853V59.8486C133.819 59.252 133.658 58.7907 133.37 58.4648C133.082 58.1348 132.693 57.9697 132.202 57.9697ZM146.535 60.8135C146.484 61.8376 146.23 62.6458 145.773 63.2383C145.316 63.8307 144.705 64.127 143.939 64.127C143.148 64.127 142.64 63.7715 142.416 63.0605C142.187 63.4202 141.925 63.689 141.628 63.8667C141.336 64.0402 141.034 64.127 140.721 64.127C140.12 64.127 139.665 63.8815 139.356 63.3906C139.047 62.8997 138.933 62.2205 139.013 61.353C139.077 60.6548 139.235 60.0327 139.489 59.4868C139.747 58.9367 140.077 58.505 140.479 58.1919C140.886 57.8787 141.311 57.7222 141.755 57.7222C142.098 57.7222 142.405 57.7687 142.676 57.8618C142.947 57.9507 143.251 58.1284 143.59 58.395L143.26 61.9116C143.179 62.8892 143.45 63.3779 144.072 63.3779C144.55 63.3779 144.938 63.141 145.234 62.667C145.53 62.193 145.691 61.5752 145.716 60.8135C145.797 59.1673 145.49 57.9126 144.796 57.0493C144.106 56.186 143.055 55.7544 141.641 55.7544C140.791 55.7544 140.035 55.966 139.375 56.3892C138.715 56.8081 138.194 57.4154 137.813 58.2109C137.433 59.0065 137.219 59.9248 137.172 60.9658C137.122 62.0153 137.249 62.9272 137.553 63.7017C137.858 64.4718 138.321 65.0601 138.943 65.4663C139.57 65.8768 140.325 66.082 141.209 66.082C141.59 66.082 141.971 66.0355 142.352 65.9424C142.737 65.8493 143.057 65.7287 143.311 65.5806L143.545 66.3105C143.283 66.4756 142.934 66.611 142.498 66.7168C142.066 66.8226 141.628 66.8755 141.184 66.8755C140.126 66.8755 139.216 66.6364 138.455 66.1582C137.693 65.6842 137.122 64.9987 136.741 64.1016C136.364 63.2087 136.201 62.1634 136.252 60.9658C136.303 59.8021 136.563 58.7568 137.033 57.8301C137.502 56.8991 138.139 56.1818 138.943 55.6782C139.747 55.1704 140.655 54.9165 141.667 54.9165C142.72 54.9165 143.624 55.1535 144.377 55.6274C145.13 56.1014 145.691 56.7848 146.059 57.6777C146.427 58.5706 146.586 59.6159 146.535 60.8135ZM140.022 61.353C139.963 61.9539 140.018 62.4152 140.188 62.7368C140.361 63.0584 140.634 63.2192 141.006 63.2192C141.26 63.2192 141.504 63.1113 141.736 62.8955C141.973 62.6797 142.168 62.3708 142.32 61.9688L142.327 61.9116L142.619 58.7188C142.382 58.596 142.128 58.5347 141.857 58.5347C141.362 58.5347 140.951 58.7865 140.625 59.29C140.304 59.7936 140.103 60.4813 140.022 61.353ZM149.284 57.1318V64.7935C149.284 66.1138 148.685 66.7739 147.487 66.7739C147.229 66.7739 146.99 66.7358 146.77 66.6597V65.7202C146.905 65.7541 147.083 65.771 147.303 65.771C147.566 65.771 147.764 65.6991 147.9 65.5552C148.04 65.4155 148.109 65.1701 148.109 64.8188V57.1318H149.284ZM147.989 55.3101C147.989 55.1239 148.046 54.9652 148.16 54.834C148.279 54.6986 148.45 54.6309 148.674 54.6309C148.903 54.6309 149.076 54.6965 149.195 54.8276C149.313 54.9588 149.373 55.1196 149.373 55.3101C149.373 55.5005 149.313 55.6592 149.195 55.7861C149.076 55.9131 148.903 55.9766 148.674 55.9766C148.446 55.9766 148.274 55.9131 148.16 55.7861C148.046 55.6592 147.989 55.5005 147.989 55.3101ZM150.871 60.5024C150.871 59.8296 151.002 59.2244 151.264 58.687C151.531 58.1496 151.899 57.7349 152.369 57.4429C152.843 57.1509 153.382 57.0049 153.987 57.0049C154.923 57.0049 155.678 57.3286 156.253 57.9761C156.833 58.6235 157.123 59.4847 157.123 60.5596V60.6421C157.123 61.3107 156.994 61.9116 156.736 62.4448C156.482 62.9738 156.116 63.3864 155.638 63.6826C155.164 63.9788 154.618 64.127 154 64.127C153.069 64.127 152.314 63.8032 151.734 63.1558C151.158 62.5083 150.871 61.6514 150.871 60.585V60.5024ZM152.051 60.6421C152.051 61.4038 152.227 62.0153 152.578 62.4766C152.934 62.9378 153.408 63.1685 154 63.1685C154.597 63.1685 155.071 62.9357 155.422 62.4702C155.773 62.0005 155.949 61.3446 155.949 60.5024C155.949 59.7492 155.769 59.1398 155.409 58.6743C155.054 58.2046 154.58 57.9697 153.987 57.9697C153.408 57.9697 152.94 58.2004 152.584 58.6616C152.229 59.1229 152.051 59.783 152.051 60.6421ZM159.77 57.9634C160.291 57.3244 160.968 57.0049 161.801 57.0049C163.253 57.0049 163.985 57.8237 163.998 59.4614V64H162.823V59.4551C162.819 58.96 162.705 58.5939 162.48 58.3569C162.26 58.12 161.916 58.0015 161.446 58.0015C161.065 58.0015 160.731 58.103 160.443 58.3062C160.155 58.5093 159.931 58.7759 159.77 59.106V64H158.596V54.25H159.77V57.9634ZM166.867 57.1318L166.905 57.9951C167.43 57.335 168.115 57.0049 168.961 57.0049C170.413 57.0049 171.145 57.8237 171.158 59.4614V64H169.983V59.4551C169.979 58.96 169.865 58.5939 169.641 58.3569C169.421 58.12 169.076 58.0015 168.606 58.0015C168.225 58.0015 167.891 58.103 167.603 58.3062C167.315 58.5093 167.091 58.7759 166.93 59.106V64H165.756V57.1318H166.867ZM172.643 60.5088C172.643 59.4551 172.893 58.6087 173.392 57.9697C173.891 57.3265 174.545 57.0049 175.354 57.0049C176.158 57.0049 176.794 57.2799 177.264 57.8301V54.25H178.438V64H177.359L177.302 63.2637C176.833 63.8392 176.179 64.127 175.341 64.127C174.545 64.127 173.896 63.8011 173.392 63.1494C172.893 62.4977 172.643 61.6471 172.643 60.5977V60.5088ZM173.817 60.6421C173.817 61.4207 173.978 62.0301 174.3 62.4702C174.621 62.9103 175.066 63.1304 175.633 63.1304C176.378 63.1304 176.921 62.7961 177.264 62.1274V58.9727C176.913 58.3252 176.373 58.0015 175.646 58.0015C175.07 58.0015 174.621 58.2236 174.3 58.668C173.978 59.1123 173.817 59.7703 173.817 60.6421ZM179.956 60.5024C179.956 59.8296 180.087 59.2244 180.349 58.687C180.616 58.1496 180.984 57.7349 181.454 57.4429C181.928 57.1509 182.467 57.0049 183.072 57.0049C184.007 57.0049 184.763 57.3286 185.338 57.9761C185.918 58.6235 186.208 59.4847 186.208 60.5596V60.6421C186.208 61.3107 186.079 61.9116 185.821 62.4448C185.567 62.9738 185.201 63.3864 184.723 63.6826C184.249 63.9788 183.703 64.127 183.085 64.127C182.154 64.127 181.399 63.8032 180.819 63.1558C180.243 62.5083 179.956 61.6514 179.956 60.585V60.5024ZM181.136 60.6421C181.136 61.4038 181.312 62.0153 181.663 62.4766C182.019 62.9378 182.493 63.1685 183.085 63.1685C183.682 63.1685 184.156 62.9357 184.507 62.4702C184.858 62.0005 185.034 61.3446 185.034 60.5024C185.034 59.7492 184.854 59.1398 184.494 58.6743C184.139 58.2046 183.665 57.9697 183.072 57.9697C182.493 57.9697 182.025 58.2004 181.669 58.6616C181.314 59.1229 181.136 59.783 181.136 60.6421ZM190.531 64.127C189.6 64.127 188.842 63.8223 188.258 63.2129C187.674 62.5993 187.382 61.7804 187.382 60.7563V60.5405C187.382 59.8592 187.511 59.252 187.77 58.7188C188.032 58.1813 188.396 57.7624 188.861 57.4619C189.331 57.1572 189.839 57.0049 190.385 57.0049C191.278 57.0049 191.972 57.299 192.467 57.8872C192.962 58.4754 193.209 59.3175 193.209 60.4136V60.9023H188.557C188.574 61.5794 188.77 62.1274 189.147 62.5464C189.528 62.9611 190.01 63.1685 190.594 63.1685C191.009 63.1685 191.36 63.0838 191.648 62.9146C191.936 62.7453 192.188 62.521 192.403 62.2417L193.121 62.8003C192.545 63.6847 191.682 64.127 190.531 64.127ZM190.385 57.9697C189.911 57.9697 189.513 58.1432 189.191 58.4902C188.87 58.833 188.671 59.3154 188.595 59.9375H192.035V59.8486C192.001 59.252 191.84 58.7907 191.553 58.4648C191.265 58.1348 190.876 57.9697 190.385 57.9697ZM195.679 57.1318L195.71 57.8936C196.214 57.3011 196.893 57.0049 197.748 57.0049C198.709 57.0049 199.362 57.373 199.709 58.1094C199.938 57.7793 200.234 57.5127 200.598 57.3096C200.966 57.1064 201.4 57.0049 201.899 57.0049C203.406 57.0049 204.172 57.8026 204.197 59.3979V64H203.023V59.4678C203.023 58.9769 202.911 58.6108 202.687 58.3696C202.462 58.1242 202.086 58.0015 201.557 58.0015C201.121 58.0015 200.759 58.1326 200.471 58.395C200.183 58.6532 200.016 59.0023 199.97 59.4424V64H198.789V59.4995C198.789 58.5008 198.3 58.0015 197.323 58.0015C196.553 58.0015 196.026 58.3294 195.742 58.9854V64H194.568V57.1318H195.679ZM210.215 64C210.147 63.8646 210.092 63.6234 210.05 63.2764C209.504 63.8434 208.852 64.127 208.095 64.127C207.418 64.127 206.861 63.9365 206.425 63.5557C205.994 63.1706 205.778 62.6839 205.778 62.0957C205.778 61.3805 206.049 60.8262 206.59 60.4326C207.136 60.0348 207.902 59.8359 208.888 59.8359H210.031V59.2964C210.031 58.8859 209.908 58.5601 209.663 58.3188C209.417 58.0734 209.055 57.9507 208.577 57.9507C208.158 57.9507 207.807 58.0565 207.523 58.2681C207.24 58.4797 207.098 58.7357 207.098 59.0361H205.917C205.917 58.6934 206.038 58.3633 206.279 58.0459C206.525 57.7243 206.855 57.4704 207.27 57.2842C207.688 57.098 208.148 57.0049 208.647 57.0049C209.438 57.0049 210.058 57.2038 210.507 57.6016C210.955 57.9951 211.188 58.5389 211.205 59.2329V62.394C211.205 63.0246 211.285 63.526 211.446 63.8984V64H210.215ZM208.266 63.105C208.634 63.105 208.983 63.0098 209.313 62.8193C209.644 62.6289 209.883 62.3813 210.031 62.0767V60.6675H209.11C207.672 60.6675 206.952 61.0885 206.952 61.9307C206.952 62.2988 207.075 62.5866 207.32 62.7939C207.566 63.0013 207.881 63.105 208.266 63.105ZM214.322 64H213.147V57.1318H214.322V64ZM213.052 55.3101C213.052 55.1196 213.109 54.9588 213.224 54.8276C213.342 54.6965 213.516 54.6309 213.744 54.6309C213.973 54.6309 214.146 54.6965 214.265 54.8276C214.383 54.9588 214.442 55.1196 214.442 55.3101C214.442 55.5005 214.383 55.6592 214.265 55.7861C214.146 55.9131 213.973 55.9766 213.744 55.9766C213.516 55.9766 213.342 55.9131 213.224 55.7861C213.109 55.6592 213.052 55.5005 213.052 55.3101ZM217.483 64H216.309V54.25H217.483V64ZM219.394 63.3843C219.394 63.1812 219.453 63.0119 219.571 62.8765C219.694 62.741 219.876 62.6733 220.117 62.6733C220.358 62.6733 220.54 62.741 220.663 62.8765C220.79 63.0119 220.854 63.1812 220.854 63.3843C220.854 63.5789 220.79 63.7419 220.663 63.873C220.54 64.0042 220.358 64.0698 220.117 64.0698C219.876 64.0698 219.694 64.0042 219.571 63.873C219.453 63.7419 219.394 63.5789 219.394 63.3843ZM225.551 63.1685C225.97 63.1685 226.336 63.0415 226.649 62.7876C226.962 62.5337 227.136 62.2163 227.169 61.8354H228.28C228.259 62.229 228.124 62.6035 227.874 62.959C227.624 63.3145 227.29 63.598 226.871 63.8096C226.456 64.0212 226.016 64.127 225.551 64.127C224.616 64.127 223.871 63.8159 223.316 63.1938C222.766 62.5675 222.491 61.7127 222.491 60.6294V60.4326C222.491 59.764 222.614 59.1694 222.859 58.6489C223.105 58.1284 223.456 57.7243 223.913 57.4365C224.374 57.1488 224.918 57.0049 225.544 57.0049C226.315 57.0049 226.954 57.2355 227.461 57.6968C227.973 58.158 228.246 58.7568 228.28 59.4932H227.169C227.136 59.0488 226.966 58.6849 226.662 58.4014C226.361 58.1136 225.989 57.9697 225.544 57.9697C224.948 57.9697 224.484 58.1855 224.154 58.6172C223.828 59.0446 223.666 59.6646 223.666 60.4771V60.6992C223.666 61.4906 223.828 62.0999 224.154 62.5273C224.48 62.9548 224.946 63.1685 225.551 63.1685ZM229.29 60.5024C229.29 59.8296 229.421 59.2244 229.683 58.687C229.95 58.1496 230.318 57.7349 230.788 57.4429C231.262 57.1509 231.801 57.0049 232.406 57.0049C233.341 57.0049 234.097 57.3286 234.672 57.9761C235.252 58.6235 235.542 59.4847 235.542 60.5596V60.6421C235.542 61.3107 235.413 61.9116 235.155 62.4448C234.901 62.9738 234.535 63.3864 234.057 63.6826C233.583 63.9788 233.037 64.127 232.419 64.127C231.488 64.127 230.733 63.8032 230.153 63.1558C229.577 62.5083 229.29 61.6514 229.29 60.585V60.5024ZM230.47 60.6421C230.47 61.4038 230.646 62.0153 230.997 62.4766C231.353 62.9378 231.826 63.1685 232.419 63.1685C233.016 63.1685 233.49 62.9357 233.841 62.4702C234.192 62.0005 234.368 61.3446 234.368 60.5024C234.368 59.7492 234.188 59.1398 233.828 58.6743C233.473 58.2046 232.999 57.9697 232.406 57.9697C231.826 57.9697 231.359 58.2004 231.003 58.6616C230.648 59.1229 230.47 59.783 230.47 60.6421ZM238.119 57.1318L238.151 57.8936C238.654 57.3011 239.334 57.0049 240.188 57.0049C241.149 57.0049 241.803 57.373 242.15 58.1094C242.378 57.7793 242.675 57.5127 243.039 57.3096C243.407 57.1064 243.84 57.0049 244.34 57.0049C245.846 57.0049 246.612 57.8026 246.638 59.3979V64H245.463V59.4678C245.463 58.9769 245.351 58.6108 245.127 58.3696C244.903 58.1242 244.526 58.0015 243.997 58.0015C243.561 58.0015 243.199 58.1326 242.912 58.395C242.624 58.6532 242.457 59.0023 242.41 59.4424V64H241.229V59.4995C241.229 58.5008 240.741 58.0015 239.763 58.0015C238.993 58.0015 238.466 58.3294 238.183 58.9854V64H237.008V57.1318H238.119Z" fill="black"/>
<path d="M89 65.2695H247.52V65.9043H89V65.2695Z" fill="black"/>
<a href="mailto:johndoe@johndoemail.com">
<rect fill="black" fill-opacity="0" y="-0.117188" width="158.52" height="15.2344"/>
</a>
<path d="M20.1011 58.1318V65.7935C20.1011 67.1138 19.5023 67.7739 18.3047 67.7739C18.0465 67.7739 17.8075 67.7358 17.5874 67.6597V66.7202C17.7228 66.7541 17.9006 66.771 18.1206 66.771C18.383 66.771 18.5819 66.6991 18.7173 66.5552C18.8569 66.4155 18.9268 66.1701 18.9268 65.8188V58.1318H20.1011ZM18.8062 56.3101C18.8062 56.1239 18.8633 55.9652 18.9775 55.834C19.096 55.6986 19.2674 55.6309 19.4917 55.6309C19.7202 55.6309 19.8937 55.6965 20.0122 55.8276C20.1307 55.9588 20.1899 56.1196 20.1899 56.3101C20.1899 56.5005 20.1307 56.6592 20.0122 56.7861C19.8937 56.9131 19.7202 56.9766 19.4917 56.9766C19.2632 56.9766 19.0918 56.9131 18.9775 56.7861C18.8633 56.6592 18.8062 56.5005 18.8062 56.3101ZM21.688 61.5024C21.688 60.8296 21.8192 60.2244 22.0815 59.687C22.3481 59.1496 22.7163 58.7349 23.186 58.4429C23.66 58.1509 24.1995 58.0049 24.8047 58.0049C25.7399 58.0049 26.4953 58.3286 27.0708 58.9761C27.6506 59.6235 27.9404 60.4847 27.9404 61.5596V61.6421C27.9404 62.3107 27.8114 62.9116 27.5532 63.4448C27.2993 63.9738 26.9333 64.3864 26.4551 64.6826C25.9811 64.9788 25.4352 65.127 24.8174 65.127C23.8864 65.127 23.131 64.8032 22.5513 64.1558C21.9757 63.5083 21.688 62.6514 21.688 61.585V61.5024ZM22.8687 61.6421C22.8687 62.4038 23.0443 63.0153 23.3955 63.4766C23.751 63.9378 24.2249 64.1685 24.8174 64.1685C25.4141 64.1685 25.888 63.9357 26.2393 63.4702C26.5905 63.0005 26.7661 62.3446 26.7661 61.5024C26.7661 60.7492 26.5863 60.1398 26.2266 59.6743C25.8711 59.2046 25.3971 58.9697 24.8047 58.9697C24.2249 58.9697 23.7573 59.2004 23.4019 59.6616C23.0464 60.1229 22.8687 60.783 22.8687 61.6421ZM30.5874 58.9634C31.1079 58.3244 31.785 58.0049 32.6187 58.0049C34.0701 58.0049 34.8022 58.8237 34.8149 60.4614V65H33.6406V60.4551C33.6364 59.96 33.5221 59.5939 33.2979 59.3569C33.0778 59.12 32.7329 59.0015 32.2632 59.0015C31.8823 59.0015 31.548 59.103 31.2603 59.3062C30.9725 59.5093 30.7482 59.7759 30.5874 60.106V65H29.4131V55.25H30.5874V58.9634ZM37.6841 58.1318L37.7222 58.9951C38.2469 58.335 38.9325 58.0049 39.7788 58.0049C41.2303 58.0049 41.9624 58.8237 41.9751 60.4614V65H40.8008V60.4551C40.7965 59.96 40.6823 59.5939 40.458 59.3569C40.238 59.12 39.8931 59.0015 39.4233 59.0015C39.0425 59.0015 38.7082 59.103 38.4204 59.3062C38.1326 59.5093 37.9084 59.7759 37.7476 60.106V65H36.5732V58.1318H37.6841ZM43.4604 61.5088C43.4604 60.4551 43.7101 59.6087 44.2095 58.9697C44.7088 58.3265 45.3626 58.0049 46.1709 58.0049C46.9749 58.0049 47.6118 58.2799 48.0815 58.8301V55.25H49.2559V65H48.1768L48.1196 64.2637C47.6499 64.8392 46.9961 65.127 46.1582 65.127C45.3626 65.127 44.7131 64.8011 44.2095 64.1494C43.7101 63.4977 43.4604 62.6471 43.4604 61.5977V61.5088ZM44.6348 61.6421C44.6348 62.4207 44.7956 63.0301 45.1172 63.4702C45.4388 63.9103 45.8831 64.1304 46.4502 64.1304C47.195 64.1304 47.7388 63.7961 48.0815 63.1274V59.9727C47.7303 59.3252 47.1908 59.0015 46.4629 59.0015C45.8874 59.0015 45.4388 59.2236 45.1172 59.668C44.7956 60.1123 44.6348 60.7703 44.6348 61.6421ZM50.7729 61.5024C50.7729 60.8296 50.9041 60.2244 51.1665 59.687C51.4331 59.1496 51.8013 58.7349 52.271 58.4429C52.745 58.1509 53.2845 58.0049 53.8896 58.0049C54.8249 58.0049 55.5802 58.3286 56.1558 58.9761C56.7355 59.6235 57.0254 60.4847 57.0254 61.5596V61.6421C57.0254 62.3107 56.8963 62.9116 56.6382 63.4448C56.3843 63.9738 56.0182 64.3864 55.54 64.6826C55.0661 64.9788 54.5202 65.127 53.9023 65.127C52.9714 65.127 52.216 64.8032 51.6362 64.1558C51.0607 63.5083 50.7729 62.6514 50.7729 61.585V61.5024ZM51.9536 61.6421C51.9536 62.4038 52.1292 63.0153 52.4805 63.4766C52.8359 63.9378 53.3099 64.1685 53.9023 64.1685C54.499 64.1685 54.973 63.9357 55.3242 63.4702C55.6755 63.0005 55.8511 62.3446 55.8511 61.5024C55.8511 60.7492 55.6712 60.1398 55.3115 59.6743C54.9561 59.2046 54.4821 58.9697 53.8896 58.9697C53.3099 58.9697 52.8423 59.2004 52.4868 59.6616C52.1313 60.1229 51.9536 60.783 51.9536 61.6421ZM61.3481 65.127C60.4172 65.127 59.6597 64.8223 59.0757 64.2129C58.4917 63.5993 58.1997 62.7804 58.1997 61.7563V61.5405C58.1997 60.8592 58.3288 60.252 58.5869 59.7188C58.8493 59.1813 59.2132 58.7624 59.6787 58.4619C60.1484 58.1572 60.6562 58.0049 61.2021 58.0049C62.0951 58.0049 62.7891 58.299 63.2842 58.8872C63.7793 59.4754 64.0269 60.3175 64.0269 61.4136V61.9023H59.374C59.391 62.5794 59.5877 63.1274 59.9644 63.5464C60.3452 63.9611 60.8276 64.1685 61.4116 64.1685C61.8263 64.1685 62.1776 64.0838 62.4653 63.9146C62.7531 63.7453 63.0049 63.521 63.2207 63.2417L63.938 63.8003C63.3625 64.6847 62.4992 65.127 61.3481 65.127ZM61.2021 58.9697C60.7282 58.9697 60.3304 59.1432 60.0088 59.4902C59.6872 59.833 59.4883 60.3154 59.4121 60.9375H62.8525V60.8486C62.8187 60.252 62.6579 59.7907 62.3701 59.4648C62.0824 59.1348 61.693 58.9697 61.2021 58.9697Z" fill="black"/>
<rect x="0.5" y="71.5" width="82" height="22" fill="#6FCF97" stroke="black"/>
<rect x="81.5" y="71.5" width="171" height="22" fill="#F2F2F2" stroke="black"/>
<path d="M90.1011 79.1318V86.7935C90.1011 88.1138 89.5023 88.7739 88.3047 88.7739C88.0465 88.7739 87.8075 88.7358 87.5874 88.6597V87.7202C87.7228 87.7541 87.9006 87.771 88.1206 87.771C88.383 87.771 88.5819 87.6991 88.7173 87.5552C88.8569 87.4155 88.9268 87.1701 88.9268 86.8188V79.1318H90.1011ZM88.8062 77.3101C88.8062 77.1239 88.8633 76.9652 88.9775 76.834C89.096 76.6986 89.2674 76.6309 89.4917 76.6309C89.7202 76.6309 89.8937 76.6965 90.0122 76.8276C90.1307 76.9588 90.1899 77.1196 90.1899 77.3101C90.1899 77.5005 90.1307 77.6592 90.0122 77.7861C89.8937 77.9131 89.7202 77.9766 89.4917 77.9766C89.2632 77.9766 89.0918 77.9131 88.9775 77.7861C88.8633 77.6592 88.8062 77.5005 88.8062 77.3101ZM91.688 82.5024C91.688 81.8296 91.8192 81.2244 92.0815 80.687C92.3481 80.1496 92.7163 79.7349 93.186 79.4429C93.66 79.1509 94.1995 79.0049 94.8047 79.0049C95.7399 79.0049 96.4953 79.3286 97.0708 79.9761C97.6506 80.6235 97.9404 81.4847 97.9404 82.5596V82.6421C97.9404 83.3107 97.8114 83.9116 97.5532 84.4448C97.2993 84.9738 96.9333 85.3864 96.4551 85.6826C95.9811 85.9788 95.4352 86.127 94.8174 86.127C93.8864 86.127 93.131 85.8032 92.5513 85.1558C91.9757 84.5083 91.688 83.6514 91.688 82.585V82.5024ZM92.8687 82.6421C92.8687 83.4038 93.0443 84.0153 93.3955 84.4766C93.751 84.9378 94.2249 85.1685 94.8174 85.1685C95.4141 85.1685 95.888 84.9357 96.2393 84.4702C96.5905 84.0005 96.7661 83.3446 96.7661 82.5024C96.7661 81.7492 96.5863 81.1398 96.2266 80.6743C95.8711 80.2046 95.3971 79.9697 94.8047 79.9697C94.2249 79.9697 93.7573 80.2004 93.4019 80.6616C93.0464 81.1229 92.8687 81.783 92.8687 82.6421ZM100.587 79.9634C101.108 79.3244 101.785 79.0049 102.619 79.0049C104.07 79.0049 104.802 79.8237 104.815 81.4614V86H103.641V81.4551C103.636 80.96 103.522 80.5939 103.298 80.3569C103.078 80.12 102.733 80.0015 102.263 80.0015C101.882 80.0015 101.548 80.103 101.26 80.3062C100.972 80.5093 100.748 80.7759 100.587 81.106V86H99.4131V76.25H100.587V79.9634ZM107.684 79.1318L107.722 79.9951C108.247 79.335 108.932 79.0049 109.779 79.0049C111.23 79.0049 111.962 79.8237 111.975 81.4614V86H110.801V81.4551C110.797 80.96 110.682 80.5939 110.458 80.3569C110.238 80.12 109.893 80.0015 109.423 80.0015C109.042 80.0015 108.708 80.103 108.42 80.3062C108.133 80.5093 107.908 80.7759 107.748 81.106V86H106.573V79.1318H107.684ZM113.46 82.5088C113.46 81.4551 113.71 80.6087 114.209 79.9697C114.709 79.3265 115.363 79.0049 116.171 79.0049C116.975 79.0049 117.612 79.2799 118.082 79.8301V76.25H119.256V86H118.177L118.12 85.2637C117.65 85.8392 116.996 86.127 116.158 86.127C115.363 86.127 114.713 85.8011 114.209 85.1494C113.71 84.4977 113.46 83.6471 113.46 82.5977V82.5088ZM114.635 82.6421C114.635 83.4207 114.796 84.0301 115.117 84.4702C115.439 84.9103 115.883 85.1304 116.45 85.1304C117.195 85.1304 117.739 84.7961 118.082 84.1274V80.9727C117.73 80.3252 117.191 80.0015 116.463 80.0015C115.887 80.0015 115.439 80.2236 115.117 80.668C114.796 81.1123 114.635 81.7703 114.635 82.6421ZM120.773 82.5024C120.773 81.8296 120.904 81.2244 121.167 80.687C121.433 80.1496 121.801 79.7349 122.271 79.4429C122.745 79.1509 123.285 79.0049 123.89 79.0049C124.825 79.0049 125.58 79.3286 126.156 79.9761C126.736 80.6235 127.025 81.4847 127.025 82.5596V82.6421C127.025 83.3107 126.896 83.9116 126.638 84.4448C126.384 84.9738 126.018 85.3864 125.54 85.6826C125.066 85.9788 124.52 86.127 123.902 86.127C122.971 86.127 122.216 85.8032 121.636 85.1558C121.061 84.5083 120.773 83.6514 120.773 82.585V82.5024ZM121.954 82.6421C121.954 83.4038 122.129 84.0153 122.48 84.4766C122.836 84.9378 123.31 85.1685 123.902 85.1685C124.499 85.1685 124.973 84.9357 125.324 84.4702C125.675 84.0005 125.851 83.3446 125.851 82.5024C125.851 81.7492 125.671 81.1398 125.312 80.6743C124.956 80.2046 124.482 79.9697 123.89 79.9697C123.31 79.9697 122.842 80.2004 122.487 80.6616C122.131 81.1229 121.954 81.783 121.954 82.6421ZM131.348 86.127C130.417 86.127 129.66 85.8223 129.076 85.2129C128.492 84.5993 128.2 83.7804 128.2 82.7563V82.5405C128.2 81.8592 128.329 81.252 128.587 80.7188C128.849 80.1813 129.213 79.7624 129.679 79.4619C130.148 79.1572 130.656 79.0049 131.202 79.0049C132.095 79.0049 132.789 79.299 133.284 79.8872C133.779 80.4754 134.027 81.3175 134.027 82.4136V82.9023H129.374C129.391 83.5794 129.588 84.1274 129.964 84.5464C130.345 84.9611 130.828 85.1685 131.412 85.1685C131.826 85.1685 132.178 85.0838 132.465 84.9146C132.753 84.7453 133.005 84.521 133.221 84.2417L133.938 84.8003C133.362 85.6847 132.499 86.127 131.348 86.127ZM131.202 79.9697C130.728 79.9697 130.33 80.1432 130.009 80.4902C129.687 80.833 129.488 81.3154 129.412 81.9375H132.853V81.8486C132.819 81.252 132.658 80.7907 132.37 80.4648C132.082 80.1348 131.693 79.9697 131.202 79.9697ZM145.535 82.8135C145.484 83.8376 145.23 84.6458 144.773 85.2383C144.316 85.8307 143.705 86.127 142.939 86.127C142.148 86.127 141.64 85.7715 141.416 85.0605C141.187 85.4202 140.925 85.689 140.628 85.8667C140.336 86.0402 140.034 86.127 139.721 86.127C139.12 86.127 138.665 85.8815 138.356 85.3906C138.047 84.8997 137.933 84.2205 138.013 83.353C138.077 82.6548 138.235 82.0327 138.489 81.4868C138.747 80.9367 139.077 80.505 139.479 80.1919C139.886 79.8787 140.311 79.7222 140.755 79.7222C141.098 79.7222 141.405 79.7687 141.676 79.8618C141.947 79.9507 142.251 80.1284 142.59 80.395L142.26 83.9116C142.179 84.8892 142.45 85.3779 143.072 85.3779C143.55 85.3779 143.938 85.141 144.234 84.667C144.53 84.193 144.691 83.5752 144.716 82.8135C144.797 81.1673 144.49 79.9126 143.796 79.0493C143.106 78.186 142.055 77.7544 140.641 77.7544C139.791 77.7544 139.035 77.966 138.375 78.3892C137.715 78.8081 137.194 79.4154 136.813 80.2109C136.433 81.0065 136.219 81.9248 136.172 82.9658C136.122 84.0153 136.249 84.9272 136.553 85.7017C136.858 86.4718 137.321 87.0601 137.943 87.4663C138.57 87.8768 139.325 88.082 140.209 88.082C140.59 88.082 140.971 88.0355 141.352 87.9424C141.737 87.8493 142.057 87.7287 142.311 87.5806L142.545 88.3105C142.283 88.4756 141.934 88.611 141.498 88.7168C141.066 88.8226 140.628 88.8755 140.184 88.8755C139.126 88.8755 138.216 88.6364 137.455 88.1582C136.693 87.6842 136.122 86.9987 135.741 86.1016C135.364 85.2087 135.201 84.1634 135.252 82.9658C135.303 81.8021 135.563 80.7568 136.033 79.8301C136.502 78.8991 137.139 78.1818 137.943 77.6782C138.747 77.1704 139.655 76.9165 140.667 76.9165C141.72 76.9165 142.624 77.1535 143.377 77.6274C144.13 78.1014 144.691 78.7848 145.059 79.6777C145.427 80.5706 145.586 81.6159 145.535 82.8135ZM139.022 83.353C138.963 83.9539 139.018 84.4152 139.188 84.7368C139.361 85.0584 139.634 85.2192 140.006 85.2192C140.26 85.2192 140.504 85.1113 140.736 84.8955C140.973 84.6797 141.168 84.3708 141.32 83.9688L141.327 83.9116L141.619 80.7188C141.382 80.596 141.128 80.5347 140.857 80.5347C140.362 80.5347 139.951 80.7865 139.625 81.29C139.304 81.7936 139.103 82.4813 139.022 83.353ZM148.284 79.1318V86.7935C148.284 88.1138 147.685 88.7739 146.487 88.7739C146.229 88.7739 145.99 88.7358 145.77 88.6597V87.7202C145.905 87.7541 146.083 87.771 146.303 87.771C146.566 87.771 146.764 87.6991 146.9 87.5552C147.04 87.4155 147.109 87.1701 147.109 86.8188V79.1318H148.284ZM146.989 77.3101C146.989 77.1239 147.046 76.9652 147.16 76.834C147.279 76.6986 147.45 76.6309 147.674 76.6309C147.903 76.6309 148.076 76.6965 148.195 76.8276C148.313 76.9588 148.373 77.1196 148.373 77.3101C148.373 77.5005 148.313 77.6592 148.195 77.7861C148.076 77.9131 147.903 77.9766 147.674 77.9766C147.446 77.9766 147.274 77.9131 147.16 77.7861C147.046 77.6592 146.989 77.5005 146.989 77.3101ZM149.871 82.5024C149.871 81.8296 150.002 81.2244 150.264 80.687C150.531 80.1496 150.899 79.7349 151.369 79.4429C151.843 79.1509 152.382 79.0049 152.987 79.0049C153.923 79.0049 154.678 79.3286 155.253 79.9761C155.833 80.6235 156.123 81.4847 156.123 82.5596V82.6421C156.123 83.3107 155.994 83.9116 155.736 84.4448C155.482 84.9738 155.116 85.3864 154.638 85.6826C154.164 85.9788 153.618 86.127 153 86.127C152.069 86.127 151.314 85.8032 150.734 85.1558C150.158 84.5083 149.871 83.6514 149.871 82.585V82.5024ZM151.051 82.6421C151.051 83.4038 151.227 84.0153 151.578 84.4766C151.934 84.9378 152.408 85.1685 153 85.1685C153.597 85.1685 154.071 84.9357 154.422 84.4702C154.773 84.0005 154.949 83.3446 154.949 82.5024C154.949 81.7492 154.769 81.1398 154.409 80.6743C154.054 80.2046 153.58 79.9697 152.987 79.9697C152.408 79.9697 151.94 80.2004 151.584 80.6616C151.229 81.1229 151.051 81.783 151.051 82.6421ZM158.77 79.9634C159.291 79.3244 159.968 79.0049 160.801 79.0049C162.253 79.0049 162.985 79.8237 162.998 81.4614V86H161.823V81.4551C161.819 80.96 161.705 80.5939 161.48 80.3569C161.26 80.12 160.916 80.0015 160.446 80.0015C160.065 80.0015 159.731 80.103 159.443 80.3062C159.155 80.5093 158.931 80.7759 158.77 81.106V86H157.596V76.25H158.77V79.9634ZM165.867 79.1318L165.905 79.9951C166.43 79.335 167.115 79.0049 167.961 79.0049C169.413 79.0049 170.145 79.8237 170.158 81.4614V86H168.983V81.4551C168.979 80.96 168.865 80.5939 168.641 80.3569C168.421 80.12 168.076 80.0015 167.606 80.0015C167.225 80.0015 166.891 80.103 166.603 80.3062C166.315 80.5093 166.091 80.7759 165.93 81.106V86H164.756V79.1318H165.867ZM171.643 82.5088C171.643 81.4551 171.893 80.6087 172.392 79.9697C172.891 79.3265 173.545 79.0049 174.354 79.0049C175.158 79.0049 175.794 79.2799 176.264 79.8301V76.25H177.438V86H176.359L176.302 85.2637C175.833 85.8392 175.179 86.127 174.341 86.127C173.545 86.127 172.896 85.8011 172.392 85.1494C171.893 84.4977 171.643 83.6471 171.643 82.5977V82.5088ZM172.817 82.6421C172.817 83.4207 172.978 84.0301 173.3 84.4702C173.621 84.9103 174.066 85.1304 174.633 85.1304C175.378 85.1304 175.921 84.7961 176.264 84.1274V80.9727C175.913 80.3252 175.373 80.0015 174.646 80.0015C174.07 80.0015 173.621 80.2236 173.3 80.668C172.978 81.1123 172.817 81.7703 172.817 82.6421ZM178.956 82.5024C178.956 81.8296 179.087 81.2244 179.349 80.687C179.616 80.1496 179.984 79.7349 180.454 79.4429C180.928 79.1509 181.467 79.0049 182.072 79.0049C183.007 79.0049 183.763 79.3286 184.338 79.9761C184.918 80.6235 185.208 81.4847 185.208 82.5596V82.6421C185.208 83.3107 185.079 83.9116 184.821 84.4448C184.567 84.9738 184.201 85.3864 183.723 85.6826C183.249 85.9788 182.703 86.127 182.085 86.127C181.154 86.127 180.399 85.8032 179.819 85.1558C179.243 84.5083 178.956 83.6514 178.956 82.585V82.5024ZM180.136 82.6421C180.136 83.4038 180.312 84.0153 180.663 84.4766C181.019 84.9378 181.493 85.1685 182.085 85.1685C182.682 85.1685 183.156 84.9357 183.507 84.4702C183.858 84.0005 184.034 83.3446 184.034 82.5024C184.034 81.7492 183.854 81.1398 183.494 80.6743C183.139 80.2046 182.665 79.9697 182.072 79.9697C181.493 79.9697 181.025 80.2004 180.669 80.6616C180.314 81.1229 180.136 81.783 180.136 82.6421ZM189.531 86.127C188.6 86.127 187.842 85.8223 187.258 85.2129C186.674 84.5993 186.382 83.7804 186.382 82.7563V82.5405C186.382 81.8592 186.511 81.252 186.77 80.7188C187.032 80.1813 187.396 79.7624 187.861 79.4619C188.331 79.1572 188.839 79.0049 189.385 79.0049C190.278 79.0049 190.972 79.299 191.467 79.8872C191.962 80.4754 192.209 81.3175 192.209 82.4136V82.9023H187.557C187.574 83.5794 187.77 84.1274 188.147 84.5464C188.528 84.9611 189.01 85.1685 189.594 85.1685C190.009 85.1685 190.36 85.0838 190.648 84.9146C190.936 84.7453 191.188 84.521 191.403 84.2417L192.121 84.8003C191.545 85.6847 190.682 86.127 189.531 86.127ZM189.385 79.9697C188.911 79.9697 188.513 80.1432 188.191 80.4902C187.87 80.833 187.671 81.3154 187.595 81.9375H191.035V81.8486C191.001 81.252 190.84 80.7907 190.553 80.4648C190.265 80.1348 189.876 79.9697 189.385 79.9697ZM194.679 79.1318L194.71 79.8936C195.214 79.3011 195.893 79.0049 196.748 79.0049C197.709 79.0049 198.362 79.373 198.709 80.1094C198.938 79.7793 199.234 79.5127 199.598 79.3096C199.966 79.1064 200.4 79.0049 200.899 79.0049C202.406 79.0049 203.172 79.8026 203.197 81.3979V86H202.023V81.4678C202.023 80.9769 201.911 80.6108 201.687 80.3696C201.462 80.1242 201.086 80.0015 200.557 80.0015C200.121 80.0015 199.759 80.1326 199.471 80.395C199.183 80.6532 199.016 81.0023 198.97 81.4424V86H197.789V81.4995C197.789 80.5008 197.3 80.0015 196.323 80.0015C195.553 80.0015 195.026 80.3294 194.742 80.9854V86H193.568V79.1318H194.679ZM209.215 86C209.147 85.8646 209.092 85.6234 209.05 85.2764C208.504 85.8434 207.852 86.127 207.095 86.127C206.418 86.127 205.861 85.9365 205.425 85.5557C204.994 85.1706 204.778 84.6839 204.778 84.0957C204.778 83.3805 205.049 82.8262 205.59 82.4326C206.136 82.0348 206.902 81.8359 207.888 81.8359H209.031V81.2964C209.031 80.8859 208.908 80.5601 208.663 80.3188C208.417 80.0734 208.055 79.9507 207.577 79.9507C207.158 79.9507 206.807 80.0565 206.523 80.2681C206.24 80.4797 206.098 80.7357 206.098 81.0361H204.917C204.917 80.6934 205.038 80.3633 205.279 80.0459C205.525 79.7243 205.855 79.4704 206.27 79.2842C206.688 79.098 207.148 79.0049 207.647 79.0049C208.438 79.0049 209.058 79.2038 209.507 79.6016C209.955 79.9951 210.188 80.5389 210.205 81.2329V84.394C210.205 85.0246 210.285 85.526 210.446 85.8984V86H209.215ZM207.266 85.105C207.634 85.105 207.983 85.0098 208.313 84.8193C208.644 84.6289 208.883 84.3813 209.031 84.0767V82.6675H208.11C206.672 82.6675 205.952 83.0885 205.952 83.9307C205.952 84.2988 206.075 84.5866 206.32 84.7939C206.566 85.0013 206.881 85.105 207.266 85.105ZM213.322 86H212.147V79.1318H213.322V86ZM212.052 77.3101C212.052 77.1196 212.109 76.9588 212.224 76.8276C212.342 76.6965 212.516 76.6309 212.744 76.6309C212.973 76.6309 213.146 76.6965 213.265 76.8276C213.383 76.9588 213.442 77.1196 213.442 77.3101C213.442 77.5005 213.383 77.6592 213.265 77.7861C213.146 77.9131 212.973 77.9766 212.744 77.9766C212.516 77.9766 212.342 77.9131 212.224 77.7861C212.109 77.6592 212.052 77.5005 212.052 77.3101ZM216.483 86H215.309V76.25H216.483V86ZM218.394 85.3843C218.394 85.1812 218.453 85.0119 218.571 84.8765C218.694 84.741 218.876 84.6733 219.117 84.6733C219.358 84.6733 219.54 84.741 219.663 84.8765C219.79 85.0119 219.854 85.1812 219.854 85.3843C219.854 85.5789 219.79 85.7419 219.663 85.873C219.54 86.0042 219.358 86.0698 219.117 86.0698C218.876 86.0698 218.694 86.0042 218.571 85.873C218.453 85.7419 218.394 85.5789 218.394 85.3843ZM224.551 85.1685C224.97 85.1685 225.336 85.0415 225.649 84.7876C225.962 84.5337 226.136 84.2163 226.169 83.8354H227.28C227.259 84.229 227.124 84.6035 226.874 84.959C226.624 85.3145 226.29 85.598 225.871 85.8096C225.456 86.0212 225.016 86.127 224.551 86.127C223.616 86.127 222.871 85.8159 222.316 85.1938C221.766 84.5675 221.491 83.7127 221.491 82.6294V82.4326C221.491 81.764 221.614 81.1694 221.859 80.6489C222.105 80.1284 222.456 79.7243 222.913 79.4365C223.374 79.1488 223.918 79.0049 224.544 79.0049C225.315 79.0049 225.954 79.2355 226.461 79.6968C226.973 80.158 227.246 80.7568 227.28 81.4932H226.169C226.136 81.0488 225.966 80.6849 225.662 80.4014C225.361 80.1136 224.989 79.9697 224.544 79.9697C223.948 79.9697 223.484 80.1855 223.154 80.6172C222.828 81.0446 222.666 81.6646 222.666 82.4771V82.6992C222.666 83.4906 222.828 84.0999 223.154 84.5273C223.48 84.9548 223.946 85.1685 224.551 85.1685ZM228.29 82.5024C228.29 81.8296 228.421 81.2244 228.683 80.687C228.95 80.1496 229.318 79.7349 229.788 79.4429C230.262 79.1509 230.801 79.0049 231.406 79.0049C232.341 79.0049 233.097 79.3286 233.672 79.9761C234.252 80.6235 234.542 81.4847 234.542 82.5596V82.6421C234.542 83.3107 234.413 83.9116 234.155 84.4448C233.901 84.9738 233.535 85.3864 233.057 85.6826C232.583 85.9788 232.037 86.127 231.419 86.127C230.488 86.127 229.733 85.8032 229.153 85.1558C228.577 84.5083 228.29 83.6514 228.29 82.585V82.5024ZM229.47 82.6421C229.47 83.4038 229.646 84.0153 229.997 84.4766C230.353 84.9378 230.826 85.1685 231.419 85.1685C232.016 85.1685 232.49 84.9357 232.841 84.4702C233.192 84.0005 233.368 83.3446 233.368 82.5024C233.368 81.7492 233.188 81.1398 232.828 80.6743C232.473 80.2046 231.999 79.9697 231.406 79.9697C230.826 79.9697 230.359 80.2004 230.003 80.6616C229.648 81.1229 229.47 81.783 229.47 82.6421ZM237.119 79.1318L237.151 79.8936C237.654 79.3011 238.334 79.0049 239.188 79.0049C240.149 79.0049 240.803 79.373 241.15 80.1094C241.378 79.7793 241.675 79.5127 242.039 79.3096C242.407 79.1064 242.84 79.0049 243.34 79.0049C244.846 79.0049 245.612 79.8026 245.638 81.3979V86H244.463V81.4678C244.463 80.9769 244.351 80.6108 244.127 80.3696C243.903 80.1242 243.526 80.0015 242.997 80.0015C242.561 80.0015 242.199 80.1326 241.912 80.395C241.624 80.6532 241.457 81.0023 241.41 81.4424V86H240.229V81.4995C240.229 80.5008 239.741 80.0015 238.763 80.0015C237.993 80.0015 237.466 80.3294 237.183 80.9854V86H236.008V79.1318H237.119Z" fill="black"/>
<path d="M88 87.2695H246.52V87.9043H88V87.2695Z" fill="black"/>
<a href="mailto:johndoe@johndoemail.com">
<rect fill="black" fill-opacity="0" y="-0.117188" width="158.52" height="15.2344"/>
</a>
<path d="M19.1011 80.1318V87.7935C19.1011 89.1138 18.5023 89.7739 17.3047 89.7739C17.0465 89.7739 16.8075 89.7358 16.5874 89.6597V88.7202C16.7228 88.7541 16.9006 88.771 17.1206 88.771C17.383 88.771 17.5819 88.6991 17.7173 88.5552C17.8569 88.4155 17.9268 88.1701 17.9268 87.8188V80.1318H19.1011ZM17.8062 78.3101C17.8062 78.1239 17.8633 77.9652 17.9775 77.834C18.096 77.6986 18.2674 77.6309 18.4917 77.6309C18.7202 77.6309 18.8937 77.6965 19.0122 77.8276C19.1307 77.9588 19.1899 78.1196 19.1899 78.3101C19.1899 78.5005 19.1307 78.6592 19.0122 78.7861C18.8937 78.9131 18.7202 78.9766 18.4917 78.9766C18.2632 78.9766 18.0918 78.9131 17.9775 78.7861C17.8633 78.6592 17.8062 78.5005 17.8062 78.3101ZM20.688 83.5024C20.688 82.8296 20.8192 82.2244 21.0815 81.687C21.3481 81.1496 21.7163 80.7349 22.186 80.4429C22.66 80.1509 23.1995 80.0049 23.8047 80.0049C24.7399 80.0049 25.4953 80.3286 26.0708 80.9761C26.6506 81.6235 26.9404 82.4847 26.9404 83.5596V83.6421C26.9404 84.3107 26.8114 84.9116 26.5532 85.4448C26.2993 85.9738 25.9333 86.3864 25.4551 86.6826C24.9811 86.9788 24.4352 87.127 23.8174 87.127C22.8864 87.127 22.131 86.8032 21.5513 86.1558C20.9757 85.5083 20.688 84.6514 20.688 83.585V83.5024ZM21.8687 83.6421C21.8687 84.4038 22.0443 85.0153 22.3955 85.4766C22.751 85.9378 23.2249 86.1685 23.8174 86.1685C24.4141 86.1685 24.888 85.9357 25.2393 85.4702C25.5905 85.0005 25.7661 84.3446 25.7661 83.5024C25.7661 82.7492 25.5863 82.1398 25.2266 81.6743C24.8711 81.2046 24.3971 80.9697 23.8047 80.9697C23.2249 80.9697 22.7573 81.2004 22.4019 81.6616C22.0464 82.1229 21.8687 82.783 21.8687 83.6421ZM29.5874 80.9634C30.1079 80.3244 30.785 80.0049 31.6187 80.0049C33.0701 80.0049 33.8022 80.8237 33.8149 82.4614V87H32.6406V82.4551C32.6364 81.96 32.5221 81.5939 32.2979 81.3569C32.0778 81.12 31.7329 81.0015 31.2632 81.0015C30.8823 81.0015 30.548 81.103 30.2603 81.3062C29.9725 81.5093 29.7482 81.7759 29.5874 82.106V87H28.4131V77.25H29.5874V80.9634ZM36.6841 80.1318L36.7222 80.9951C37.2469 80.335 37.9325 80.0049 38.7788 80.0049C40.2303 80.0049 40.9624 80.8237 40.9751 82.4614V87H39.8008V82.4551C39.7965 81.96 39.6823 81.5939 39.458 81.3569C39.238 81.12 38.8931 81.0015 38.4233 81.0015C38.0425 81.0015 37.7082 81.103 37.4204 81.3062C37.1326 81.5093 36.9084 81.7759 36.7476 82.106V87H35.5732V80.1318H36.6841ZM42.4604 83.5088C42.4604 82.4551 42.7101 81.6087 43.2095 80.9697C43.7088 80.3265 44.3626 80.0049 45.1709 80.0049C45.9749 80.0049 46.6118 80.2799 47.0815 80.8301V77.25H48.2559V87H47.1768L47.1196 86.2637C46.6499 86.8392 45.9961 87.127 45.1582 87.127C44.3626 87.127 43.7131 86.8011 43.2095 86.1494C42.7101 85.4977 42.4604 84.6471 42.4604 83.5977V83.5088ZM43.6348 83.6421C43.6348 84.4207 43.7956 85.0301 44.1172 85.4702C44.4388 85.9103 44.8831 86.1304 45.4502 86.1304C46.195 86.1304 46.7388 85.7961 47.0815 85.1274V81.9727C46.7303 81.3252 46.1908 81.0015 45.4629 81.0015C44.8874 81.0015 44.4388 81.2236 44.1172 81.668C43.7956 82.1123 43.6348 82.7703 43.6348 83.6421ZM49.7729 83.5024C49.7729 82.8296 49.9041 82.2244 50.1665 81.687C50.4331 81.1496 50.8013 80.7349 51.271 80.4429C51.745 80.1509 52.2845 80.0049 52.8896 80.0049C53.8249 80.0049 54.5802 80.3286 55.1558 80.9761C55.7355 81.6235 56.0254 82.4847 56.0254 83.5596V83.6421C56.0254 84.3107 55.8963 84.9116 55.6382 85.4448C55.3843 85.9738 55.0182 86.3864 54.54 86.6826C54.0661 86.9788 53.5202 87.127 52.9023 87.127C51.9714 87.127 51.216 86.8032 50.6362 86.1558C50.0607 85.5083 49.7729 84.6514 49.7729 83.585V83.5024ZM50.9536 83.6421C50.9536 84.4038 51.1292 85.0153 51.4805 85.4766C51.8359 85.9378 52.3099 86.1685 52.9023 86.1685C53.499 86.1685 53.973 85.9357 54.3242 85.4702C54.6755 85.0005 54.8511 84.3446 54.8511 83.5024C54.8511 82.7492 54.6712 82.1398 54.3115 81.6743C53.9561 81.2046 53.4821 80.9697 52.8896 80.9697C52.3099 80.9697 51.8423 81.2004 51.4868 81.6616C51.1313 82.1229 50.9536 82.783 50.9536 83.6421ZM60.3481 87.127C59.4172 87.127 58.6597 86.8223 58.0757 86.2129C57.4917 85.5993 57.1997 84.7804 57.1997 83.7563V83.5405C57.1997 82.8592 57.3288 82.252 57.5869 81.7188C57.8493 81.1813 58.2132 80.7624 58.6787 80.4619C59.1484 80.1572 59.6562 80.0049 60.2021 80.0049C61.0951 80.0049 61.7891 80.299 62.2842 80.8872C62.7793 81.4754 63.0269 82.3175 63.0269 83.4136V83.9023H58.374C58.391 84.5794 58.5877 85.1274 58.9644 85.5464C59.3452 85.9611 59.8276 86.1685 60.4116 86.1685C60.8263 86.1685 61.1776 86.0838 61.4653 85.9146C61.7531 85.7453 62.0049 85.521 62.2207 85.2417L62.938 85.8003C62.3625 86.6847 61.4992 87.127 60.3481 87.127ZM60.2021 80.9697C59.7282 80.9697 59.3304 81.1432 59.0088 81.4902C58.6872 81.833 58.4883 82.3154 58.4121 82.9375H61.8525V82.8486C61.8187 82.252 61.6579 81.7907 61.3701 81.4648C61.0824 81.1348 60.693 80.9697 60.2021 80.9697Z" fill="black"/>
<rect x="0.5" y="92.5" width="82" height="22" fill="#6FCF97" stroke="black"/>
<rect x="81.5" y="92.5" width="171" height="22" fill="#F2F2F2" stroke="black"/>
<path d="M90.1011 101.132V108.793C90.1011 110.114 89.5023 110.774 88.3047 110.774C88.0465 110.774 87.8075 110.736 87.5874 110.66V109.72C87.7228 109.754 87.9006 109.771 88.1206 109.771C88.383 109.771 88.5819 109.699 88.7173 109.555C88.8569 109.416 88.9268 109.17 88.9268 108.819V101.132H90.1011ZM88.8062 99.3101C88.8062 99.1239 88.8633 98.9652 88.9775 98.834C89.096 98.6986 89.2674 98.6309 89.4917 98.6309C89.7202 98.6309 89.8937 98.6965 90.0122 98.8276C90.1307 98.9588 90.1899 99.1196 90.1899 99.3101C90.1899 99.5005 90.1307 99.6592 90.0122 99.7861C89.8937 99.9131 89.7202 99.9766 89.4917 99.9766C89.2632 99.9766 89.0918 99.9131 88.9775 99.7861C88.8633 99.6592 88.8062 99.5005 88.8062 99.3101ZM91.688 104.502C91.688 103.83 91.8192 103.224 92.0815 102.687C92.3481 102.15 92.7163 101.735 93.186 101.443C93.66 101.151 94.1995 101.005 94.8047 101.005C95.7399 101.005 96.4953 101.329 97.0708 101.976C97.6506 102.624 97.9404 103.485 97.9404 104.56V104.642C97.9404 105.311 97.8114 105.912 97.5532 106.445C97.2993 106.974 96.9333 107.386 96.4551 107.683C95.9811 107.979 95.4352 108.127 94.8174 108.127C93.8864 108.127 93.131 107.803 92.5513 107.156C91.9757 106.508 91.688 105.651 91.688 104.585V104.502ZM92.8687 104.642C92.8687 105.404 93.0443 106.015 93.3955 106.477C93.751 106.938 94.2249 107.168 94.8174 107.168C95.4141 107.168 95.888 106.936 96.2393 106.47C96.5905 106 96.7661 105.345 96.7661 104.502C96.7661 103.749 96.5863 103.14 96.2266 102.674C95.8711 102.205 95.3971 101.97 94.8047 101.97C94.2249 101.97 93.7573 102.2 93.4019 102.662C93.0464 103.123 92.8687 103.783 92.8687 104.642ZM100.587 101.963C101.108 101.324 101.785 101.005 102.619 101.005C104.07 101.005 104.802 101.824 104.815 103.461V108H103.641V103.455C103.636 102.96 103.522 102.594 103.298 102.357C103.078 102.12 102.733 102.001 102.263 102.001C101.882 102.001 101.548 102.103 101.26 102.306C100.972 102.509 100.748 102.776 100.587 103.106V108H99.4131V98.25H100.587V101.963ZM107.684 101.132L107.722 101.995C108.247 101.335 108.932 101.005 109.779 101.005C111.23 101.005 111.962 101.824 111.975 103.461V108H110.801V103.455C110.797 102.96 110.682 102.594 110.458 102.357C110.238 102.12 109.893 102.001 109.423 102.001C109.042 102.001 108.708 102.103 108.42 102.306C108.133 102.509 107.908 102.776 107.748 103.106V108H106.573V101.132H107.684ZM113.46 104.509C113.46 103.455 113.71 102.609 114.209 101.97C114.709 101.326 115.363 101.005 116.171 101.005C116.975 101.005 117.612 101.28 118.082 101.83V98.25H119.256V108H118.177L118.12 107.264C117.65 107.839 116.996 108.127 116.158 108.127C115.363 108.127 114.713 107.801 114.209 107.149C113.71 106.498 113.46 105.647 113.46 104.598V104.509ZM114.635 104.642C114.635 105.421 114.796 106.03 115.117 106.47C115.439 106.91 115.883 107.13 116.45 107.13C117.195 107.13 117.739 106.796 118.082 106.127V102.973C117.73 102.325 117.191 102.001 116.463 102.001C115.887 102.001 115.439 102.224 115.117 102.668C114.796 103.112 114.635 103.77 114.635 104.642ZM120.773 104.502C120.773 103.83 120.904 103.224 121.167 102.687C121.433 102.15 121.801 101.735 122.271 101.443C122.745 101.151 123.285 101.005 123.89 101.005C124.825 101.005 125.58 101.329 126.156 101.976C126.736 102.624 127.025 103.485 127.025 104.56V104.642C127.025 105.311 126.896 105.912 126.638 106.445C126.384 106.974 126.018 107.386 125.54 107.683C125.066 107.979 124.52 108.127 123.902 108.127C122.971 108.127 122.216 107.803 121.636 107.156C121.061 106.508 120.773 105.651 120.773 104.585V104.502ZM121.954 104.642C121.954 105.404 122.129 106.015 122.48 106.477C122.836 106.938 123.31 107.168 123.902 107.168C124.499 107.168 124.973 106.936 125.324 106.47C125.675 106 125.851 105.345 125.851 104.502C125.851 103.749 125.671 103.14 125.312 102.674C124.956 102.205 124.482 101.97 123.89 101.97C123.31 101.97 122.842 102.2 122.487 102.662C122.131 103.123 121.954 103.783 121.954 104.642ZM131.348 108.127C130.417 108.127 129.66 107.822 129.076 107.213C128.492 106.599 128.2 105.78 128.2 104.756V104.541C128.2 103.859 128.329 103.252 128.587 102.719C128.849 102.181 129.213 101.762 129.679 101.462C130.148 101.157 130.656 101.005 131.202 101.005C132.095 101.005 132.789 101.299 133.284 101.887C133.779 102.475 134.027 103.318 134.027 104.414V104.902H129.374C129.391 105.579 129.588 106.127 129.964 106.546C130.345 106.961 130.828 107.168 131.412 107.168C131.826 107.168 132.178 107.084 132.465 106.915C132.753 106.745 133.005 106.521 133.221 106.242L133.938 106.8C133.362 107.685 132.499 108.127 131.348 108.127ZM131.202 101.97C130.728 101.97 130.33 102.143 130.009 102.49C129.687 102.833 129.488 103.315 129.412 103.938H132.853V103.849C132.819 103.252 132.658 102.791 132.37 102.465C132.082 102.135 131.693 101.97 131.202 101.97ZM145.535 104.813C145.484 105.838 145.23 106.646 144.773 107.238C144.316 107.831 143.705 108.127 142.939 108.127C142.148 108.127 141.64 107.771 141.416 107.061C141.187 107.42 140.925 107.689 140.628 107.867C140.336 108.04 140.034 108.127 139.721 108.127C139.12 108.127 138.665 107.882 138.356 107.391C138.047 106.9 137.933 106.221 138.013 105.353C138.077 104.655 138.235 104.033 138.489 103.487C138.747 102.937 139.077 102.505 139.479 102.192C139.886 101.879 140.311 101.722 140.755 101.722C141.098 101.722 141.405 101.769 141.676 101.862C141.947 101.951 142.251 102.128 142.59 102.395L142.26 105.912C142.179 106.889 142.45 107.378 143.072 107.378C143.55 107.378 143.938 107.141 144.234 106.667C144.53 106.193 144.691 105.575 144.716 104.813C144.797 103.167 144.49 101.913 143.796 101.049C143.106 100.186 142.055 99.7544 140.641 99.7544C139.791 99.7544 139.035 99.966 138.375 100.389C137.715 100.808 137.194 101.415 136.813 102.211C136.433 103.007 136.219 103.925 136.172 104.966C136.122 106.015 136.249 106.927 136.553 107.702C136.858 108.472 137.321 109.06 137.943 109.466C138.57 109.877 139.325 110.082 140.209 110.082C140.59 110.082 140.971 110.035 141.352 109.942C141.737 109.849 142.057 109.729 142.311 109.581L142.545 110.311C142.283 110.476 141.934 110.611 141.498 110.717C141.066 110.823 140.628 110.875 140.184 110.875C139.126 110.875 138.216 110.636 137.455 110.158C136.693 109.684 136.122 108.999 135.741 108.102C135.364 107.209 135.201 106.163 135.252 104.966C135.303 103.802 135.563 102.757 136.033 101.83C136.502 100.899 137.139 100.182 137.943 99.6782C138.747 99.1704 139.655 98.9165 140.667 98.9165C141.72 98.9165 142.624 99.1535 143.377 99.6274C144.13 100.101 144.691 100.785 145.059 101.678C145.427 102.571 145.586 103.616 145.535 104.813ZM139.022 105.353C138.963 105.954 139.018 106.415 139.188 106.737C139.361 107.058 139.634 107.219 140.006 107.219C140.26 107.219 140.504 107.111 140.736 106.896C140.973 106.68 141.168 106.371 141.32 105.969L141.327 105.912L141.619 102.719C141.382 102.596 141.128 102.535 140.857 102.535C140.362 102.535 139.951 102.786 139.625 103.29C139.304 103.794 139.103 104.481 139.022 105.353ZM148.284 101.132V108.793C148.284 110.114 147.685 110.774 146.487 110.774C146.229 110.774 145.99 110.736 145.77 110.66V109.72C145.905 109.754 146.083 109.771 146.303 109.771C146.566 109.771 146.764 109.699 146.9 109.555C147.04 109.416 147.109 109.17 147.109 108.819V101.132H148.284ZM146.989 99.3101C146.989 99.1239 147.046 98.9652 147.16 98.834C147.279 98.6986 147.45 98.6309 147.674 98.6309C147.903 98.6309 148.076 98.6965 148.195 98.8276C148.313 98.9588 148.373 99.1196 148.373 99.3101C148.373 99.5005 148.313 99.6592 148.195 99.7861C148.076 99.9131 147.903 99.9766 147.674 99.9766C147.446 99.9766 147.274 99.9131 147.16 99.7861C147.046 99.6592 146.989 99.5005 146.989 99.3101ZM149.871 104.502C149.871 103.83 150.002 103.224 150.264 102.687C150.531 102.15 150.899 101.735 151.369 101.443C151.843 101.151 152.382 101.005 152.987 101.005C153.923 101.005 154.678 101.329 155.253 101.976C155.833 102.624 156.123 103.485 156.123 104.56V104.642C156.123 105.311 155.994 105.912 155.736 106.445C155.482 106.974 155.116 107.386 154.638 107.683C154.164 107.979 153.618 108.127 153 108.127C152.069 108.127 151.314 107.803 150.734 107.156C150.158 106.508 149.871 105.651 149.871 104.585V104.502ZM151.051 104.642C151.051 105.404 151.227 106.015 151.578 106.477C151.934 106.938 152.408 107.168 153 107.168C153.597 107.168 154.071 106.936 154.422 106.47C154.773 106 154.949 105.345 154.949 104.502C154.949 103.749 154.769 103.14 154.409 102.674C154.054 102.205 153.58 101.97 152.987 101.97C152.408 101.97 151.94 102.2 151.584 102.662C151.229 103.123 151.051 103.783 151.051 104.642ZM158.77 101.963C159.291 101.324 159.968 101.005 160.801 101.005C162.253 101.005 162.985 101.824 162.998 103.461V108H161.823V103.455C161.819 102.96 161.705 102.594 161.48 102.357C161.26 102.12 160.916 102.001 160.446 102.001C160.065 102.001 159.731 102.103 159.443 102.306C159.155 102.509 158.931 102.776 158.77 103.106V108H157.596V98.25H158.77V101.963ZM165.867 101.132L165.905 101.995C166.43 101.335 167.115 101.005 167.961 101.005C169.413 101.005 170.145 101.824 170.158 103.461V108H168.983V103.455C168.979 102.96 168.865 102.594 168.641 102.357C168.421 102.12 168.076 102.001 167.606 102.001C167.225 102.001 166.891 102.103 166.603 102.306C166.315 102.509 166.091 102.776 165.93 103.106V108H164.756V101.132H165.867ZM171.643 104.509C171.643 103.455 171.893 102.609 172.392 101.97C172.891 101.326 173.545 101.005 174.354 101.005C175.158 101.005 175.794 101.28 176.264 101.83V98.25H177.438V108H176.359L176.302 107.264C175.833 107.839 175.179 108.127 174.341 108.127C173.545 108.127 172.896 107.801 172.392 107.149C171.893 106.498 171.643 105.647 171.643 104.598V104.509ZM172.817 104.642C172.817 105.421 172.978 106.03 173.3 106.47C173.621 106.91 174.066 107.13 174.633 107.13C175.378 107.13 175.921 106.796 176.264 106.127V102.973C175.913 102.325 175.373 102.001 174.646 102.001C174.07 102.001 173.621 102.224 173.3 102.668C172.978 103.112 172.817 103.77 172.817 104.642ZM178.956 104.502C178.956 103.83 179.087 103.224 179.349 102.687C179.616 102.15 179.984 101.735 180.454 101.443C180.928 101.151 181.467 101.005 182.072 101.005C183.007 101.005 183.763 101.329 184.338 101.976C184.918 102.624 185.208 103.485 185.208 104.56V104.642C185.208 105.311 185.079 105.912 184.821 106.445C184.567 106.974 184.201 107.386 183.723 107.683C183.249 107.979 182.703 108.127 182.085 108.127C181.154 108.127 180.399 107.803 179.819 107.156C179.243 106.508 178.956 105.651 178.956 104.585V104.502ZM180.136 104.642C180.136 105.404 180.312 106.015 180.663 106.477C181.019 106.938 181.493 107.168 182.085 107.168C182.682 107.168 183.156 106.936 183.507 106.47C183.858 106 184.034 105.345 184.034 104.502C184.034 103.749 183.854 103.14 183.494 102.674C183.139 102.205 182.665 101.97 182.072 101.97C181.493 101.97 181.025 102.2 180.669 102.662C180.314 103.123 180.136 103.783 180.136 104.642ZM189.531 108.127C188.6 108.127 187.842 107.822 187.258 107.213C186.674 106.599 186.382 105.78 186.382 104.756V104.541C186.382 103.859 186.511 103.252 186.77 102.719C187.032 102.181 187.396 101.762 187.861 101.462C188.331 101.157 188.839 101.005 189.385 101.005C190.278 101.005 190.972 101.299 191.467 101.887C191.962 102.475 192.209 103.318 192.209 104.414V104.902H187.557C187.574 105.579 187.77 106.127 188.147 106.546C188.528 106.961 189.01 107.168 189.594 107.168C190.009 107.168 190.36 107.084 190.648 106.915C190.936 106.745 191.188 106.521 191.403 106.242L192.121 106.8C191.545 107.685 190.682 108.127 189.531 108.127ZM189.385 101.97C188.911 101.97 188.513 102.143 188.191 102.49C187.87 102.833 187.671 103.315 187.595 103.938H191.035V103.849C191.001 103.252 190.84 102.791 190.553 102.465C190.265 102.135 189.876 101.97 189.385 101.97ZM194.679 101.132L194.71 101.894C195.214 101.301 195.893 101.005 196.748 101.005C197.709 101.005 198.362 101.373 198.709 102.109C198.938 101.779 199.234 101.513 199.598 101.31C199.966 101.106 200.4 101.005 200.899 101.005C202.406 101.005 203.172 101.803 203.197 103.398V108H202.023V103.468C202.023 102.977 201.911 102.611 201.687 102.37C201.462 102.124 201.086 102.001 200.557 102.001C200.121 102.001 199.759 102.133 199.471 102.395C199.183 102.653 199.016 103.002 198.97 103.442V108H197.789V103.5C197.789 102.501 197.3 102.001 196.323 102.001C195.553 102.001 195.026 102.329 194.742 102.985V108H193.568V101.132H194.679ZM209.215 108C209.147 107.865 209.092 107.623 209.05 107.276C208.504 107.843 207.852 108.127 207.095 108.127C206.418 108.127 205.861 107.937 205.425 107.556C204.994 107.171 204.778 106.684 204.778 106.096C204.778 105.381 205.049 104.826 205.59 104.433C206.136 104.035 206.902 103.836 207.888 103.836H209.031V103.296C209.031 102.886 208.908 102.56 208.663 102.319C208.417 102.073 208.055 101.951 207.577 101.951C207.158 101.951 206.807 102.056 206.523 102.268C206.24 102.48 206.098 102.736 206.098 103.036H204.917C204.917 102.693 205.038 102.363 205.279 102.046C205.525 101.724 205.855 101.47 206.27 101.284C206.688 101.098 207.148 101.005 207.647 101.005C208.438 101.005 209.058 101.204 209.507 101.602C209.955 101.995 210.188 102.539 210.205 103.233V106.394C210.205 107.025 210.285 107.526 210.446 107.898V108H209.215ZM207.266 107.105C207.634 107.105 207.983 107.01 208.313 106.819C208.644 106.629 208.883 106.381 209.031 106.077V104.667H208.11C206.672 104.667 205.952 105.089 205.952 105.931C205.952 106.299 206.075 106.587 206.32 106.794C206.566 107.001 206.881 107.105 207.266 107.105ZM213.322 108H212.147V101.132H213.322V108ZM212.052 99.3101C212.052 99.1196 212.109 98.9588 212.224 98.8276C212.342 98.6965 212.516 98.6309 212.744 98.6309C212.973 98.6309 213.146 98.6965 213.265 98.8276C213.383 98.9588 213.442 99.1196 213.442 99.3101C213.442 99.5005 213.383 99.6592 213.265 99.7861C213.146 99.9131 212.973 99.9766 212.744 99.9766C212.516 99.9766 212.342 99.9131 212.224 99.7861C212.109 99.6592 212.052 99.5005 212.052 99.3101ZM216.483 108H215.309V98.25H216.483V108ZM218.394 107.384C218.394 107.181 218.453 107.012 218.571 106.876C218.694 106.741 218.876 106.673 219.117 106.673C219.358 106.673 219.54 106.741 219.663 106.876C219.79 107.012 219.854 107.181 219.854 107.384C219.854 107.579 219.79 107.742 219.663 107.873C219.54 108.004 219.358 108.07 219.117 108.07C218.876 108.07 218.694 108.004 218.571 107.873C218.453 107.742 218.394 107.579 218.394 107.384ZM224.551 107.168C224.97 107.168 225.336 107.042 225.649 106.788C225.962 106.534 226.136 106.216 226.169 105.835H227.28C227.259 106.229 227.124 106.604 226.874 106.959C226.624 107.314 226.29 107.598 225.871 107.81C225.456 108.021 225.016 108.127 224.551 108.127C223.616 108.127 222.871 107.816 222.316 107.194C221.766 106.568 221.491 105.713 221.491 104.629V104.433C221.491 103.764 221.614 103.169 221.859 102.649C222.105 102.128 222.456 101.724 222.913 101.437C223.374 101.149 223.918 101.005 224.544 101.005C225.315 101.005 225.954 101.236 226.461 101.697C226.973 102.158 227.246 102.757 227.28 103.493H226.169C226.136 103.049 225.966 102.685 225.662 102.401C225.361 102.114 224.989 101.97 224.544 101.97C223.948 101.97 223.484 102.186 223.154 102.617C222.828 103.045 222.666 103.665 222.666 104.477V104.699C222.666 105.491 222.828 106.1 223.154 106.527C223.48 106.955 223.946 107.168 224.551 107.168ZM228.29 104.502C228.29 103.83 228.421 103.224 228.683 102.687C228.95 102.15 229.318 101.735 229.788 101.443C230.262 101.151 230.801 101.005 231.406 101.005C232.341 101.005 233.097 101.329 233.672 101.976C234.252 102.624 234.542 103.485 234.542 104.56V104.642C234.542 105.311 234.413 105.912 234.155 106.445C233.901 106.974 233.535 107.386 233.057 107.683C232.583 107.979 232.037 108.127 231.419 108.127C230.488 108.127 229.733 107.803 229.153 107.156C228.577 106.508 228.29 105.651 228.29 104.585V104.502ZM229.47 104.642C229.47 105.404 229.646 106.015 229.997 106.477C230.353 106.938 230.826 107.168 231.419 107.168C232.016 107.168 232.49 106.936 232.841 106.47C233.192 106 233.368 105.345 233.368 104.502C233.368 103.749 233.188 103.14 232.828 102.674C232.473 102.205 231.999 101.97 231.406 101.97C230.826 101.97 230.359 102.2 230.003 102.662C229.648 103.123 229.47 103.783 229.47 104.642ZM237.119 101.132L237.151 101.894C237.654 101.301 238.334 101.005 239.188 101.005C240.149 101.005 240.803 101.373 241.15 102.109C241.378 101.779 241.675 101.513 242.039 101.31C242.407 101.106 242.84 101.005 243.34 101.005C244.846 101.005 245.612 101.803 245.638 103.398V108H244.463V103.468C244.463 102.977 244.351 102.611 244.127 102.37C243.903 102.124 243.526 102.001 242.997 102.001C242.561 102.001 242.199 102.133 241.912 102.395C241.624 102.653 241.457 103.002 241.41 103.442V108H240.229V103.5C240.229 102.501 239.741 102.001 238.763 102.001C237.993 102.001 237.466 102.329 237.183 102.985V108H236.008V101.132H237.119Z" fill="black"/>
<path d="M88 109.27H246.52V109.904H88V109.27Z" fill="black"/>
<a href="mailto:johndoe@johndoemail.com">
<rect fill="black" fill-opacity="0" y="-0.117188" width="158.52" height="15.2344"/>
</a>
<path d="M19.1011 102.132V109.793C19.1011 111.114 18.5023 111.774 17.3047 111.774C17.0465 111.774 16.8075 111.736 16.5874 111.66V110.72C16.7228 110.754 16.9006 110.771 17.1206 110.771C17.383 110.771 17.5819 110.699 17.7173 110.555C17.8569 110.416 17.9268 110.17 17.9268 109.819V102.132H19.1011ZM17.8062 100.31C17.8062 100.124 17.8633 99.9652 17.9775 99.834C18.096 99.6986 18.2674 99.6309 18.4917 99.6309C18.7202 99.6309 18.8937 99.6965 19.0122 99.8276C19.1307 99.9588 19.1899 100.12 19.1899 100.31C19.1899 100.5 19.1307 100.659 19.0122 100.786C18.8937 100.913 18.7202 100.977 18.4917 100.977C18.2632 100.977 18.0918 100.913 17.9775 100.786C17.8633 100.659 17.8062 100.5 17.8062 100.31ZM20.688 105.502C20.688 104.83 20.8192 104.224 21.0815 103.687C21.3481 103.15 21.7163 102.735 22.186 102.443C22.66 102.151 23.1995 102.005 23.8047 102.005C24.7399 102.005 25.4953 102.329 26.0708 102.976C26.6506 103.624 26.9404 104.485 26.9404 105.56V105.642C26.9404 106.311 26.8114 106.912 26.5532 107.445C26.2993 107.974 25.9333 108.386 25.4551 108.683C24.9811 108.979 24.4352 109.127 23.8174 109.127C22.8864 109.127 22.131 108.803 21.5513 108.156C20.9757 107.508 20.688 106.651 20.688 105.585V105.502ZM21.8687 105.642C21.8687 106.404 22.0443 107.015 22.3955 107.477C22.751 107.938 23.2249 108.168 23.8174 108.168C24.4141 108.168 24.888 107.936 25.2393 107.47C25.5905 107 25.7661 106.345 25.7661 105.502C25.7661 104.749 25.5863 104.14 25.2266 103.674C24.8711 103.205 24.3971 102.97 23.8047 102.97C23.2249 102.97 22.7573 103.2 22.4019 103.662C22.0464 104.123 21.8687 104.783 21.8687 105.642ZM29.5874 102.963C30.1079 102.324 30.785 102.005 31.6187 102.005C33.0701 102.005 33.8022 102.824 33.8149 104.461V109H32.6406V104.455C32.6364 103.96 32.5221 103.594 32.2979 103.357C32.0778 103.12 31.7329 103.001 31.2632 103.001C30.8823 103.001 30.548 103.103 30.2603 103.306C29.9725 103.509 29.7482 103.776 29.5874 104.106V109H28.4131V99.25H29.5874V102.963ZM36.6841 102.132L36.7222 102.995C37.2469 102.335 37.9325 102.005 38.7788 102.005C40.2303 102.005 40.9624 102.824 40.9751 104.461V109H39.8008V104.455C39.7965 103.96 39.6823 103.594 39.458 103.357C39.238 103.12 38.8931 103.001 38.4233 103.001C38.0425 103.001 37.7082 103.103 37.4204 103.306C37.1326 103.509 36.9084 103.776 36.7476 104.106V109H35.5732V102.132H36.6841ZM42.4604 105.509C42.4604 104.455 42.7101 103.609 43.2095 102.97C43.7088 102.326 44.3626 102.005 45.1709 102.005C45.9749 102.005 46.6118 102.28 47.0815 102.83V99.25H48.2559V109H47.1768L47.1196 108.264C46.6499 108.839 45.9961 109.127 45.1582 109.127C44.3626 109.127 43.7131 108.801 43.2095 108.149C42.7101 107.498 42.4604 106.647 42.4604 105.598V105.509ZM43.6348 105.642C43.6348 106.421 43.7956 107.03 44.1172 107.47C44.4388 107.91 44.8831 108.13 45.4502 108.13C46.195 108.13 46.7388 107.796 47.0815 107.127V103.973C46.7303 103.325 46.1908 103.001 45.4629 103.001C44.8874 103.001 44.4388 103.224 44.1172 103.668C43.7956 104.112 43.6348 104.77 43.6348 105.642ZM49.7729 105.502C49.7729 104.83 49.9041 104.224 50.1665 103.687C50.4331 103.15 50.8013 102.735 51.271 102.443C51.745 102.151 52.2845 102.005 52.8896 102.005C53.8249 102.005 54.5802 102.329 55.1558 102.976C55.7355 103.624 56.0254 104.485 56.0254 105.56V105.642C56.0254 106.311 55.8963 106.912 55.6382 107.445C55.3843 107.974 55.0182 108.386 54.54 108.683C54.0661 108.979 53.5202 109.127 52.9023 109.127C51.9714 109.127 51.216 108.803 50.6362 108.156C50.0607 107.508 49.7729 106.651 49.7729 105.585V105.502ZM50.9536 105.642C50.9536 106.404 51.1292 107.015 51.4805 107.477C51.8359 107.938 52.3099 108.168 52.9023 108.168C53.499 108.168 53.973 107.936 54.3242 107.47C54.6755 107 54.8511 106.345 54.8511 105.502C54.8511 104.749 54.6712 104.14 54.3115 103.674C53.9561 103.205 53.4821 102.97 52.8896 102.97C52.3099 102.97 51.8423 103.2 51.4868 103.662C51.1313 104.123 50.9536 104.783 50.9536 105.642ZM60.3481 109.127C59.4172 109.127 58.6597 108.822 58.0757 108.213C57.4917 107.599 57.1997 106.78 57.1997 105.756V105.541C57.1997 104.859 57.3288 104.252 57.5869 103.719C57.8493 103.181 58.2132 102.762 58.6787 102.462C59.1484 102.157 59.6562 102.005 60.2021 102.005C61.0951 102.005 61.7891 102.299 62.2842 102.887C62.7793 103.475 63.0269 104.318 63.0269 105.414V105.902H58.374C58.391 106.579 58.5877 107.127 58.9644 107.546C59.3452 107.961 59.8276 108.168 60.4116 108.168C60.8263 108.168 61.1776 108.084 61.4653 107.915C61.7531 107.745 62.0049 107.521 62.2207 107.242L62.938 107.8C62.3625 108.685 61.4992 109.127 60.3481 109.127ZM60.2021 102.97C59.7282 102.97 59.3304 103.143 59.0088 103.49C58.6872 103.833 58.4883 104.315 58.4121 104.938H61.8525V104.849C61.8187 104.252 61.6579 103.791 61.3701 103.465C61.0824 103.135 60.693 102.97 60.2021 102.97Z" fill="black"/>
<path d="M94.1763 15.5879H90.3042L89.4346 18H88.1777L91.707 8.75781H92.7734L96.3091 18H95.0586L94.1763 15.5879ZM90.6724 14.585H93.8145L92.2402 10.2622L90.6724 14.585ZM98.772 14.3818V18H97.5532V8.75781H100.962C101.973 8.75781 102.765 9.01595 103.336 9.53223C103.911 10.0485 104.199 10.7319 104.199 11.5825C104.199 12.4797 103.918 13.1715 103.355 13.6582C102.796 14.1406 101.994 14.3818 100.949 14.3818H98.772ZM98.772 13.3853H100.962C101.614 13.3853 102.113 13.2329 102.46 12.9282C102.807 12.6193 102.98 12.175 102.98 11.5952C102.98 11.0451 102.807 10.605 102.46 10.2749C102.113 9.94482 101.637 9.77344 101.032 9.76074H98.772V13.3853ZM106.973 14.3818V18H105.754V8.75781H109.163C110.174 8.75781 110.966 9.01595 111.537 9.53223C112.113 10.0485 112.4 10.7319 112.4 11.5825C112.4 12.4797 112.119 13.1715 111.556 13.6582C110.998 14.1406 110.196 14.3818 109.15 14.3818H106.973ZM106.973 13.3853H109.163C109.815 13.3853 110.314 13.2329 110.661 12.9282C111.008 12.6193 111.182 12.175 111.182 11.5952C111.182 11.0451 111.008 10.605 110.661 10.2749C110.314 9.94482 109.838 9.77344 109.233 9.76074H106.973V13.3853ZM118.723 18.9585H112.908V18H118.723V18.9585ZM126.327 8.75781V15.042C126.323 15.9137 126.048 16.6268 125.502 17.1812C124.96 17.7355 124.224 18.0465 123.293 18.1143L122.969 18.127C121.958 18.127 121.152 17.854 120.551 17.3081C119.95 16.7622 119.645 16.0111 119.637 15.0547V8.75781H120.843V15.0166C120.843 15.6852 121.027 16.2057 121.395 16.5781C121.763 16.9463 122.288 17.1304 122.969 17.1304C123.659 17.1304 124.186 16.9463 124.55 16.5781C124.918 16.21 125.102 15.6916 125.102 15.0229V8.75781H126.327ZM130.974 13.8804C129.928 13.5799 129.167 13.2118 128.688 12.7759C128.215 12.3358 127.978 11.7941 127.978 11.1509C127.978 10.423 128.267 9.8221 128.847 9.34814C129.431 8.86995 130.189 8.63086 131.12 8.63086C131.754 8.63086 132.319 8.75358 132.814 8.99902C133.314 9.24447 133.699 9.58301 133.97 10.0146C134.245 10.4463 134.382 10.9181 134.382 11.4302H133.157C133.157 10.8716 132.979 10.4336 132.624 10.1162C132.269 9.7946 131.767 9.63379 131.12 9.63379C130.519 9.63379 130.049 9.76709 129.71 10.0337C129.376 10.2961 129.209 10.6621 129.209 11.1318C129.209 11.5085 129.368 11.828 129.685 12.0903C130.007 12.3485 130.55 12.5854 131.316 12.8013C132.087 13.0171 132.688 13.2562 133.119 13.5186C133.555 13.7767 133.877 14.0793 134.084 14.4263C134.296 14.7733 134.401 15.1816 134.401 15.6514C134.401 16.4004 134.109 17.0013 133.525 17.4541C132.941 17.9027 132.161 18.127 131.183 18.127C130.548 18.127 129.956 18.0063 129.406 17.7651C128.856 17.5197 128.43 17.1854 128.13 16.7622C127.834 16.339 127.686 15.8587 127.686 15.3213H128.911C128.911 15.8799 129.116 16.3221 129.526 16.6479C129.941 16.9696 130.493 17.1304 131.183 17.1304C131.826 17.1304 132.319 16.9992 132.662 16.7368C133.005 16.4744 133.176 16.1169 133.176 15.6641C133.176 15.2113 133.018 14.8621 132.7 14.6167C132.383 14.367 131.807 14.1216 130.974 13.8804ZM141.193 13.728H137.188V17.0034H141.841V18H135.969V8.75781H141.777V9.76074H137.188V12.7314H141.193V13.728ZM146.748 14.2612H144.577V18H143.352V8.75781H146.411C147.452 8.75781 148.252 8.99479 148.811 9.46875C149.373 9.94271 149.655 10.6325 149.655 11.5381C149.655 12.1136 149.498 12.6151 149.185 13.0425C148.876 13.4699 148.444 13.7894 147.89 14.001L150.061 17.9238V18H148.753L146.748 14.2612ZM144.577 13.2646H146.449C147.054 13.2646 147.535 13.1081 147.89 12.7949C148.25 12.4818 148.43 12.0628 148.43 11.5381C148.43 10.9668 148.258 10.5288 147.916 10.2241C147.577 9.91943 147.086 9.76497 146.443 9.76074H144.577V13.2646ZM154.092 13.8804C153.047 13.5799 152.285 13.2118 151.807 12.7759C151.333 12.3358 151.096 11.7941 151.096 11.1509C151.096 10.423 151.386 9.8221 151.965 9.34814C152.549 8.86995 153.307 8.63086 154.238 8.63086C154.873 8.63086 155.438 8.75358 155.933 8.99902C156.432 9.24447 156.817 9.58301 157.088 10.0146C157.363 10.4463 157.5 10.9181 157.5 11.4302H156.275C156.275 10.8716 156.098 10.4336 155.742 10.1162C155.387 9.7946 154.885 9.63379 154.238 9.63379C153.637 9.63379 153.167 9.76709 152.829 10.0337C152.494 10.2961 152.327 10.6621 152.327 11.1318C152.327 11.5085 152.486 11.828 152.803 12.0903C153.125 12.3485 153.669 12.5854 154.435 12.8013C155.205 13.0171 155.806 13.2562 156.237 13.5186C156.673 13.7767 156.995 14.0793 157.202 14.4263C157.414 14.7733 157.52 15.1816 157.52 15.6514C157.52 16.4004 157.228 17.0013 156.644 17.4541C156.06 17.9027 155.279 18.127 154.301 18.127C153.667 18.127 153.074 18.0063 152.524 17.7651C151.974 17.5197 151.549 17.1854 151.248 16.7622C150.952 16.339 150.804 15.8587 150.804 15.3213H152.029C152.029 15.8799 152.234 16.3221 152.645 16.6479C153.059 16.9696 153.611 17.1304 154.301 17.1304C154.944 17.1304 155.438 16.9992 155.78 16.7368C156.123 16.4744 156.294 16.1169 156.294 15.6641C156.294 15.2113 156.136 14.8621 155.818 14.6167C155.501 14.367 154.925 14.1216 154.092 13.8804Z" fill="black"/>
<path d="M300.579 8.75781V15.042C300.575 15.9137 300.3 16.6268 299.754 17.1812C299.212 17.7355 298.476 18.0465 297.545 18.1143L297.221 18.127C296.21 18.127 295.404 17.854 294.803 17.3081C294.202 16.7622 293.897 16.0111 293.889 15.0547V8.75781H295.095V15.0166C295.095 15.6852 295.279 16.2057 295.647 16.5781C296.015 16.9463 296.54 17.1304 297.221 17.1304C297.911 17.1304 298.438 16.9463 298.802 16.5781C299.17 16.21 299.354 15.6916 299.354 15.0229V8.75781H300.579ZM305.226 13.8804C304.18 13.5799 303.419 13.2118 302.94 12.7759C302.466 12.3358 302.229 11.7941 302.229 11.1509C302.229 10.423 302.519 9.8221 303.099 9.34814C303.683 8.86995 304.441 8.63086 305.372 8.63086C306.006 8.63086 306.571 8.75358 307.066 8.99902C307.566 9.24447 307.951 9.58301 308.222 10.0146C308.497 10.4463 308.634 10.9181 308.634 11.4302H307.409C307.409 10.8716 307.231 10.4336 306.876 10.1162C306.521 9.7946 306.019 9.63379 305.372 9.63379C304.771 9.63379 304.301 9.76709 303.962 10.0337C303.628 10.2961 303.461 10.6621 303.461 11.1318C303.461 11.5085 303.62 11.828 303.937 12.0903C304.259 12.3485 304.802 12.5854 305.568 12.8013C306.339 13.0171 306.939 13.2562 307.371 13.5186C307.807 13.7767 308.129 14.0793 308.336 14.4263C308.548 14.7733 308.653 15.1816 308.653 15.6514C308.653 16.4004 308.361 17.0013 307.777 17.4541C307.193 17.9027 306.413 18.127 305.435 18.127C304.8 18.127 304.208 18.0063 303.658 17.7651C303.108 17.5197 302.682 17.1854 302.382 16.7622C302.086 16.339 301.938 15.8587 301.938 15.3213H303.163C303.163 15.8799 303.368 16.3221 303.778 16.6479C304.193 16.9696 304.745 17.1304 305.435 17.1304C306.078 17.1304 306.571 16.9992 306.914 16.7368C307.257 16.4744 307.428 16.1169 307.428 15.6641C307.428 15.2113 307.27 14.8621 306.952 14.6167C306.635 14.367 306.059 14.1216 305.226 13.8804ZM315.445 13.728H311.44V17.0034H316.093V18H310.221V8.75781H316.029V9.76074H311.44V12.7314H315.445V13.728ZM321 14.2612H318.829V18H317.604V8.75781H320.663C321.704 8.75781 322.504 8.99479 323.062 9.46875C323.625 9.94271 323.907 10.6325 323.907 11.5381C323.907 12.1136 323.75 12.6151 323.437 13.0425C323.128 13.4699 322.696 13.7894 322.142 14.001L324.313 17.9238V18H323.005L321 14.2612ZM318.829 13.2646H320.701C321.306 13.2646 321.787 13.1081 322.142 12.7949C322.502 12.4818 322.682 12.0628 322.682 11.5381C322.682 10.9668 322.51 10.5288 322.167 10.2241C321.829 9.91943 321.338 9.76497 320.695 9.76074H318.829V13.2646ZM330.388 18.9585H324.573V18H330.388V18.9585ZM334.875 14.2612H332.705V18H331.479V8.75781H334.539C335.58 8.75781 336.38 8.99479 336.938 9.46875C337.501 9.94271 337.783 10.6325 337.783 11.5381C337.783 12.1136 337.626 12.6151 337.313 13.0425C337.004 13.4699 336.572 13.7894 336.018 14.001L338.189 17.9238V18H336.881L334.875 14.2612ZM332.705 13.2646H334.577C335.182 13.2646 335.663 13.1081 336.018 12.7949C336.378 12.4818 336.558 12.0628 336.558 11.5381C336.558 10.9668 336.386 10.5288 336.043 10.2241C335.705 9.91943 335.214 9.76497 334.571 9.76074H332.705V13.2646ZM346.606 13.6772C346.606 14.5828 346.454 15.3742 346.149 16.0513C345.844 16.7241 345.413 17.2383 344.854 17.5938C344.295 17.9492 343.644 18.127 342.899 18.127C342.171 18.127 341.526 17.9492 340.963 17.5938C340.4 17.234 339.962 16.7241 339.649 16.064C339.34 15.3996 339.181 14.6315 339.173 13.7598V13.0933C339.173 12.2046 339.327 11.4196 339.636 10.7383C339.945 10.057 340.381 9.53646 340.944 9.17676C341.511 8.81283 342.158 8.63086 342.886 8.63086C343.627 8.63086 344.278 8.81071 344.841 9.17041C345.408 9.52588 345.844 10.0443 346.149 10.7256C346.454 11.4027 346.606 12.1919 346.606 13.0933V13.6772ZM345.394 13.0806C345.394 11.9845 345.174 11.1445 344.733 10.5605C344.293 9.97233 343.678 9.67822 342.886 9.67822C342.116 9.67822 341.509 9.97233 341.064 10.5605C340.624 11.1445 340.398 11.957 340.385 12.998V13.6772C340.385 14.7394 340.607 15.5752 341.052 16.1846C341.5 16.7897 342.116 17.0923 342.899 17.0923C343.686 17.0923 344.295 16.8066 344.727 16.2354C345.159 15.6598 345.381 14.8368 345.394 13.7661V13.0806ZM349.659 17.0034H354.039V18H348.434V8.75781H349.659V17.0034ZM360.653 13.728H356.648V17.0034H361.301V18H355.429V8.75781H361.237V9.76074H356.648V12.7314H360.653V13.728ZM365.541 13.8804C364.496 13.5799 363.734 13.2118 363.256 12.7759C362.782 12.3358 362.545 11.7941 362.545 11.1509C362.545 10.423 362.835 9.8221 363.415 9.34814C363.999 8.86995 364.756 8.63086 365.687 8.63086C366.322 8.63086 366.887 8.75358 367.382 8.99902C367.881 9.24447 368.266 9.58301 368.537 10.0146C368.812 10.4463 368.95 10.9181 368.95 11.4302H367.725C367.725 10.8716 367.547 10.4336 367.191 10.1162C366.836 9.7946 366.334 9.63379 365.687 9.63379C365.086 9.63379 364.616 9.76709 364.278 10.0337C363.944 10.2961 363.776 10.6621 363.776 11.1318C363.776 11.5085 363.935 11.828 364.252 12.0903C364.574 12.3485 365.118 12.5854 365.884 12.8013C366.654 13.0171 367.255 13.2562 367.687 13.5186C368.122 13.7767 368.444 14.0793 368.651 14.4263C368.863 14.7733 368.969 15.1816 368.969 15.6514C368.969 16.4004 368.677 17.0013 368.093 17.4541C367.509 17.9027 366.728 18.127 365.75 18.127C365.116 18.127 364.523 18.0063 363.973 17.7651C363.423 17.5197 362.998 17.1854 362.697 16.7622C362.401 16.339 362.253 15.8587 362.253 15.3213H363.478C363.478 15.8799 363.683 16.3221 364.094 16.6479C364.508 16.9696 365.061 17.1304 365.75 17.1304C366.394 17.1304 366.887 16.9992 367.229 16.7368C367.572 16.4744 367.744 16.1169 367.744 15.6641C367.744 15.2113 367.585 14.8621 367.268 14.6167C366.95 14.367 366.375 14.1216 365.541 13.8804Z" fill="black"/>
</svg>
