<svg width="433" height="189" viewBox="0 0 433 189" fill="none" xmlns="http://www.w3.org/2000/svg">
<g clip-path="url(#clip0_10_2)">
<rect width="433" height="189" fill="white"/>
<rect x="0.5" y="0.5" width="82" height="22" fill="#F2F2F2" stroke="black"/>
<rect x="82.5" y="0.5" width="149" height="22" fill="#F2F2F2" stroke="black"/>
<rect x="231.5" y="0.5" width="118" height="22" fill="#F2F2F2" stroke="black"/>
<path d="M268.69 12.6421C268.69 13.6873 268.451 14.5295 267.973 15.1685C267.495 15.8075 266.847 16.127 266.031 16.127C265.197 16.127 264.541 15.8625 264.063 15.3335V18.6406H262.889V9.13184H263.961L264.019 9.89355C264.497 9.30111 265.161 9.00488 266.012 9.00488C266.837 9.00488 267.489 9.31592 267.967 9.93799C268.449 10.5601 268.69 11.4255 268.69 12.5342V12.6421ZM267.516 12.5088C267.516 11.7344 267.351 11.1229 267.021 10.6743C266.691 10.2257 266.238 10.0015 265.663 10.0015C264.952 10.0015 264.418 10.3167 264.063 10.9473V14.229C264.414 14.8553 264.952 15.1685 265.675 15.1685C266.238 15.1685 266.685 14.9463 267.015 14.502C267.349 14.0534 267.516 13.389 267.516 12.5088ZM274.429 16C274.361 15.8646 274.306 15.6234 274.264 15.2764C273.718 15.8434 273.066 16.127 272.309 16.127C271.632 16.127 271.075 15.9365 270.639 15.5557C270.208 15.1706 269.992 14.6839 269.992 14.0957C269.992 13.3805 270.263 12.8262 270.804 12.4326C271.35 12.0348 272.116 11.8359 273.102 11.8359H274.245V11.2964C274.245 10.8859 274.122 10.5601 273.876 10.3188C273.631 10.0734 273.269 9.95068 272.791 9.95068C272.372 9.95068 272.021 10.0565 271.737 10.2681C271.454 10.4797 271.312 10.7357 271.312 11.0361H270.131C270.131 10.6934 270.252 10.3633 270.493 10.0459C270.739 9.72428 271.069 9.47038 271.483 9.28418C271.902 9.09798 272.361 9.00488 272.861 9.00488C273.652 9.00488 274.272 9.20378 274.721 9.60156C275.169 9.99512 275.402 10.5389 275.419 11.2329V14.394C275.419 15.0246 275.499 15.526 275.66 15.8984V16H274.429ZM272.48 15.105C272.848 15.105 273.197 15.0098 273.527 14.8193C273.857 14.6289 274.097 14.3813 274.245 14.0767V12.6675H273.324C271.885 12.6675 271.166 13.0885 271.166 13.9307C271.166 14.2988 271.289 14.5866 271.534 14.7939C271.78 15.0013 272.095 15.105 272.48 15.105ZM280.58 10.1855C280.402 10.1559 280.209 10.1411 280.002 10.1411C279.232 10.1411 278.709 10.4691 278.434 11.125V16H277.26V9.13184H278.402L278.421 9.92529C278.806 9.31169 279.352 9.00488 280.059 9.00488C280.288 9.00488 280.461 9.03451 280.58 9.09375V10.1855ZM284.388 16.127C283.457 16.127 282.7 15.8223 282.116 15.2129C281.532 14.5993 281.24 13.7804 281.24 12.7563V12.5405C281.24 11.8592 281.369 11.252 281.627 10.7188C281.889 10.1813 282.253 9.76237 282.719 9.46191C283.188 9.15723 283.696 9.00488 284.242 9.00488C285.135 9.00488 285.829 9.29899 286.324 9.88721C286.819 10.4754 287.067 11.3175 287.067 12.4136V12.9023H282.414C282.431 13.5794 282.628 14.1274 283.004 14.5464C283.385 14.9611 283.868 15.1685 284.452 15.1685C284.866 15.1685 285.218 15.0838 285.505 14.9146C285.793 14.7453 286.045 14.521 286.261 14.2417L286.978 14.8003C286.403 15.6847 285.539 16.127 284.388 16.127ZM284.242 9.96973C283.768 9.96973 283.37 10.1432 283.049 10.4902C282.727 10.833 282.528 11.3154 282.452 11.9375H285.893V11.8486C285.859 11.252 285.698 10.7907 285.41 10.4648C285.122 10.1348 284.733 9.96973 284.242 9.96973ZM289.542 9.13184L289.581 9.99512C290.105 9.33496 290.791 9.00488 291.637 9.00488C293.089 9.00488 293.821 9.82373 293.833 11.4614V16H292.659V11.4551C292.655 10.96 292.541 10.5939 292.316 10.3569C292.096 10.12 291.751 10.0015 291.282 10.0015C290.901 10.0015 290.567 10.103 290.279 10.3062C289.991 10.5093 289.767 10.7759 289.606 11.106V16H288.432V9.13184H289.542ZM297.198 7.46875V9.13184H298.48V10.0396H297.198V14.2988C297.198 14.5739 297.255 14.7812 297.369 14.9209C297.483 15.0563 297.678 15.124 297.953 15.124C298.089 15.124 298.275 15.0986 298.512 15.0479V16C298.203 16.0846 297.902 16.127 297.61 16.127C297.086 16.127 296.69 15.9683 296.423 15.6509C296.157 15.3335 296.023 14.8828 296.023 14.2988V10.0396H294.773V9.13184H296.023V7.46875H297.198ZM304.809 16.9585H298.994V16H304.809V16.9585ZM306.999 16H305.824V9.13184H306.999V16ZM305.729 7.31006C305.729 7.11963 305.786 6.95882 305.9 6.82764C306.019 6.69645 306.192 6.63086 306.421 6.63086C306.649 6.63086 306.823 6.69645 306.941 6.82764C307.06 6.95882 307.119 7.11963 307.119 7.31006C307.119 7.50049 307.06 7.65918 306.941 7.78613C306.823 7.91309 306.649 7.97656 306.421 7.97656C306.192 7.97656 306.019 7.91309 305.9 7.78613C305.786 7.65918 305.729 7.50049 305.729 7.31006ZM308.598 12.5088C308.598 11.4551 308.848 10.6087 309.347 9.96973C309.847 9.3265 310.5 9.00488 311.309 9.00488C312.113 9.00488 312.75 9.27995 313.219 9.83008V6.25H314.394V16H313.314L313.257 15.2637C312.788 15.8392 312.134 16.127 311.296 16.127C310.5 16.127 309.851 15.8011 309.347 15.1494C308.848 14.4977 308.598 13.6471 308.598 12.5977V12.5088ZM309.772 12.6421C309.772 13.4207 309.933 14.0301 310.255 14.4702C310.576 14.9103 311.021 15.1304 311.588 15.1304C312.333 15.1304 312.876 14.7961 313.219 14.1274V10.9727C312.868 10.3252 312.328 10.0015 311.601 10.0015C311.025 10.0015 310.576 10.2236 310.255 10.668C309.933 11.1123 309.772 11.7703 309.772 12.6421Z" fill="black"/>
<path d="M100.603 12.5088C100.603 11.4551 100.853 10.6087 101.352 9.96973C101.851 9.3265 102.505 9.00488 103.313 9.00488C104.118 9.00488 104.754 9.27995 105.224 9.83008V6.25H106.398V16H105.319L105.262 15.2637C104.792 15.8392 104.139 16.127 103.301 16.127C102.505 16.127 101.856 15.8011 101.352 15.1494C100.853 14.4977 100.603 13.6471 100.603 12.5977V12.5088ZM101.777 12.6421C101.777 13.4207 101.938 14.0301 102.26 14.4702C102.581 14.9103 103.026 15.1304 103.593 15.1304C104.338 15.1304 104.881 14.7961 105.224 14.1274V10.9727C104.873 10.3252 104.333 10.0015 103.605 10.0015C103.03 10.0015 102.581 10.2236 102.26 10.668C101.938 11.1123 101.777 11.7703 101.777 12.6421ZM111.077 16.127C110.146 16.127 109.388 15.8223 108.804 15.2129C108.22 14.5993 107.928 13.7804 107.928 12.7563V12.5405C107.928 11.8592 108.057 11.252 108.315 10.7188C108.578 10.1813 108.942 9.76237 109.407 9.46191C109.877 9.15723 110.385 9.00488 110.931 9.00488C111.824 9.00488 112.518 9.29899 113.013 9.88721C113.508 10.4754 113.755 11.3175 113.755 12.4136V12.9023H109.103C109.119 13.5794 109.316 14.1274 109.693 14.5464C110.074 14.9611 110.556 15.1685 111.14 15.1685C111.555 15.1685 111.906 15.0838 112.194 14.9146C112.482 14.7453 112.733 14.521 112.949 14.2417L113.667 14.8003C113.091 15.6847 112.228 16.127 111.077 16.127ZM110.931 9.96973C110.457 9.96973 110.059 10.1432 109.737 10.4902C109.416 10.833 109.217 11.3154 109.141 11.9375H112.581V11.8486C112.547 11.252 112.386 10.7907 112.099 10.4648C111.811 10.1348 111.422 9.96973 110.931 9.96973ZM120.922 12.6421C120.922 13.6873 120.683 14.5295 120.205 15.1685C119.726 15.8075 119.079 16.127 118.262 16.127C117.429 16.127 116.773 15.8625 116.294 15.3335V18.6406H115.12V9.13184H116.193L116.25 9.89355C116.728 9.30111 117.393 9.00488 118.243 9.00488C119.068 9.00488 119.72 9.31592 120.198 9.93799C120.681 10.5601 120.922 11.4255 120.922 12.5342V12.6421ZM119.748 12.5088C119.748 11.7344 119.583 11.1229 119.252 10.6743C118.922 10.2257 118.47 10.0015 117.894 10.0015C117.183 10.0015 116.65 10.3167 116.294 10.9473V14.229C116.646 14.8553 117.183 15.1685 117.907 15.1685C118.47 15.1685 118.916 14.9463 119.246 14.502C119.58 14.0534 119.748 13.389 119.748 12.5088ZM126.66 16C126.592 15.8646 126.537 15.6234 126.495 15.2764C125.949 15.8434 125.298 16.127 124.54 16.127C123.863 16.127 123.306 15.9365 122.871 15.5557C122.439 15.1706 122.223 14.6839 122.223 14.0957C122.223 13.3805 122.494 12.8262 123.036 12.4326C123.582 12.0348 124.347 11.8359 125.333 11.8359H126.476V11.2964C126.476 10.8859 126.353 10.5601 126.108 10.3188C125.862 10.0734 125.501 9.95068 125.022 9.95068C124.604 9.95068 124.252 10.0565 123.969 10.2681C123.685 10.4797 123.543 10.7357 123.543 11.0361H122.363C122.363 10.6934 122.483 10.3633 122.725 10.0459C122.97 9.72428 123.3 9.47038 123.715 9.28418C124.134 9.09798 124.593 9.00488 125.092 9.00488C125.884 9.00488 126.504 9.20378 126.952 9.60156C127.401 9.99512 127.633 10.5389 127.65 11.2329V14.394C127.65 15.0246 127.731 15.526 127.892 15.8984V16H126.66ZM124.711 15.105C125.08 15.105 125.429 15.0098 125.759 14.8193C126.089 14.6289 126.328 14.3813 126.476 14.0767V12.6675H125.556C124.117 12.6675 123.397 13.0885 123.397 13.9307C123.397 14.2988 123.52 14.5866 123.766 14.7939C124.011 15.0013 124.326 15.105 124.711 15.105ZM132.811 10.1855C132.633 10.1559 132.441 10.1411 132.233 10.1411C131.463 10.1411 130.941 10.4691 130.666 11.125V16H129.491V9.13184H130.634L130.653 9.92529C131.038 9.31169 131.584 9.00488 132.291 9.00488C132.519 9.00488 132.693 9.03451 132.811 9.09375V10.1855ZM135.807 7.46875V9.13184H137.089V10.0396H135.807V14.2988C135.807 14.5739 135.864 14.7812 135.979 14.9209C136.093 15.0563 136.287 15.124 136.562 15.124C136.698 15.124 136.884 15.0986 137.121 15.0479V16C136.812 16.0846 136.512 16.127 136.22 16.127C135.695 16.127 135.299 15.9683 135.033 15.6509C134.766 15.3335 134.633 14.8828 134.633 14.2988V10.0396H133.382V9.13184H134.633V7.46875H135.807ZM139.571 9.13184L139.603 9.89355C140.107 9.30111 140.786 9.00488 141.641 9.00488C142.601 9.00488 143.255 9.37305 143.602 10.1094C143.831 9.7793 144.127 9.5127 144.491 9.30957C144.859 9.10645 145.293 9.00488 145.792 9.00488C147.299 9.00488 148.064 9.80257 148.09 11.3979V16H146.916V11.4678C146.916 10.9769 146.803 10.6108 146.579 10.3696C146.355 10.1242 145.978 10.0015 145.449 10.0015C145.013 10.0015 144.652 10.1326 144.364 10.395C144.076 10.6532 143.909 11.0023 143.862 11.4424V16H142.682V11.4995C142.682 10.5008 142.193 10.0015 141.215 10.0015C140.445 10.0015 139.918 10.3294 139.635 10.9854V16H138.46V9.13184H139.571ZM152.717 16.127C151.786 16.127 151.029 15.8223 150.445 15.2129C149.861 14.5993 149.569 13.7804 149.569 12.7563V12.5405C149.569 11.8592 149.698 11.252 149.956 10.7188C150.218 10.1813 150.582 9.76237 151.048 9.46191C151.518 9.15723 152.025 9.00488 152.571 9.00488C153.464 9.00488 154.158 9.29899 154.653 9.88721C155.148 10.4754 155.396 11.3175 155.396 12.4136V12.9023H150.743C150.76 13.5794 150.957 14.1274 151.333 14.5464C151.714 14.9611 152.197 15.1685 152.781 15.1685C153.195 15.1685 153.547 15.0838 153.834 14.9146C154.122 14.7453 154.374 14.521 154.59 14.2417L155.307 14.8003C154.732 15.6847 153.868 16.127 152.717 16.127ZM152.571 9.96973C152.097 9.96973 151.7 10.1432 151.378 10.4902C151.056 10.833 150.857 11.3154 150.781 11.9375H154.222V11.8486C154.188 11.252 154.027 10.7907 153.739 10.4648C153.451 10.1348 153.062 9.96973 152.571 9.96973ZM157.872 9.13184L157.91 9.99512C158.434 9.33496 159.12 9.00488 159.966 9.00488C161.418 9.00488 162.15 9.82373 162.163 11.4614V16H160.988V11.4551C160.984 10.96 160.87 10.5939 160.646 10.3569C160.425 10.12 160.081 10.0015 159.611 10.0015C159.23 10.0015 158.896 10.103 158.608 10.3062C158.32 10.5093 158.096 10.7759 157.935 11.106V16H156.761V9.13184H157.872ZM165.527 7.46875V9.13184H166.809V10.0396H165.527V14.2988C165.527 14.5739 165.584 14.7812 165.698 14.9209C165.812 15.0563 166.007 15.124 166.282 15.124C166.418 15.124 166.604 15.0986 166.841 15.0479V16C166.532 16.0846 166.231 16.127 165.939 16.127C165.415 16.127 165.019 15.9683 164.752 15.6509C164.486 15.3335 164.353 14.8828 164.353 14.2988V10.0396H163.102V9.13184H164.353V7.46875H165.527ZM173.138 16.9585H167.323V16H173.138V16.9585ZM175.163 9.13184L175.201 9.99512C175.725 9.33496 176.411 9.00488 177.257 9.00488C178.709 9.00488 179.441 9.82373 179.454 11.4614V16H178.279V11.4551C178.275 10.96 178.161 10.5939 177.937 10.3569C177.716 10.12 177.372 10.0015 176.902 10.0015C176.521 10.0015 176.187 10.103 175.899 10.3062C175.611 10.5093 175.387 10.7759 175.226 11.106V16H174.052V9.13184H175.163ZM185.465 16C185.397 15.8646 185.342 15.6234 185.3 15.2764C184.754 15.8434 184.102 16.127 183.345 16.127C182.668 16.127 182.111 15.9365 181.675 15.5557C181.244 15.1706 181.028 14.6839 181.028 14.0957C181.028 13.3805 181.299 12.8262 181.84 12.4326C182.386 12.0348 183.152 11.8359 184.138 11.8359H185.281V11.2964C185.281 10.8859 185.158 10.5601 184.913 10.3188C184.667 10.0734 184.305 9.95068 183.827 9.95068C183.408 9.95068 183.057 10.0565 182.773 10.2681C182.49 10.4797 182.348 10.7357 182.348 11.0361H181.167C181.167 10.6934 181.288 10.3633 181.529 10.0459C181.775 9.72428 182.105 9.47038 182.52 9.28418C182.938 9.09798 183.398 9.00488 183.897 9.00488C184.688 9.00488 185.308 9.20378 185.757 9.60156C186.205 9.99512 186.438 10.5389 186.455 11.2329V14.394C186.455 15.0246 186.535 15.526 186.696 15.8984V16H185.465ZM183.516 15.105C183.884 15.105 184.233 15.0098 184.563 14.8193C184.894 14.6289 185.133 14.3813 185.281 14.0767V12.6675H184.36C182.922 12.6675 182.202 13.0885 182.202 13.9307C182.202 14.2988 182.325 14.5866 182.57 14.7939C182.816 15.0013 183.131 15.105 183.516 15.105ZM189.4 9.13184L189.432 9.89355C189.936 9.30111 190.615 9.00488 191.47 9.00488C192.43 9.00488 193.084 9.37305 193.431 10.1094C193.66 9.7793 193.956 9.5127 194.32 9.30957C194.688 9.10645 195.122 9.00488 195.621 9.00488C197.128 9.00488 197.894 9.80257 197.919 11.3979V16H196.745V11.4678C196.745 10.9769 196.632 10.6108 196.408 10.3696C196.184 10.1242 195.807 10.0015 195.278 10.0015C194.842 10.0015 194.481 10.1326 194.193 10.395C193.905 10.6532 193.738 11.0023 193.691 11.4424V16H192.511V11.4995C192.511 10.5008 192.022 10.0015 191.044 10.0015C190.274 10.0015 189.747 10.3294 189.464 10.9854V16H188.29V9.13184H189.4ZM202.546 16.127C201.615 16.127 200.858 15.8223 200.274 15.2129C199.69 14.5993 199.398 13.7804 199.398 12.7563V12.5405C199.398 11.8592 199.527 11.252 199.785 10.7188C200.048 10.1813 200.411 9.76237 200.877 9.46191C201.347 9.15723 201.854 9.00488 202.4 9.00488C203.293 9.00488 203.987 9.29899 204.482 9.88721C204.978 10.4754 205.225 11.3175 205.225 12.4136V12.9023H200.572C200.589 13.5794 200.786 14.1274 201.163 14.5464C201.543 14.9611 202.026 15.1685 202.61 15.1685C203.025 15.1685 203.376 15.0838 203.664 14.9146C203.951 14.7453 204.203 14.521 204.419 14.2417L205.136 14.8003C204.561 15.6847 203.697 16.127 202.546 16.127ZM202.4 9.96973C201.926 9.96973 201.529 10.1432 201.207 10.4902C200.885 10.833 200.687 11.3154 200.61 11.9375H204.051V11.8486C204.017 11.252 203.856 10.7907 203.568 10.4648C203.281 10.1348 202.891 9.96973 202.4 9.96973Z" fill="black"/>
<path d="M38.1646 16H36.9902V9.13184H38.1646V16ZM36.895 7.31006C36.895 7.11963 36.9521 6.95882 37.0664 6.82764C37.1849 6.69645 37.3584 6.63086 37.5869 6.63086C37.8154 6.63086 37.9889 6.69645 38.1074 6.82764C38.2259 6.95882 38.2852 7.11963 38.2852 7.31006C38.2852 7.50049 38.2259 7.65918 38.1074 7.78613C37.9889 7.91309 37.8154 7.97656 37.5869 7.97656C37.3584 7.97656 37.1849 7.91309 37.0664 7.78613C36.9521 7.65918 36.895 7.50049 36.895 7.31006ZM39.7642 12.5088C39.7642 11.4551 40.0138 10.6087 40.5132 9.96973C41.0125 9.3265 41.6663 9.00488 42.4746 9.00488C43.2786 9.00488 43.9155 9.27995 44.3853 9.83008V6.25H45.5596V16H44.4805L44.4233 15.2637C43.9536 15.8392 43.2998 16.127 42.4619 16.127C41.6663 16.127 41.0168 15.8011 40.5132 15.1494C40.0138 14.4977 39.7642 13.6471 39.7642 12.5977V12.5088ZM40.9385 12.6421C40.9385 13.4207 41.0993 14.0301 41.4209 14.4702C41.7425 14.9103 42.1868 15.1304 42.7539 15.1304C43.4987 15.1304 44.0425 14.7961 44.3853 14.1274V10.9727C44.034 10.3252 43.4945 10.0015 42.7666 10.0015C42.1911 10.0015 41.7425 10.2236 41.4209 10.668C41.0993 11.1123 40.9385 11.7703 40.9385 12.6421Z" fill="black"/>
<rect x="0.5" y="21.5" width="82" height="22" fill="#6FCF97" stroke="black"/>
<rect x="82.5" y="21.5" width="149" height="22" fill="#F2F2F2" stroke="black"/>
<rect x="231.5" y="21.5" width="118" height="22" fill="#F2F2F2" stroke="black"/>
<path d="M292.333 33.5532H289.235V32.5947H292.333V33.5532Z" fill="black"/>
<path d="M125.182 32.6772C125.182 33.5828 125.03 34.3742 124.725 35.0513C124.42 35.7241 123.989 36.2383 123.43 36.5938C122.872 36.9492 122.22 37.127 121.475 37.127C120.747 37.127 120.102 36.9492 119.539 36.5938C118.976 36.234 118.538 35.7241 118.225 35.064C117.916 34.3996 117.757 33.6315 117.749 32.7598V32.0933C117.749 31.2046 117.903 30.4196 118.212 29.7383C118.521 29.057 118.957 28.5365 119.52 28.1768C120.087 27.8128 120.735 27.6309 121.462 27.6309C122.203 27.6309 122.855 27.8107 123.417 28.1704C123.985 28.5259 124.42 29.0443 124.725 29.7256C125.03 30.4027 125.182 31.1919 125.182 32.0933V32.6772ZM123.97 32.0806C123.97 30.9845 123.75 30.1445 123.31 29.5605C122.869 28.9723 122.254 28.6782 121.462 28.6782C120.692 28.6782 120.085 28.9723 119.641 29.5605C119.201 30.1445 118.974 30.957 118.961 31.998V32.6772C118.961 33.7394 119.184 34.5752 119.628 35.1846C120.076 35.7897 120.692 36.0923 121.475 36.0923C122.262 36.0923 122.872 35.8066 123.303 35.2354C123.735 34.6598 123.957 33.8368 123.97 32.7661V32.0806ZM134.12 32.6772C134.12 33.5828 133.967 34.3742 133.663 35.0513C133.358 35.7241 132.926 36.2383 132.368 36.5938C131.809 36.9492 131.157 37.127 130.413 37.127C129.685 37.127 129.039 36.9492 128.477 36.5938C127.914 36.234 127.476 35.7241 127.163 35.064C126.854 34.3996 126.695 33.6315 126.687 32.7598V32.0933C126.687 31.2046 126.841 30.4196 127.15 29.7383C127.459 29.057 127.895 28.5365 128.458 28.1768C129.025 27.8128 129.672 27.6309 130.4 27.6309C131.14 27.6309 131.792 27.8107 132.355 28.1704C132.922 28.5259 133.358 29.0443 133.663 29.7256C133.967 30.4027 134.12 31.1919 134.12 32.0933V32.6772ZM132.907 32.0806C132.907 30.9845 132.687 30.1445 132.247 29.5605C131.807 28.9723 131.191 28.6782 130.4 28.6782C129.63 28.6782 129.022 28.9723 128.578 29.5605C128.138 30.1445 127.912 30.957 127.899 31.998V32.6772C127.899 33.7394 128.121 34.5752 128.565 35.1846C129.014 35.7897 129.63 36.0923 130.413 36.0923C131.2 36.0923 131.809 35.8066 132.241 35.2354C132.672 34.6598 132.895 33.8368 132.907 32.7661V32.0806ZM143.057 32.6772C143.057 33.5828 142.905 34.3742 142.6 35.0513C142.295 35.7241 141.864 36.2383 141.305 36.5938C140.747 36.9492 140.095 37.127 139.35 37.127C138.622 37.127 137.977 36.9492 137.414 36.5938C136.851 36.234 136.413 35.7241 136.1 35.064C135.791 34.3996 135.632 33.6315 135.624 32.7598V32.0933C135.624 31.2046 135.778 30.4196 136.087 29.7383C136.396 29.057 136.832 28.5365 137.395 28.1768C137.962 27.8128 138.61 27.6309 139.337 27.6309C140.078 27.6309 140.73 27.8107 141.292 28.1704C141.86 28.5259 142.295 29.0443 142.6 29.7256C142.905 30.4027 143.057 31.1919 143.057 32.0933V32.6772ZM141.845 32.0806C141.845 30.9845 141.625 30.1445 141.185 29.5605C140.744 28.9723 140.129 28.6782 139.337 28.6782C138.567 28.6782 137.96 28.9723 137.516 29.5605C137.076 30.1445 136.849 30.957 136.836 31.998V32.6772C136.836 33.7394 137.059 34.5752 137.503 35.1846C137.951 35.7897 138.567 36.0923 139.35 36.0923C140.137 36.0923 140.747 35.8066 141.178 35.2354C141.61 34.6598 141.832 33.8368 141.845 32.7661V32.0806ZM148.802 27.1294L149.475 27.5864C149.081 28.1239 148.878 28.7036 148.865 29.3257V30.189H147.697V29.4526C147.697 29.021 147.799 28.5936 148.002 28.1704C148.209 27.7472 148.476 27.4002 148.802 27.1294ZM150.801 27.1294L151.474 27.5864C151.081 28.1239 150.877 28.7036 150.865 29.3257V30.189H149.697V29.4526C149.697 29.021 149.798 28.5936 150.001 28.1704C150.209 27.7472 150.475 27.4002 150.801 27.1294ZM157.27 28.6846H157.466C158.165 28.6888 158.801 28.8517 159.377 29.1733C159.952 29.495 160.399 29.9393 160.716 30.5063C161.038 31.0692 161.199 31.6997 161.199 32.3979C161.199 33.1004 161.038 33.7373 160.716 34.3086C160.395 34.8799 159.95 35.3263 159.383 35.6479C158.816 35.9653 158.186 36.1283 157.492 36.1367H157.27V37.3809H156.089V36.1367H155.911C155.204 36.1367 154.561 35.9759 153.981 35.6543C153.406 35.3327 152.957 34.8883 152.636 34.3213C152.318 33.7542 152.16 33.1174 152.16 32.4106C152.16 31.7039 152.318 31.0671 152.636 30.5C152.957 29.9329 153.406 29.4886 153.981 29.167C154.561 28.8454 155.204 28.6846 155.911 28.6846H156.089V27.377H157.27V28.6846ZM155.911 29.6431C155.116 29.6431 154.485 29.8885 154.02 30.3794C153.558 30.866 153.328 31.5431 153.328 32.4106C153.328 33.2824 153.558 33.9616 154.02 34.4482C154.481 34.9307 155.116 35.1719 155.924 35.1719H156.089V29.6431H155.911ZM157.27 29.6431V35.1719H157.447C158.256 35.1719 158.886 34.9243 159.339 34.4292C159.796 33.9299 160.024 33.2528 160.024 32.3979C160.024 31.5516 159.796 30.8809 159.339 30.3857C158.886 29.8906 158.247 29.6431 157.422 29.6431H157.27ZM166.994 30.1318H168.168V37H166.994V31.9917L163.827 37H162.652V30.1318H163.827V35.1465L166.994 30.1318ZM175.855 33.6421C175.855 34.6873 175.616 35.5295 175.138 36.1685C174.66 36.8075 174.013 37.127 173.196 37.127C172.362 37.127 171.706 36.8625 171.228 36.3335V39.6406H170.054V30.1318H171.126L171.184 30.8936C171.662 30.3011 172.326 30.0049 173.177 30.0049C174.002 30.0049 174.654 30.3159 175.132 30.938C175.614 31.5601 175.855 32.4255 175.855 33.5342V33.6421ZM174.681 33.5088C174.681 32.7344 174.516 32.1229 174.186 31.6743C173.856 31.2257 173.403 31.0015 172.828 31.0015C172.117 31.0015 171.583 31.3167 171.228 31.9473V35.229C171.579 35.8553 172.117 36.1685 172.84 36.1685C173.403 36.1685 173.85 35.9463 174.18 35.502C174.514 35.0534 174.681 34.389 174.681 33.5088ZM181.308 35.4448L183.644 30.1318H185.11V37H183.936V32.0044L181.714 37H180.902L178.636 31.8965V37H177.461V30.1318H178.985L181.308 35.4448ZM191.242 37C191.174 36.8646 191.119 36.6234 191.077 36.2764C190.531 36.8434 189.88 37.127 189.122 37.127C188.445 37.127 187.889 36.9365 187.453 36.5557C187.021 36.1706 186.805 35.6839 186.805 35.0957C186.805 34.3805 187.076 33.8262 187.618 33.4326C188.164 33.0348 188.93 32.8359 189.916 32.8359H191.058V32.2964C191.058 31.8859 190.935 31.5601 190.69 31.3188C190.444 31.0734 190.083 30.9507 189.604 30.9507C189.186 30.9507 188.834 31.0565 188.551 31.2681C188.267 31.4797 188.125 31.7357 188.125 32.0361H186.945C186.945 31.6934 187.065 31.3633 187.307 31.0459C187.552 30.7243 187.882 30.4704 188.297 30.2842C188.716 30.098 189.175 30.0049 189.674 30.0049C190.466 30.0049 191.086 30.2038 191.534 30.6016C191.983 30.9951 192.215 31.5389 192.232 32.2329V35.394C192.232 36.0246 192.313 36.526 192.474 36.8984V37H191.242ZM189.293 36.105C189.662 36.105 190.011 36.0098 190.341 35.8193C190.671 35.6289 190.91 35.3813 191.058 35.0767V33.6675H190.138C188.699 33.6675 187.979 34.0885 187.979 34.9307C187.979 35.2988 188.102 35.5866 188.348 35.7939C188.593 36.0013 188.908 36.105 189.293 36.105ZM193.8 30.3604L193.134 29.9033C193.527 29.3532 193.73 28.7734 193.743 28.1641V27.25H194.905V28.0752C194.901 28.4984 194.795 28.9215 194.587 29.3447C194.384 29.7637 194.122 30.1022 193.8 30.3604ZM195.749 30.3604L195.083 29.9033C195.476 29.3532 195.679 28.7734 195.692 28.1641V27.25H196.854V28.0752C196.849 28.4984 196.743 28.9215 196.536 29.3447C196.333 29.7637 196.071 30.1022 195.749 30.3604Z" fill="black"/>
<path d="M42.6274 37H41.4468V29.1733L39.0791 30.043V28.9766L42.4434 27.7134H42.6274V37Z" fill="black"/>
<rect x="15.5" y="50.5" width="82" height="22" fill="#F2F2F2" stroke="black"/>
<rect x="97.5" y="50.5" width="149" height="22" fill="#F2F2F2" stroke="black"/>
<rect x="246.5" y="50.5" width="118" height="22" fill="#6FCF97" stroke="black"/>
<path d="M308.627 66H307.447V58.1733L305.079 59.043V57.9766L308.443 56.7134H308.627V66Z" fill="black"/>
<path d="M134.292 62.3818V66H133.073V56.7578H136.481C137.493 56.7578 138.284 57.016 138.855 57.5322C139.431 58.0485 139.719 58.7319 139.719 59.5825C139.719 60.4797 139.437 61.1715 138.875 61.6582C138.316 62.1406 137.514 62.3818 136.469 62.3818H134.292ZM134.292 61.3853H136.481C137.133 61.3853 137.632 61.2329 137.979 60.9282C138.326 60.6193 138.5 60.175 138.5 59.5952C138.5 59.0451 138.326 58.605 137.979 58.2749C137.632 57.9448 137.156 57.7734 136.551 57.7607H134.292V61.3853ZM143.438 64.2798L145.038 59.1318H146.295L143.534 67.0601C143.106 68.2026 142.427 68.7739 141.496 68.7739L141.274 68.7549L140.836 68.6724V67.7202L141.153 67.7456C141.551 67.7456 141.86 67.6652 142.08 67.5044C142.304 67.3436 142.488 67.0495 142.632 66.6221L142.893 65.9238L140.442 59.1318H141.725L143.438 64.2798ZM149.488 63.0737H148.631V66H147.45V59.1318H148.631V62.0391H149.399L151.709 59.1318H153.131L150.415 62.4326L153.36 66H151.868L149.488 63.0737ZM153.918 62.5024C153.918 61.8296 154.05 61.2244 154.312 60.687C154.579 60.1496 154.947 59.7349 155.417 59.4429C155.89 59.1509 156.43 59.0049 157.035 59.0049C157.97 59.0049 158.726 59.3286 159.301 59.9761C159.881 60.6235 160.171 61.4847 160.171 62.5596V62.6421C160.171 63.3107 160.042 63.9116 159.784 64.4448C159.53 64.9738 159.164 65.3864 158.686 65.6826C158.212 65.9788 157.666 66.127 157.048 66.127C156.117 66.127 155.361 65.8032 154.782 65.1558C154.206 64.5083 153.918 63.6514 153.918 62.585V62.5024ZM155.099 62.6421C155.099 63.4038 155.275 64.0153 155.626 64.4766C155.981 64.9378 156.455 65.1685 157.048 65.1685C157.645 65.1685 158.118 64.9357 158.47 64.4702C158.821 64.0005 158.997 63.3446 158.997 62.5024C158.997 61.7492 158.817 61.1398 158.457 60.6743C158.102 60.2046 157.628 59.9697 157.035 59.9697C156.455 59.9697 155.988 60.2004 155.632 60.6616C155.277 61.1229 155.099 61.783 155.099 62.6421ZM161.751 66V59.1318H164.43C165.344 59.1318 166.045 59.2926 166.531 59.6143C167.022 59.9316 167.268 60.3993 167.268 61.0171C167.268 61.3345 167.172 61.6222 166.982 61.8804C166.792 62.1343 166.51 62.3289 166.138 62.4644C166.552 62.5617 166.885 62.7521 167.134 63.0356C167.388 63.3192 167.515 63.6577 167.515 64.0513C167.515 64.6818 167.282 65.1642 166.817 65.4985C166.356 65.8328 165.702 66 164.855 66H161.751ZM162.926 62.9849V65.0542H164.868C165.359 65.0542 165.725 64.9632 165.966 64.7812C166.212 64.5993 166.334 64.3433 166.334 64.0132C166.334 63.3276 165.831 62.9849 164.824 62.9849H162.926ZM162.926 62.0454H164.443C165.543 62.0454 166.093 61.7238 166.093 61.0806C166.093 60.4373 165.573 60.1051 164.532 60.084H162.926V62.0454ZM168.759 62.5024C168.759 61.8296 168.89 61.2244 169.153 60.687C169.419 60.1496 169.788 59.7349 170.257 59.4429C170.731 59.1509 171.271 59.0049 171.876 59.0049C172.811 59.0049 173.567 59.3286 174.142 59.9761C174.722 60.6235 175.012 61.4847 175.012 62.5596V62.6421C175.012 63.3107 174.883 63.9116 174.625 64.4448C174.371 64.9738 174.005 65.3864 173.526 65.6826C173.052 65.9788 172.507 66.127 171.889 66.127C170.958 66.127 170.202 65.8032 169.623 65.1558C169.047 64.5083 168.759 63.6514 168.759 62.585V62.5024ZM169.94 62.6421C169.94 63.4038 170.116 64.0153 170.467 64.4766C170.822 64.9378 171.296 65.1685 171.889 65.1685C172.485 65.1685 172.959 64.9357 173.311 64.4702C173.662 64.0005 173.837 63.3446 173.837 62.5024C173.837 61.7492 173.658 61.1398 173.298 60.6743C172.942 60.2046 172.468 59.9697 171.876 59.9697C171.296 59.9697 170.829 60.2004 170.473 60.6616C170.118 61.1229 169.94 61.783 169.94 62.6421ZM175.97 65.0415L176.376 64.54C176.833 63.9476 177.094 63.0589 177.157 61.874L177.265 59.1318H181.689V65.0415H182.572V68.0186H181.397V66H176.605V68.0186H175.431L175.437 65.0415H175.97ZM177.36 65.0415H180.515V60.2173H178.401L178.332 61.855C178.26 63.2218 177.936 64.284 177.36 65.0415ZM186.628 65.1685C187.047 65.1685 187.413 65.0415 187.726 64.7876C188.039 64.5337 188.213 64.2163 188.247 63.8354H189.357C189.336 64.229 189.201 64.6035 188.951 64.959C188.701 65.3145 188.367 65.598 187.948 65.8096C187.534 66.0212 187.093 66.127 186.628 66.127C185.693 66.127 184.948 65.8159 184.394 65.1938C183.843 64.5675 183.568 63.7127 183.568 62.6294V62.4326C183.568 61.764 183.691 61.1694 183.937 60.6489C184.182 60.1284 184.533 59.7243 184.99 59.4365C185.451 59.1488 185.995 59.0049 186.622 59.0049C187.392 59.0049 188.031 59.2355 188.539 59.6968C189.051 60.158 189.324 60.7568 189.357 61.4932H188.247C188.213 61.0488 188.043 60.6849 187.739 60.4014C187.438 60.1136 187.066 59.9697 186.622 59.9697C186.025 59.9697 185.562 60.1855 185.231 60.6172C184.906 61.0446 184.743 61.6646 184.743 62.4771V62.6992C184.743 63.4906 184.906 64.0999 185.231 64.5273C185.557 64.9548 186.023 65.1685 186.628 65.1685ZM195.781 60.084H193.477V66H192.303V60.084H190.043V59.1318H195.781V60.084ZM197.032 66V59.1318H199.71C200.625 59.1318 201.325 59.2926 201.812 59.6143C202.302 59.9316 202.548 60.3993 202.548 61.0171C202.548 61.3345 202.453 61.6222 202.262 61.8804C202.072 62.1343 201.79 62.3289 201.418 62.4644C201.833 62.5617 202.165 62.7521 202.415 63.0356C202.668 63.3192 202.795 63.6577 202.795 64.0513C202.795 64.6818 202.563 65.1642 202.097 65.4985C201.636 65.8328 200.982 66 200.136 66H197.032ZM198.206 62.9849V65.0542H200.148C200.639 65.0542 201.005 64.9632 201.247 64.7812C201.492 64.5993 201.615 64.3433 201.615 64.0132C201.615 63.3276 201.111 62.9849 200.104 62.9849H198.206ZM198.206 62.0454H199.723C200.823 62.0454 201.374 61.7238 201.374 61.0806C201.374 60.4373 200.853 60.1051 199.812 60.084H198.206V62.0454ZM204.04 62.5024C204.04 61.8296 204.171 61.2244 204.433 60.687C204.7 60.1496 205.068 59.7349 205.538 59.4429C206.012 59.1509 206.551 59.0049 207.156 59.0049C208.091 59.0049 208.847 59.3286 209.422 59.9761C210.002 60.6235 210.292 61.4847 210.292 62.5596V62.6421C210.292 63.3107 210.163 63.9116 209.905 64.4448C209.651 64.9738 209.285 65.3864 208.807 65.6826C208.333 65.9788 207.787 66.127 207.169 66.127C206.238 66.127 205.483 65.8032 204.903 65.1558C204.327 64.5083 204.04 63.6514 204.04 62.585V62.5024ZM205.22 62.6421C205.22 63.4038 205.396 64.0153 205.747 64.4766C206.103 64.9378 206.576 65.1685 207.169 65.1685C207.766 65.1685 208.24 64.9357 208.591 64.4702C208.942 64.0005 209.118 63.3446 209.118 62.5024C209.118 61.7492 208.938 61.1398 208.578 60.6743C208.223 60.2046 207.749 59.9697 207.156 59.9697C206.576 59.9697 206.109 60.2004 205.753 60.6616C205.398 61.1229 205.22 61.783 205.22 62.6421Z" fill="black"/>
<path d="M59.8237 66H53.7681V65.1558L56.9673 61.6011C57.4412 61.0636 57.7671 60.6278 57.9448 60.2935C58.1268 59.9549 58.2178 59.6058 58.2178 59.2461C58.2178 58.7637 58.0718 58.368 57.7798 58.0591C57.4878 57.7502 57.0985 57.5957 56.6118 57.5957C56.0278 57.5957 55.5729 57.7629 55.2471 58.0972C54.9255 58.4272 54.7646 58.8885 54.7646 59.481H53.5903C53.5903 58.6304 53.8633 57.9427 54.4092 57.418C54.9593 56.8932 55.6935 56.6309 56.6118 56.6309C57.4709 56.6309 58.1501 56.8573 58.6494 57.3101C59.1488 57.7586 59.3984 58.3574 59.3984 59.1064C59.3984 60.0163 58.8187 61.0996 57.6592 62.3564L55.1836 65.0415H59.8237V66Z" fill="black"/>
<rect x="15.5" y="79.5" width="82" height="22" fill="#56CCF2" stroke="black"/>
<rect x="97.5" y="79.5" width="149" height="22" fill="#F2F2F2" stroke="black"/>
<rect x="246.5" y="79.5" width="118" height="22" fill="#6FCF97" stroke="black"/>
<path d="M308.627 95H307.447V87.1733L305.079 88.043V86.9766L308.443 85.7134H308.627V95Z" fill="black"/>
<path d="M140.182 90.6772C140.182 91.5828 140.03 92.3742 139.725 93.0513C139.42 93.7241 138.989 94.2383 138.43 94.5938C137.872 94.9492 137.22 95.127 136.475 95.127C135.747 95.127 135.102 94.9492 134.539 94.5938C133.976 94.234 133.538 93.7241 133.225 93.064C132.916 92.3996 132.757 91.6315 132.749 90.7598V90.0933C132.749 89.2046 132.903 88.4196 133.212 87.7383C133.521 87.057 133.957 86.5365 134.52 86.1768C135.087 85.8128 135.735 85.6309 136.462 85.6309C137.203 85.6309 137.855 85.8107 138.417 86.1704C138.985 86.5259 139.42 87.0443 139.725 87.7256C140.03 88.4027 140.182 89.1919 140.182 90.0933V90.6772ZM138.97 90.0806C138.97 88.9845 138.75 88.1445 138.31 87.5605C137.869 86.9723 137.254 86.6782 136.462 86.6782C135.692 86.6782 135.085 86.9723 134.641 87.5605C134.201 88.1445 133.974 88.957 133.961 89.998V90.6772C133.961 91.7394 134.184 92.5752 134.628 93.1846C135.076 93.7897 135.692 94.0923 136.475 94.0923C137.262 94.0923 137.872 93.8066 138.303 93.2354C138.735 92.6598 138.957 91.8368 138.97 90.7661V90.0806ZM146.93 89.084H144.625V95H143.451V89.084H141.191V88.1318H146.93V89.084ZM147.469 94.0415L147.875 93.54C148.333 92.9476 148.593 92.0589 148.656 90.874L148.764 88.1318H153.188V94.0415H154.071V97.0186H152.896V95H148.104V97.0186H146.93L146.936 94.0415H147.469ZM148.859 94.0415H152.014V89.2173H149.9L149.831 90.855C149.759 92.2218 149.435 93.284 148.859 94.0415ZM158.222 95.127C157.291 95.127 156.534 94.8223 155.95 94.2129C155.366 93.5993 155.074 92.7804 155.074 91.7563V91.5405C155.074 90.8592 155.203 90.252 155.461 89.7188C155.723 89.1813 156.087 88.7624 156.553 88.4619C157.022 88.1572 157.53 88.0049 158.076 88.0049C158.969 88.0049 159.663 88.299 160.158 88.8872C160.653 89.4754 160.901 90.3175 160.901 91.4136V91.9023H156.248C156.265 92.5794 156.462 93.1274 156.838 93.5464C157.219 93.9611 157.702 94.1685 158.286 94.1685C158.7 94.1685 159.052 94.0838 159.339 93.9146C159.627 93.7453 159.879 93.521 160.095 93.2417L160.812 93.8003C160.236 94.6847 159.373 95.127 158.222 95.127ZM158.076 88.9697C157.602 88.9697 157.204 89.1432 156.883 89.4902C156.561 89.833 156.362 90.3154 156.286 90.9375H159.727V90.8486C159.693 90.252 159.532 89.7907 159.244 89.4648C158.956 89.1348 158.567 88.9697 158.076 88.9697ZM167.896 88.1318V95H166.715V89.103H164.379L164.24 91.6738C164.164 92.8545 163.965 93.6987 163.643 94.2065C163.326 94.7144 162.82 94.9788 162.126 95H161.656V93.9653L161.993 93.9399C162.374 93.8976 162.646 93.6776 162.812 93.2798C162.977 92.882 163.082 92.1457 163.129 91.0708L163.256 88.1318H167.896ZM178.624 95H177.449V89.103H174.288V95H173.107V88.1318H178.624V95ZM186.311 91.6421C186.311 92.6873 186.071 93.5295 185.593 94.1685C185.115 94.8075 184.468 95.127 183.651 95.127C182.817 95.127 182.161 94.8625 181.683 94.3335V97.6406H180.509V88.1318H181.582L181.639 88.8936C182.117 88.3011 182.781 88.0049 183.632 88.0049C184.457 88.0049 185.109 88.3159 185.587 88.938C186.069 89.5601 186.311 90.4255 186.311 91.5342V91.6421ZM185.136 91.5088C185.136 90.7344 184.971 90.1229 184.641 89.6743C184.311 89.2257 183.858 89.0015 183.283 89.0015C182.572 89.0015 182.039 89.3167 181.683 89.9473V93.229C182.034 93.8553 182.572 94.1685 183.295 94.1685C183.858 94.1685 184.305 93.9463 184.635 93.502C184.969 93.0534 185.136 92.389 185.136 91.5088ZM187.498 91.5024C187.498 90.8296 187.629 90.2244 187.891 89.687C188.158 89.1496 188.526 88.7349 188.996 88.4429C189.47 88.1509 190.009 88.0049 190.614 88.0049C191.549 88.0049 192.305 88.3286 192.88 88.9761C193.46 89.6235 193.75 90.4847 193.75 91.5596V91.6421C193.75 92.3107 193.621 92.9116 193.363 93.4448C193.109 93.9738 192.743 94.3864 192.265 94.6826C191.791 94.9788 191.245 95.127 190.627 95.127C189.696 95.127 188.941 94.8032 188.361 94.1558C187.785 93.5083 187.498 92.6514 187.498 91.585V91.5024ZM188.678 91.6421C188.678 92.4038 188.854 93.0153 189.205 93.4766C189.561 93.9378 190.035 94.1685 190.627 94.1685C191.224 94.1685 191.698 93.9357 192.049 93.4702C192.4 93.0005 192.576 92.3446 192.576 91.5024C192.576 90.7492 192.396 90.1398 192.036 89.6743C191.681 89.2046 191.207 88.9697 190.614 88.9697C190.035 88.9697 189.567 89.2004 189.211 89.6616C188.856 90.1229 188.678 90.783 188.678 91.6421ZM194.708 94.0415L195.115 93.54C195.572 92.9476 195.832 92.0589 195.896 90.874L196.003 88.1318H200.428V94.0415H201.31V97.0186H200.136V95H195.343V97.0186H194.169L194.175 94.0415H194.708ZM196.099 94.0415H199.253V89.2173H197.14L197.07 90.855C196.998 92.2218 196.674 93.284 196.099 94.0415ZM206.852 95C206.784 94.8646 206.729 94.6234 206.687 94.2764C206.141 94.8434 205.489 95.127 204.731 95.127C204.054 95.127 203.498 94.9365 203.062 94.5557C202.63 94.1706 202.415 93.6839 202.415 93.0957C202.415 92.3805 202.685 91.8262 203.227 91.4326C203.773 91.0348 204.539 90.8359 205.525 90.8359H206.667V90.2964C206.667 89.8859 206.545 89.5601 206.299 89.3188C206.054 89.0734 205.692 88.9507 205.214 88.9507C204.795 88.9507 204.444 89.0565 204.16 89.2681C203.877 89.4797 203.735 89.7357 203.735 90.0361H202.554C202.554 89.6934 202.675 89.3633 202.916 89.0459C203.161 88.7243 203.492 88.4704 203.906 88.2842C204.325 88.098 204.784 88.0049 205.284 88.0049C206.075 88.0049 206.695 88.2038 207.144 88.6016C207.592 88.9951 207.825 89.5389 207.842 90.2329V93.394C207.842 94.0246 207.922 94.526 208.083 94.8984V95H206.852ZM204.903 94.105C205.271 94.105 205.62 94.0098 205.95 93.8193C206.28 93.6289 206.519 93.3813 206.667 93.0767V91.6675H205.747C204.308 91.6675 203.589 92.0885 203.589 92.9307C203.589 93.2988 203.712 93.5866 203.957 93.7939C204.202 94.0013 204.518 94.105 204.903 94.105ZM215.161 92.0166H214.335V95H213.161V92.0166H212.336L210.413 95H208.927L211.384 91.4453L209.162 88.1318H210.584L212.355 90.9756H213.161V88.1318H214.335V90.9756H215.135L216.919 88.1318H218.341L216.113 91.4517L218.569 95H217.084L215.161 92.0166Z" fill="black"/>
<path d="M55.4756 89.8076H56.3579C56.9123 89.7992 57.3481 89.6532 57.6655 89.3696C57.9829 89.0861 58.1416 88.7031 58.1416 88.2207C58.1416 87.1374 57.6021 86.5957 56.5229 86.5957C56.0151 86.5957 55.6089 86.7417 55.3042 87.0337C55.0037 87.3215 54.8535 87.7044 54.8535 88.1826H53.6792C53.6792 87.4505 53.9458 86.8433 54.479 86.3608C55.0164 85.8742 55.6978 85.6309 56.5229 85.6309C57.3947 85.6309 58.0781 85.8615 58.5732 86.3228C59.0684 86.784 59.3159 87.4251 59.3159 88.2461C59.3159 88.6481 59.1847 89.0374 58.9224 89.4141C58.6642 89.7907 58.3109 90.0721 57.8623 90.2583C58.3701 90.4191 58.7616 90.6857 59.0366 91.0581C59.3159 91.4305 59.4556 91.8854 59.4556 92.4229C59.4556 93.2523 59.1847 93.9103 58.6431 94.397C58.1014 94.8836 57.3968 95.127 56.5293 95.127C55.6618 95.127 54.9551 94.8921 54.4092 94.4224C53.8675 93.9526 53.5967 93.3327 53.5967 92.5625H54.7773C54.7773 93.0492 54.936 93.4385 55.2534 93.7305C55.5708 94.0225 55.9961 94.1685 56.5293 94.1685C57.0964 94.1685 57.5301 94.0203 57.8306 93.7241C58.131 93.4279 58.2812 93.0026 58.2812 92.4482C58.2812 91.9108 58.1162 91.4982 57.7861 91.2104C57.4561 90.9227 56.98 90.7746 56.3579 90.7661H55.4756V89.8076Z" fill="black"/>
<rect x="30.5" y="108.5" width="82" height="22" fill="#F2F2F2" stroke="black"/>
<rect x="112.5" y="108.5" width="149" height="22" fill="#F2F2F2" stroke="black"/>
<rect x="261.5" y="108.5" width="118" height="22" fill="#56CCF2" stroke="black"/>
<path d="M321.476 118.808H322.358C322.912 118.799 323.348 118.653 323.666 118.37C323.983 118.086 324.142 117.703 324.142 117.221C324.142 116.137 323.602 115.596 322.523 115.596C322.015 115.596 321.609 115.742 321.304 116.034C321.004 116.321 320.854 116.704 320.854 117.183H319.679C319.679 116.451 319.946 115.843 320.479 115.361C321.016 114.874 321.698 114.631 322.523 114.631C323.395 114.631 324.078 114.861 324.573 115.323C325.068 115.784 325.316 116.425 325.316 117.246C325.316 117.648 325.185 118.037 324.922 118.414C324.664 118.791 324.311 119.072 323.862 119.258C324.37 119.419 324.762 119.686 325.037 120.058C325.316 120.431 325.456 120.885 325.456 121.423C325.456 122.252 325.185 122.91 324.643 123.397C324.101 123.884 323.397 124.127 322.529 124.127C321.662 124.127 320.955 123.892 320.409 123.422C319.868 122.953 319.597 122.333 319.597 121.562H320.777C320.777 122.049 320.936 122.438 321.253 122.73C321.571 123.022 321.996 123.168 322.529 123.168C323.096 123.168 323.53 123.02 323.831 122.724C324.131 122.428 324.281 122.003 324.281 121.448C324.281 120.911 324.116 120.498 323.786 120.21C323.456 119.923 322.98 119.775 322.358 119.766H321.476V118.808Z" fill="black"/>
<path d="M140.182 119.677C140.182 120.583 140.03 121.374 139.725 122.051C139.42 122.724 138.989 123.238 138.43 123.594C137.872 123.949 137.22 124.127 136.475 124.127C135.747 124.127 135.102 123.949 134.539 123.594C133.976 123.234 133.538 122.724 133.225 122.064C132.916 121.4 132.757 120.632 132.749 119.76V119.093C132.749 118.205 132.903 117.42 133.212 116.738C133.521 116.057 133.957 115.536 134.52 115.177C135.087 114.813 135.735 114.631 136.462 114.631C137.203 114.631 137.855 114.811 138.417 115.17C138.985 115.526 139.42 116.044 139.725 116.726C140.03 117.403 140.182 118.192 140.182 119.093V119.677ZM138.97 119.081C138.97 117.985 138.75 117.145 138.31 116.561C137.869 115.972 137.254 115.678 136.462 115.678C135.692 115.678 135.085 115.972 134.641 116.561C134.201 117.145 133.974 117.957 133.961 118.998V119.677C133.961 120.739 134.184 121.575 134.628 122.185C135.076 122.79 135.692 123.092 136.475 123.092C137.262 123.092 137.872 122.807 138.303 122.235C138.735 121.66 138.957 120.837 138.97 119.766V119.081ZM146.93 118.084H144.625V124H143.451V118.084H141.191V117.132H146.93V118.084ZM147.469 123.042L147.875 122.54C148.333 121.948 148.593 121.059 148.656 119.874L148.764 117.132H153.188V123.042H154.071V126.019H152.896V124H148.104V126.019H146.93L146.936 123.042H147.469ZM148.859 123.042H152.014V118.217H149.9L149.831 119.855C149.759 121.222 149.435 122.284 148.859 123.042ZM155.397 123.384C155.397 123.181 155.457 123.012 155.575 122.876C155.698 122.741 155.88 122.673 156.121 122.673C156.362 122.673 156.544 122.741 156.667 122.876C156.794 123.012 156.857 123.181 156.857 123.384C156.857 123.579 156.794 123.742 156.667 123.873C156.544 124.004 156.362 124.07 156.121 124.07C155.88 124.07 155.698 124.004 155.575 123.873C155.457 123.742 155.397 123.579 155.397 123.384ZM167.642 124H166.468V118.103H163.307V124H162.126V117.132H167.642V124ZM175.329 120.642C175.329 121.687 175.09 122.529 174.612 123.168C174.134 123.807 173.486 124.127 172.669 124.127C171.836 124.127 171.18 123.862 170.702 123.333V126.641H169.527V117.132H170.6L170.657 117.894C171.135 117.301 171.8 117.005 172.65 117.005C173.476 117.005 174.127 117.316 174.605 117.938C175.088 118.56 175.329 119.425 175.329 120.534V120.642ZM174.155 120.509C174.155 119.734 173.99 119.123 173.66 118.674C173.33 118.226 172.877 118.001 172.301 118.001C171.59 118.001 171.057 118.317 170.702 118.947V122.229C171.053 122.855 171.59 123.168 172.314 123.168C172.877 123.168 173.323 122.946 173.653 122.502C173.988 122.053 174.155 121.389 174.155 120.509ZM176.516 120.502C176.516 119.83 176.647 119.224 176.91 118.687C177.176 118.15 177.544 117.735 178.014 117.443C178.488 117.151 179.028 117.005 179.633 117.005C180.568 117.005 181.323 117.329 181.899 117.976C182.479 118.624 182.769 119.485 182.769 120.56V120.642C182.769 121.311 182.639 121.912 182.381 122.445C182.127 122.974 181.761 123.386 181.283 123.683C180.809 123.979 180.263 124.127 179.646 124.127C178.715 124.127 177.959 123.803 177.379 123.156C176.804 122.508 176.516 121.651 176.516 120.585V120.502ZM177.697 120.642C177.697 121.404 177.872 122.015 178.224 122.477C178.579 122.938 179.053 123.168 179.646 123.168C180.242 123.168 180.716 122.936 181.067 122.47C181.419 122 181.594 121.345 181.594 120.502C181.594 119.749 181.414 119.14 181.055 118.674C180.699 118.205 180.225 117.97 179.633 117.97C179.053 117.97 178.585 118.2 178.23 118.662C177.875 119.123 177.697 119.783 177.697 120.642ZM183.727 123.042L184.133 122.54C184.59 121.948 184.851 121.059 184.914 119.874L185.022 117.132H189.446V123.042H190.329V126.019H189.154V124H184.362V126.019H183.188L183.194 123.042H183.727ZM185.117 123.042H188.272V118.217H186.158L186.088 119.855C186.016 121.222 185.693 122.284 185.117 123.042ZM195.87 124C195.802 123.865 195.747 123.623 195.705 123.276C195.159 123.843 194.507 124.127 193.75 124.127C193.073 124.127 192.516 123.937 192.081 123.556C191.649 123.171 191.433 122.684 191.433 122.096C191.433 121.381 191.704 120.826 192.246 120.433C192.792 120.035 193.557 119.836 194.543 119.836H195.686V119.296C195.686 118.886 195.563 118.56 195.318 118.319C195.072 118.073 194.711 117.951 194.232 117.951C193.813 117.951 193.462 118.056 193.179 118.268C192.895 118.48 192.753 118.736 192.753 119.036H191.573C191.573 118.693 191.693 118.363 191.935 118.046C192.18 117.724 192.51 117.47 192.925 117.284C193.344 117.098 193.803 117.005 194.302 117.005C195.094 117.005 195.714 117.204 196.162 117.602C196.611 117.995 196.843 118.539 196.86 119.233V122.394C196.86 123.025 196.941 123.526 197.102 123.898V124H195.87ZM193.921 123.105C194.29 123.105 194.639 123.01 194.969 122.819C195.299 122.629 195.538 122.381 195.686 122.077V120.667H194.766C193.327 120.667 192.607 121.089 192.607 121.931C192.607 122.299 192.73 122.587 192.976 122.794C193.221 123.001 193.536 123.105 193.921 123.105ZM204.179 121.017H203.354V124H202.18V121.017H201.354L199.431 124H197.946L200.402 120.445L198.181 117.132H199.603L201.374 119.976H202.18V117.132H203.354V119.976H204.154L205.938 117.132H207.359L205.131 120.452L207.588 124H206.103L204.179 121.017ZM208.61 120.249C208.61 119.292 208.737 118.374 208.991 117.494C209.249 116.613 209.632 115.814 210.14 115.094C210.647 114.375 211.174 113.867 211.72 113.571L211.961 114.345C211.344 114.819 210.836 115.543 210.438 116.516C210.044 117.489 209.829 118.579 209.791 119.785L209.784 120.325C209.784 121.958 210.083 123.376 210.679 124.578C211.039 125.297 211.466 125.86 211.961 126.266L211.72 126.983C211.157 126.67 210.62 126.146 210.108 125.409C209.109 123.97 208.61 122.25 208.61 120.249ZM220.08 121.067C219.966 122.045 219.604 122.8 218.995 123.333C218.389 123.862 217.583 124.127 216.576 124.127C215.484 124.127 214.608 123.736 213.948 122.953C213.292 122.17 212.964 121.122 212.964 119.811V118.922C212.964 118.063 213.117 117.307 213.421 116.656C213.73 116.004 214.166 115.505 214.729 115.158C215.292 114.806 215.944 114.631 216.684 114.631C217.666 114.631 218.453 114.906 219.045 115.456C219.638 116.002 219.983 116.759 220.08 117.729H218.855C218.749 116.992 218.519 116.459 218.163 116.129C217.812 115.799 217.319 115.634 216.684 115.634C215.905 115.634 215.294 115.922 214.85 116.497C214.41 117.073 214.189 117.891 214.189 118.954V119.849C214.189 120.852 214.399 121.649 214.818 122.242C215.237 122.834 215.823 123.13 216.576 123.13C217.253 123.13 217.772 122.978 218.131 122.673C218.495 122.364 218.736 121.829 218.855 121.067H220.08ZM228.853 124H227.627V119.728H222.968V124H221.75V114.758H222.968V118.731H227.627V114.758H228.853V124ZM236.749 115.761H232.293V124H231.068V114.758H236.749V115.761ZM240.78 120.312C240.78 121.256 240.655 122.161 240.405 123.029C240.16 123.892 239.781 124.69 239.269 125.422C238.761 126.154 238.228 126.674 237.669 126.983L237.422 126.266C238.074 125.767 238.596 124.992 238.99 123.943C239.388 122.889 239.591 121.721 239.599 120.439V120.236C239.599 119.347 239.506 118.522 239.32 117.76C239.134 116.994 238.873 116.309 238.539 115.704C238.209 115.098 237.837 114.627 237.422 114.288L237.669 113.571C238.228 113.88 238.759 114.396 239.263 115.12C239.771 115.843 240.149 116.641 240.399 117.513C240.653 118.384 240.78 119.318 240.78 120.312Z" fill="black"/>
<path d="M73.7256 120.896H75.0078V121.854H73.7256V124H72.5449V121.854H68.3364V121.163L72.4751 114.758H73.7256V120.896ZM69.6694 120.896H72.5449V116.364L72.4053 116.618L69.6694 120.896Z" fill="black"/>
<rect x="30.5" y="137.5" width="82" height="22" fill="#F2F2F2" stroke="black"/>
<rect x="112.5" y="137.5" width="149" height="22" fill="#F2F2F2" stroke="black"/>
<rect x="261.5" y="137.5" width="118" height="22" fill="#56CCF2" stroke="black"/>
<path d="M321.476 147.808H322.358C322.912 147.799 323.348 147.653 323.666 147.37C323.983 147.086 324.142 146.703 324.142 146.221C324.142 145.137 323.602 144.596 322.523 144.596C322.015 144.596 321.609 144.742 321.304 145.034C321.004 145.321 320.854 145.704 320.854 146.183H319.679C319.679 145.451 319.946 144.843 320.479 144.361C321.016 143.874 321.698 143.631 322.523 143.631C323.395 143.631 324.078 143.861 324.573 144.323C325.068 144.784 325.316 145.425 325.316 146.246C325.316 146.648 325.185 147.037 324.922 147.414C324.664 147.791 324.311 148.072 323.862 148.258C324.37 148.419 324.762 148.686 325.037 149.058C325.316 149.431 325.456 149.885 325.456 150.423C325.456 151.252 325.185 151.91 324.643 152.397C324.101 152.884 323.397 153.127 322.529 153.127C321.662 153.127 320.955 152.892 320.409 152.422C319.868 151.953 319.597 151.333 319.597 150.562H320.777C320.777 151.049 320.936 151.438 321.253 151.73C321.571 152.022 321.996 152.168 322.529 152.168C323.096 152.168 323.53 152.02 323.831 151.724C324.131 151.428 324.281 151.003 324.281 150.448C324.281 149.911 324.116 149.498 323.786 149.21C323.456 148.923 322.98 148.775 322.358 148.766H321.476V147.808Z" fill="black"/>
<path d="M131.182 148.677C131.182 149.583 131.03 150.374 130.725 151.051C130.42 151.724 129.989 152.238 129.43 152.594C128.872 152.949 128.22 153.127 127.475 153.127C126.747 153.127 126.102 152.949 125.539 152.594C124.976 152.234 124.538 151.724 124.225 151.064C123.916 150.4 123.757 149.632 123.749 148.76V148.093C123.749 147.205 123.903 146.42 124.212 145.738C124.521 145.057 124.957 144.536 125.52 144.177C126.087 143.813 126.735 143.631 127.462 143.631C128.203 143.631 128.855 143.811 129.417 144.17C129.985 144.526 130.42 145.044 130.725 145.726C131.03 146.403 131.182 147.192 131.182 148.093V148.677ZM129.97 148.081C129.97 146.985 129.75 146.145 129.31 145.561C128.869 144.972 128.254 144.678 127.462 144.678C126.692 144.678 126.085 144.972 125.641 145.561C125.201 146.145 124.974 146.957 124.961 147.998V148.677C124.961 149.739 125.184 150.575 125.628 151.185C126.076 151.79 126.692 152.092 127.475 152.092C128.262 152.092 128.872 151.807 129.303 151.235C129.735 150.66 129.957 149.837 129.97 148.766V148.081ZM137.93 147.084H135.625V153H134.451V147.084H132.191V146.132H137.93V147.084ZM138.469 152.042L138.875 151.54C139.333 150.948 139.593 150.059 139.656 148.874L139.764 146.132H144.188V152.042H145.071V155.019H143.896V153H139.104V155.019H137.93L137.936 152.042H138.469ZM139.859 152.042H143.014V147.217H140.9L140.831 148.855C140.759 150.222 140.435 151.284 139.859 152.042ZM146.397 152.384C146.397 152.181 146.457 152.012 146.575 151.876C146.698 151.741 146.88 151.673 147.121 151.673C147.362 151.673 147.544 151.741 147.667 151.876C147.794 152.012 147.857 152.181 147.857 152.384C147.857 152.579 147.794 152.742 147.667 152.873C147.544 153.004 147.362 153.07 147.121 153.07C146.88 153.07 146.698 153.004 146.575 152.873C146.457 152.742 146.397 152.579 146.397 152.384ZM158.642 153H157.468V147.103H154.307V153H153.126V146.132H158.642V153ZM166.329 149.642C166.329 150.687 166.09 151.529 165.612 152.168C165.134 152.807 164.486 153.127 163.669 153.127C162.836 153.127 162.18 152.862 161.702 152.333V155.641H160.527V146.132H161.6L161.657 146.894C162.135 146.301 162.8 146.005 163.65 146.005C164.476 146.005 165.127 146.316 165.605 146.938C166.088 147.56 166.329 148.425 166.329 149.534V149.642ZM165.155 149.509C165.155 148.734 164.99 148.123 164.66 147.674C164.33 147.226 163.877 147.001 163.301 147.001C162.59 147.001 162.057 147.317 161.702 147.947V151.229C162.053 151.855 162.59 152.168 163.314 152.168C163.877 152.168 164.323 151.946 164.653 151.502C164.988 151.053 165.155 150.389 165.155 149.509ZM167.516 149.502C167.516 148.83 167.647 148.224 167.91 147.687C168.176 147.15 168.544 146.735 169.014 146.443C169.488 146.151 170.028 146.005 170.633 146.005C171.568 146.005 172.323 146.329 172.899 146.976C173.479 147.624 173.769 148.485 173.769 149.56V149.642C173.769 150.311 173.639 150.912 173.381 151.445C173.127 151.974 172.761 152.386 172.283 152.683C171.809 152.979 171.263 153.127 170.646 153.127C169.715 153.127 168.959 152.803 168.379 152.156C167.804 151.508 167.516 150.651 167.516 149.585V149.502ZM168.697 149.642C168.697 150.404 168.872 151.015 169.224 151.477C169.579 151.938 170.053 152.168 170.646 152.168C171.242 152.168 171.716 151.936 172.067 151.47C172.419 151 172.594 150.345 172.594 149.502C172.594 148.749 172.414 148.14 172.055 147.674C171.699 147.205 171.225 146.97 170.633 146.97C170.053 146.97 169.585 147.2 169.23 147.662C168.875 148.123 168.697 148.783 168.697 149.642ZM174.727 152.042L175.133 151.54C175.59 150.948 175.851 150.059 175.914 148.874L176.022 146.132H180.446V152.042H181.329V155.019H180.154V153H175.362V155.019H174.188L174.194 152.042H174.727ZM176.117 152.042H179.272V147.217H177.158L177.088 148.855C177.016 150.222 176.693 151.284 176.117 152.042ZM186.87 153C186.802 152.865 186.747 152.623 186.705 152.276C186.159 152.843 185.507 153.127 184.75 153.127C184.073 153.127 183.516 152.937 183.081 152.556C182.649 152.171 182.433 151.684 182.433 151.096C182.433 150.381 182.704 149.826 183.246 149.433C183.792 149.035 184.557 148.836 185.543 148.836H186.686V148.296C186.686 147.886 186.563 147.56 186.318 147.319C186.072 147.073 185.711 146.951 185.232 146.951C184.813 146.951 184.462 147.056 184.179 147.268C183.895 147.48 183.753 147.736 183.753 148.036H182.573C182.573 147.693 182.693 147.363 182.935 147.046C183.18 146.724 183.51 146.47 183.925 146.284C184.344 146.098 184.803 146.005 185.302 146.005C186.094 146.005 186.714 146.204 187.162 146.602C187.611 146.995 187.843 147.539 187.86 148.233V151.394C187.86 152.025 187.941 152.526 188.102 152.898V153H186.87ZM184.921 152.105C185.29 152.105 185.639 152.01 185.969 151.819C186.299 151.629 186.538 151.381 186.686 151.077V149.667H185.766C184.327 149.667 183.607 150.089 183.607 150.931C183.607 151.299 183.73 151.587 183.976 151.794C184.221 152.001 184.536 152.105 184.921 152.105ZM195.179 150.017H194.354V153H193.18V150.017H192.354L190.431 153H188.946L191.402 149.445L189.181 146.132H190.603L192.374 148.976H193.18V146.132H194.354V148.976H195.154L196.938 146.132H198.359L196.131 149.452L198.588 153H197.103L195.179 150.017ZM199.61 149.249C199.61 148.292 199.737 147.374 199.991 146.494C200.249 145.613 200.632 144.814 201.14 144.094C201.647 143.375 202.174 142.867 202.72 142.571L202.961 143.345C202.344 143.819 201.836 144.543 201.438 145.516C201.044 146.489 200.829 147.579 200.791 148.785L200.784 149.325C200.784 150.958 201.083 152.376 201.679 153.578C202.039 154.297 202.466 154.86 202.961 155.266L202.72 155.983C202.157 155.67 201.62 155.146 201.108 154.409C200.109 152.97 199.61 151.25 199.61 149.249ZM209.506 148.728H205.5V152.003H210.153V153H204.282V143.758H210.09V144.761H205.5V147.731H209.506V148.728ZM211.594 153V146.132H214.273C215.187 146.132 215.887 146.293 216.374 146.614C216.865 146.932 217.11 147.399 217.11 148.017C217.11 148.334 217.015 148.622 216.825 148.88C216.634 149.134 216.353 149.329 215.98 149.464C216.395 149.562 216.727 149.752 216.977 150.036C217.231 150.319 217.358 150.658 217.358 151.051C217.358 151.682 217.125 152.164 216.66 152.499C216.198 152.833 215.545 153 214.698 153H211.594ZM212.769 149.985V152.054H214.711C215.202 152.054 215.568 151.963 215.809 151.781C216.055 151.599 216.177 151.343 216.177 151.013C216.177 150.328 215.674 149.985 214.667 149.985H212.769ZM212.769 149.045H214.286C215.386 149.045 215.936 148.724 215.936 148.081C215.936 147.437 215.416 147.105 214.375 147.084H212.769V149.045ZM224.715 149.642C224.715 150.687 224.476 151.529 223.998 152.168C223.519 152.807 222.872 153.127 222.055 153.127C221.222 153.127 220.566 152.862 220.087 152.333V155.641H218.913V146.132H219.986L220.043 146.894C220.521 146.301 221.186 146.005 222.036 146.005C222.861 146.005 223.513 146.316 223.991 146.938C224.474 147.56 224.715 148.425 224.715 149.534V149.642ZM223.541 149.509C223.541 148.734 223.375 148.123 223.045 147.674C222.715 147.226 222.263 147.001 221.687 147.001C220.976 147.001 220.443 147.317 220.087 147.947V151.229C220.439 151.855 220.976 152.168 221.7 152.168C222.263 152.168 222.709 151.946 223.039 151.502C223.373 151.053 223.541 150.389 223.541 149.509ZM225.902 149.502C225.902 148.83 226.033 148.224 226.295 147.687C226.562 147.15 226.93 146.735 227.4 146.443C227.874 146.151 228.413 146.005 229.019 146.005C229.954 146.005 230.709 146.329 231.285 146.976C231.864 147.624 232.154 148.485 232.154 149.56V149.642C232.154 150.311 232.025 150.912 231.767 151.445C231.513 151.974 231.147 152.386 230.669 152.683C230.195 152.979 229.649 153.127 229.031 153.127C228.1 153.127 227.345 152.803 226.765 152.156C226.19 151.508 225.902 150.651 225.902 149.585V149.502ZM227.083 149.642C227.083 150.404 227.258 151.015 227.609 151.477C227.965 151.938 228.439 152.168 229.031 152.168C229.628 152.168 230.102 151.936 230.453 151.47C230.804 151 230.98 150.345 230.98 149.502C230.98 148.749 230.8 148.14 230.44 147.674C230.085 147.205 229.611 146.97 229.019 146.97C228.439 146.97 227.971 147.2 227.616 147.662C227.26 148.123 227.083 148.783 227.083 149.642ZM239.245 153H238.07V147.103H234.909V153H233.729V146.132H239.245V153ZM245.37 153C245.302 152.865 245.247 152.623 245.205 152.276C244.659 152.843 244.007 153.127 243.25 153.127C242.573 153.127 242.016 152.937 241.581 152.556C241.149 152.171 240.933 151.684 240.933 151.096C240.933 150.381 241.204 149.826 241.746 149.433C242.292 149.035 243.057 148.836 244.043 148.836H245.186V148.296C245.186 147.886 245.063 147.56 244.818 147.319C244.572 147.073 244.211 146.951 243.732 146.951C243.313 146.951 242.962 147.056 242.679 147.268C242.395 147.48 242.253 147.736 242.253 148.036H241.073C241.073 147.693 241.193 147.363 241.435 147.046C241.68 146.724 242.01 146.47 242.425 146.284C242.844 146.098 243.303 146.005 243.802 146.005C244.594 146.005 245.214 146.204 245.662 146.602C246.111 146.995 246.343 147.539 246.36 148.233V151.394C246.36 152.025 246.441 152.526 246.602 152.898V153H245.37ZM243.421 152.105C243.79 152.105 244.139 152.01 244.469 151.819C244.799 151.629 245.038 151.381 245.186 151.077V149.667H244.266C242.827 149.667 242.107 150.089 242.107 150.931C242.107 151.299 242.23 151.587 242.476 151.794C242.721 152.001 243.036 152.105 243.421 152.105ZM250.912 149.312C250.912 150.256 250.787 151.161 250.537 152.029C250.292 152.892 249.913 153.69 249.401 154.422C248.893 155.154 248.36 155.674 247.801 155.983L247.554 155.266C248.205 154.767 248.728 153.992 249.122 152.943C249.519 151.889 249.722 150.721 249.731 149.439V149.236C249.731 148.347 249.638 147.522 249.452 146.76C249.265 145.994 249.005 145.309 248.671 144.704C248.341 144.098 247.968 143.627 247.554 143.288L247.801 142.571C248.36 142.88 248.891 143.396 249.395 144.12C249.902 144.843 250.281 145.641 250.531 146.513C250.785 147.384 250.912 148.318 250.912 149.312Z" fill="black"/>
<path d="M69.3076 148.366L69.7773 143.758H74.5127V144.843H70.7739L70.4946 147.363C70.9474 147.097 71.4616 146.963 72.0371 146.963C72.8792 146.963 73.5479 147.243 74.043 147.801C74.5381 148.356 74.7856 149.107 74.7856 150.055C74.7856 151.007 74.5275 151.758 74.0112 152.308C73.4992 152.854 72.7819 153.127 71.8594 153.127C71.0426 153.127 70.3761 152.901 69.8599 152.448C69.3436 151.995 69.0495 151.369 68.9775 150.569H70.0884C70.1603 151.098 70.3486 151.498 70.6533 151.769C70.958 152.035 71.36 152.168 71.8594 152.168C72.4053 152.168 72.8327 151.982 73.1416 151.61C73.4548 151.237 73.6113 150.723 73.6113 150.067C73.6113 149.45 73.4421 148.954 73.1035 148.582C72.7692 148.205 72.3228 148.017 71.7642 148.017C71.2521 148.017 70.8501 148.129 70.5581 148.354L70.2471 148.607L69.3076 148.366Z" fill="black"/>
<rect x="15.5" y="166.5" width="82" height="22" fill="#F2F2F2" stroke="black"/>
<rect x="97.5" y="166.5" width="149" height="22" fill="#F2F2F2" stroke="black"/>
<rect x="246.5" y="166.5" width="118" height="22" fill="#6FCF97" stroke="black"/>
<path d="M308.627 182H307.447V174.173L305.079 175.043V173.977L308.443 172.713H308.627V182Z" fill="black"/>
<path d="M138.182 177.677C138.182 178.583 138.03 179.374 137.725 180.051C137.42 180.724 136.989 181.238 136.43 181.594C135.872 181.949 135.22 182.127 134.475 182.127C133.747 182.127 133.102 181.949 132.539 181.594C131.976 181.234 131.538 180.724 131.225 180.064C130.916 179.4 130.757 178.632 130.749 177.76V177.093C130.749 176.205 130.903 175.42 131.212 174.738C131.521 174.057 131.957 173.536 132.52 173.177C133.087 172.813 133.735 172.631 134.462 172.631C135.203 172.631 135.855 172.811 136.417 173.17C136.985 173.526 137.42 174.044 137.725 174.726C138.03 175.403 138.182 176.192 138.182 177.093V177.677ZM136.97 177.081C136.97 175.985 136.75 175.145 136.31 174.561C135.869 173.972 135.254 173.678 134.462 173.678C133.692 173.678 133.085 173.972 132.641 174.561C132.201 175.145 131.974 175.957 131.961 176.998V177.677C131.961 178.739 132.184 179.575 132.628 180.185C133.076 180.79 133.692 181.092 134.475 181.092C135.262 181.092 135.872 180.807 136.303 180.235C136.735 179.66 136.957 178.837 136.97 177.766V177.081ZM144.93 176.084H142.625V182H141.451V176.084H139.191V175.132H144.93V176.084ZM145.469 181.042L145.875 180.54C146.333 179.948 146.593 179.059 146.656 177.874L146.764 175.132H151.188V181.042H152.071V184.019H150.896V182H146.104V184.019H144.93L144.936 181.042H145.469ZM146.859 181.042H150.014V176.217H147.9L147.831 177.855C147.759 179.222 147.435 180.284 146.859 181.042ZM156.222 182.127C155.291 182.127 154.534 181.822 153.95 181.213C153.366 180.599 153.074 179.78 153.074 178.756V178.541C153.074 177.859 153.203 177.252 153.461 176.719C153.723 176.181 154.087 175.762 154.553 175.462C155.022 175.157 155.53 175.005 156.076 175.005C156.969 175.005 157.663 175.299 158.158 175.887C158.653 176.475 158.901 177.318 158.901 178.414V178.902H154.248C154.265 179.579 154.462 180.127 154.838 180.546C155.219 180.961 155.702 181.168 156.286 181.168C156.7 181.168 157.052 181.084 157.339 180.915C157.627 180.745 157.879 180.521 158.095 180.242L158.812 180.8C158.236 181.685 157.373 182.127 156.222 182.127ZM156.076 175.97C155.602 175.97 155.204 176.143 154.883 176.49C154.561 176.833 154.362 177.315 154.286 177.938H157.727V177.849C157.693 177.252 157.532 176.791 157.244 176.465C156.956 176.135 156.567 175.97 156.076 175.97ZM165.896 175.132V182H164.715V176.103H162.379L162.24 178.674C162.164 179.854 161.965 180.699 161.643 181.207C161.326 181.714 160.82 181.979 160.126 182H159.656V180.965L159.993 180.94C160.374 180.898 160.646 180.678 160.812 180.28C160.977 179.882 161.082 179.146 161.129 178.071L161.256 175.132H165.896ZM173.145 179.074H172.288V182H171.107V175.132H172.288V178.039H173.056L175.367 175.132H176.789L174.072 178.433L177.017 182H175.525L173.145 179.074ZM182.267 182C182.199 181.865 182.144 181.623 182.102 181.276C181.556 181.843 180.904 182.127 180.146 182.127C179.469 182.127 178.913 181.937 178.477 181.556C178.045 181.171 177.83 180.684 177.83 180.096C177.83 179.381 178.1 178.826 178.642 178.433C179.188 178.035 179.954 177.836 180.94 177.836H182.083V177.296C182.083 176.886 181.96 176.56 181.714 176.319C181.469 176.073 181.107 175.951 180.629 175.951C180.21 175.951 179.859 176.056 179.575 176.268C179.292 176.48 179.15 176.736 179.15 177.036H177.969C177.969 176.693 178.09 176.363 178.331 176.046C178.576 175.724 178.907 175.47 179.321 175.284C179.74 175.098 180.199 175.005 180.699 175.005C181.49 175.005 182.11 175.204 182.559 175.602C183.007 175.995 183.24 176.539 183.257 177.233V180.394C183.257 181.025 183.337 181.526 183.498 181.898V182H182.267ZM180.318 181.105C180.686 181.105 181.035 181.01 181.365 180.819C181.695 180.629 181.934 180.381 182.083 180.077V178.667H181.162C179.723 178.667 179.004 179.089 179.004 179.931C179.004 180.299 179.127 180.587 179.372 180.794C179.618 181.001 179.933 181.105 180.318 181.105ZM185.041 181.042L185.447 180.54C185.904 179.948 186.164 179.059 186.228 177.874L186.335 175.132H190.76V181.042H191.642V184.019H190.468V182H185.675V184.019H184.501L184.507 181.042H185.041ZM186.431 181.042H189.585V176.217H187.472L187.402 177.855C187.33 179.222 187.006 180.284 186.431 181.042ZM198.745 178.642C198.745 179.687 198.506 180.529 198.028 181.168C197.55 181.807 196.902 182.127 196.085 182.127C195.252 182.127 194.596 181.862 194.118 181.333V184.641H192.943V175.132H194.016L194.073 175.894C194.551 175.301 195.216 175.005 196.066 175.005C196.892 175.005 197.543 175.316 198.021 175.938C198.504 176.56 198.745 177.425 198.745 178.534V178.642ZM197.571 178.509C197.571 177.734 197.406 177.123 197.076 176.674C196.746 176.226 196.293 176.001 195.717 176.001C195.006 176.001 194.473 176.317 194.118 176.947V180.229C194.469 180.855 195.006 181.168 195.73 181.168C196.293 181.168 196.739 180.946 197.069 180.502C197.404 180.053 197.571 179.389 197.571 178.509ZM199.932 178.502C199.932 177.83 200.063 177.224 200.326 176.687C200.592 176.15 200.96 175.735 201.43 175.443C201.904 175.151 202.444 175.005 203.049 175.005C203.984 175.005 204.739 175.329 205.315 175.976C205.895 176.624 206.185 177.485 206.185 178.56V178.642C206.185 179.311 206.056 179.912 205.797 180.445C205.543 180.974 205.177 181.386 204.699 181.683C204.225 181.979 203.679 182.127 203.062 182.127C202.131 182.127 201.375 181.803 200.795 181.156C200.22 180.508 199.932 179.651 199.932 178.585V178.502ZM201.113 178.642C201.113 179.404 201.288 180.015 201.64 180.477C201.995 180.938 202.469 181.168 203.062 181.168C203.658 181.168 204.132 180.936 204.483 180.47C204.835 180 205.01 179.345 205.01 178.502C205.01 177.749 204.83 177.14 204.471 176.674C204.115 176.205 203.641 175.97 203.049 175.97C202.469 175.97 202.001 176.2 201.646 176.662C201.291 177.123 201.113 177.783 201.113 178.642ZM207.765 182V175.132H210.444C211.358 175.132 212.058 175.293 212.545 175.614C213.036 175.932 213.281 176.399 213.281 177.017C213.281 177.334 213.186 177.622 212.996 177.88C212.805 178.134 212.524 178.329 212.151 178.464C212.566 178.562 212.898 178.752 213.148 179.036C213.402 179.319 213.529 179.658 213.529 180.051C213.529 180.682 213.296 181.164 212.831 181.499C212.369 181.833 211.715 182 210.869 182H207.765ZM208.939 178.985V181.054H210.882C211.373 181.054 211.739 180.963 211.98 180.781C212.225 180.599 212.348 180.343 212.348 180.013C212.348 179.328 211.845 178.985 210.837 178.985H208.939ZM208.939 178.045H210.457C211.557 178.045 212.107 177.724 212.107 177.081C212.107 176.437 211.586 176.105 210.545 176.084H208.939V178.045Z" fill="black"/>
<path d="M58.3765 172.751V173.748H58.1606C57.2466 173.765 56.5187 174.036 55.9771 174.561C55.4354 175.085 55.1222 175.824 55.0376 176.776C55.5243 176.217 56.1886 175.938 57.0308 175.938C57.8348 175.938 58.4759 176.222 58.9541 176.789C59.4365 177.356 59.6777 178.088 59.6777 178.985C59.6777 179.937 59.4175 180.699 58.897 181.27C58.3807 181.841 57.6867 182.127 56.8149 182.127C55.9305 182.127 55.2132 181.788 54.6631 181.111C54.113 180.43 53.8379 179.554 53.8379 178.483V178.033C53.8379 176.332 54.1997 175.032 54.9233 174.135C55.6512 173.234 56.7324 172.773 58.167 172.751H58.3765ZM56.834 176.916C56.432 176.916 56.0617 177.036 55.7231 177.277C55.3846 177.519 55.1497 177.821 55.0186 178.185V178.617C55.0186 179.378 55.1899 179.992 55.5327 180.458C55.8755 180.923 56.3029 181.156 56.8149 181.156C57.3439 181.156 57.7586 180.961 58.0591 180.572C58.3638 180.182 58.5161 179.673 58.5161 179.042C58.5161 178.407 58.3617 177.895 58.0527 177.506C57.748 177.112 57.3418 176.916 56.834 176.916Z" fill="black"/>
<path d="M355.23 27.3482C373.692 25.9364 391.846 32.6202 405.741 45.945C419.637 59.2698 428.149 78.1569 429.425 98.496C430.7 118.835 424.637 138.98 412.554 154.546C400.471 170.112 383.347 179.839 364.908 181.611L364.744 179.295C382.629 177.577 399.239 168.142 410.959 153.043C422.679 137.945 428.56 118.405 427.322 98.6773C426.085 78.9493 417.829 60.6295 404.351 47.705C390.873 34.7805 373.264 28.2975 355.357 29.6668L355.23 27.3482Z" fill="#6FCF97"/>
<path d="M372.328 93.0689C377.407 93.0301 382.584 93.7819 387.549 95.2792C392.514 96.7764 397.163 98.988 401.215 101.781C405.268 104.573 408.641 107.889 411.131 111.528C413.621 115.167 415.176 119.055 415.702 122.955C416.228 126.856 415.715 130.69 414.194 134.225C412.672 137.76 410.173 140.924 406.848 143.526C403.523 146.127 399.441 148.113 394.846 149.363C390.252 150.612 385.242 151.101 380.118 150.798L380.002 149.31C384.862 149.597 389.614 149.134 393.971 147.949C398.327 146.764 402.199 144.881 405.353 142.413C408.506 139.946 410.876 136.945 412.319 133.593C413.762 130.24 414.249 126.604 413.75 122.905C413.25 119.205 411.776 115.519 409.415 112.068C407.053 108.616 403.854 105.472 400.011 102.823C396.167 100.175 391.758 98.0774 387.05 96.6574C382.341 95.2375 377.431 94.5244 372.615 94.5612L372.328 93.0689Z" fill="#56CCF2"/>
<path d="M376.905 93.7778C381.612 94.8704 385.944 96.9449 389.192 99.6618C392.44 102.379 394.412 105.577 394.784 108.733C395.156 111.889 393.908 114.816 391.242 117.035C388.576 119.253 384.652 120.632 380.111 120.946L379.654 119.928C383.865 119.638 387.504 118.359 389.975 116.302C392.447 114.245 393.605 111.531 393.26 108.605C392.914 105.678 391.086 102.713 388.075 100.194C385.063 97.6746 381.047 95.7511 376.682 94.738L376.905 93.7778Z" fill="#56CCF2"/>
<path d="M364.379 28.0142C369.474 28.3751 374.301 30.5203 377.869 34.0084C381.437 37.4966 383.473 42.0625 383.56 46.767C383.646 51.4715 381.776 55.9567 378.334 59.3002C374.892 62.6436 370.14 64.591 365.055 64.7417L364.961 63.5229C369.708 63.3822 374.146 61.5639 377.36 58.4421C380.573 55.3203 382.32 51.1323 382.239 46.7397C382.158 42.3471 380.256 38.0839 376.925 34.8269C373.594 31.57 369.086 29.567 364.33 29.23L364.379 28.0142Z" fill="#6FCF97"/>
<path d="M373.304 29.5697C379.272 31.5602 384.325 35.9304 387.571 41.908C390.817 47.8855 392.046 55.0856 391.042 62.2356C390.037 69.3856 386.864 76.0252 382.082 80.9808C377.3 85.9365 371.218 88.8892 364.911 89.3171L364.893 87.2904C370.78 86.8911 376.458 84.1349 380.921 79.5092C385.384 74.8834 388.347 68.6859 389.284 62.0119C390.222 55.3379 389.075 48.6171 386.045 43.0375C383.015 37.4579 378.298 33.3786 372.728 31.5207L373.304 29.5697Z" fill="#6FCF97"/>
<path d="M350 29L362.75 21.2058V36.7942L350 29Z" fill="#6FCF97"/>
<path d="M364.037 94.07L376.755 86.2233L376.819 101.812L364.037 94.07Z" fill="#56CCF2"/>
</g>
<defs>
<clipPath id="clip0_10_2">
<rect width="433" height="189" fill="white"/>
</clipPath>
</defs>
</svg>
