<svg width="80" height="50" viewBox="0 0 80 50" fill="none" xmlns="http://www.w3.org/2000/svg">
<rect width="80" height="50" rx="25" fill="#992121"/>
<rect x="5" y="5" width="70" height="40" rx="20" fill="#FFEFF7"/>
<path d="M20.256 35.32C17.5893 35.32 15.4453 34.9787 13.824 34.296V31.224C14.7413 31.5653 15.7227 31.8427 16.768 32.056C17.8347 32.2693 18.8907 32.376 19.936 32.376C21.5787 32.376 22.8053 32.184 23.616 31.8C24.448 31.416 24.864 30.648 24.864 29.496C24.864 28.792 24.6933 28.2267 24.352 27.8C24.0107 27.3733 23.4453 27.0107 22.656 26.712C21.8667 26.392 20.7787 26.0613 19.392 25.72C17.1733 25.144 15.616 24.4187 14.72 23.544C13.824 22.648 13.376 21.4213 13.376 19.864C13.376 18.0507 14.0373 16.632 15.36 15.608C16.6827 14.584 18.656 14.072 21.28 14.072C22.4747 14.072 23.5947 14.1573 24.64 14.328C25.7067 14.4987 26.5387 14.6907 27.136 14.904V17.976C25.5147 17.3573 23.7227 17.048 21.76 17.048C20.224 17.048 19.0293 17.2507 18.176 17.656C17.3227 18.0613 16.896 18.7973 16.896 19.864C16.896 20.4827 17.0453 20.984 17.344 21.368C17.6427 21.752 18.1547 22.0827 18.88 22.36C19.6267 22.6373 20.6507 22.9467 21.952 23.288C23.6373 23.7147 24.9387 24.2267 25.856 24.824C26.7947 25.4 27.4453 26.0827 27.808 26.872C28.192 27.64 28.384 28.5147 28.384 29.496C28.384 31.3093 27.712 32.7387 26.368 33.784C25.024 34.808 22.9867 35.32 20.256 35.32ZM43.862 40.504C42.2407 40.504 41.0567 40.0453 40.31 39.128C39.5633 38.2107 39.1687 36.9093 39.126 35.224C36.4593 34.9253 34.454 33.9333 33.11 32.248C31.7873 30.5413 31.126 28.0453 31.126 24.76C31.126 21.0053 31.9367 18.2853 33.558 16.6C35.1793 14.9147 37.622 14.072 40.886 14.072C44.1713 14.072 46.614 14.9147 48.214 16.6C49.8353 18.2853 50.646 21.0053 50.646 24.76C50.646 28.1093 49.942 30.6373 48.534 32.344C47.1473 34.0507 45.046 35.0213 42.23 35.256C42.2513 36.2373 42.4327 36.9093 42.774 37.272C43.1367 37.656 43.7447 37.848 44.598 37.848C45.366 37.848 46.1233 37.7413 46.87 37.528V40.12C46.5287 40.2267 46.0807 40.312 45.526 40.376C44.9713 40.4613 44.4167 40.504 43.862 40.504ZM40.886 32.376C43.0407 32.376 44.6193 31.7893 45.622 30.616C46.646 29.4213 47.158 27.4693 47.158 24.76C47.158 21.9013 46.646 19.9067 45.622 18.776C44.6193 17.624 43.0407 17.048 40.886 17.048C38.7527 17.048 37.174 17.624 36.15 18.776C35.1473 19.9067 34.646 21.9013 34.646 24.76C34.646 27.4693 35.1473 29.4213 36.15 30.616C37.174 31.7893 38.7527 32.376 40.886 32.376ZM54.0785 35V14.392H57.5665V32.312H68.1265V35H54.0785Z" fill="#992121"/>
</svg>
