<svg width="320" height="204" viewBox="0 0 320 204" fill="none" xmlns="http://www.w3.org/2000/svg">
<rect y="4" width="320" height="200" rx="97" fill="#C74634"/>
<rect x="20" y="24" width="280" height="160" rx="80" fill="#F5F5F5"/>
<path d="M85.024 142.28C74.3573 142.28 65.7813 140.915 59.296 138.184V125.896C62.9653 127.261 66.8907 128.371 71.072 129.224C75.3387 130.077 79.5627 130.504 83.744 130.504C90.3147 130.504 95.2213 129.736 98.464 128.2C101.792 126.664 103.456 123.592 103.456 118.984C103.456 116.168 102.773 113.907 101.408 112.2C100.043 110.493 97.7813 109.043 94.624 107.848C91.4667 106.568 87.1147 105.245 81.568 103.88C72.6933 101.576 66.464 98.6747 62.88 95.176C59.296 91.592 57.504 86.6853 57.504 80.456C57.504 73.2027 60.1493 67.528 65.44 63.432C70.7307 59.336 78.624 57.288 89.12 57.288C93.8987 57.288 98.3787 57.6293 102.56 58.312C106.827 58.9947 110.155 59.7627 112.544 60.616V72.904C106.059 70.4293 98.8907 69.192 91.04 69.192C84.896 69.192 80.1173 70.0027 76.704 71.624C73.2907 73.2453 71.584 76.1893 71.584 80.456C71.584 82.9307 72.1813 84.936 73.376 86.472C74.5707 88.008 76.6187 89.3307 79.52 90.44C82.5067 91.5493 86.6027 92.7867 91.808 94.152C98.5493 95.8587 103.755 97.9067 107.424 100.296C111.179 102.6 113.781 105.331 115.232 108.488C116.768 111.56 117.536 115.059 117.536 118.984C117.536 126.237 114.848 131.955 109.472 136.136C104.096 140.232 95.9467 142.28 85.024 142.28ZM179.448 163.016C172.963 163.016 168.227 161.181 165.24 157.512C162.253 153.843 160.675 148.637 160.504 141.896C149.837 140.701 141.816 136.733 136.44 129.992C131.149 123.165 128.504 113.181 128.504 100.04C128.504 85.0213 131.747 74.1413 138.232 67.4C144.717 60.6587 154.488 57.288 167.544 57.288C180.685 57.288 190.456 60.6587 196.856 67.4C203.341 74.1413 206.584 85.0213 206.584 100.04C206.584 113.437 203.768 123.549 198.136 130.376C192.589 137.203 184.184 141.085 172.92 142.024C173.005 145.949 173.731 148.637 175.096 150.088C176.547 151.624 178.979 152.392 182.392 152.392C185.464 152.392 188.493 151.965 191.48 151.112V161.48C190.115 161.907 188.323 162.248 186.104 162.504C183.885 162.845 181.667 163.016 179.448 163.016ZM167.544 130.504C176.163 130.504 182.477 128.157 186.488 123.464C190.584 118.685 192.632 110.877 192.632 100.04C192.632 88.6053 190.584 80.6267 186.488 76.104C182.477 71.496 176.163 69.192 167.544 69.192C159.011 69.192 152.696 71.496 148.6 76.104C144.589 80.6267 142.584 88.6053 142.584 100.04C142.584 110.877 144.589 118.685 148.6 123.464C152.696 128.157 159.011 130.504 167.544 130.504ZM220.314 141V58.568H234.266V130.248H276.506V141H220.314Z" fill="#C74634"/>
</svg>
