<svg width="595" height="842" viewBox="0 0 595 842" fill="none" xmlns="http://www.w3.org/2000/svg">
<g clip-path="url(#clip0_12_5)">
<rect width="595" height="842" fill="#1E5C82"/>
<path d="M251.648 349.384C248.32 349.384 245.12 348.851 242.048 347.784C239.019 346.717 236.672 345.309 235.008 343.56L236.864 339.912C238.485 341.533 240.64 342.856 243.328 343.88C246.016 344.861 248.789 345.352 251.648 345.352C255.659 345.352 258.667 344.627 260.672 343.176C262.677 341.683 263.68 339.763 263.68 337.416C263.68 335.624 263.125 334.195 262.016 333.128C260.949 332.061 259.627 331.251 258.048 330.696C256.469 330.099 254.272 329.459 251.456 328.776C248.085 327.923 245.397 327.112 243.392 326.344C241.387 325.533 239.659 324.317 238.208 322.696C236.8 321.075 236.096 318.877 236.096 316.104C236.096 313.843 236.693 311.795 237.888 309.96C239.083 308.083 240.917 306.589 243.392 305.48C245.867 304.371 248.939 303.816 252.608 303.816C255.168 303.816 257.664 304.179 260.096 304.904C262.571 305.587 264.704 306.547 266.496 307.784L264.896 311.56C263.019 310.323 261.013 309.405 258.88 308.808C256.747 308.168 254.656 307.848 252.608 307.848C248.683 307.848 245.717 308.616 243.712 310.152C241.749 311.645 240.768 313.587 240.768 315.976C240.768 317.768 241.301 319.219 242.368 320.328C243.477 321.395 244.843 322.227 246.464 322.824C248.128 323.379 250.347 323.997 253.12 324.68C256.405 325.491 259.051 326.301 261.056 327.112C263.104 327.88 264.832 329.075 266.24 330.696C267.648 332.275 268.352 334.429 268.352 337.16C268.352 339.421 267.733 341.491 266.496 343.368C265.301 345.203 263.445 346.675 260.928 347.784C258.411 348.851 255.317 349.384 251.648 349.384ZM323.791 352.776C322.426 354.44 320.804 355.699 318.927 356.552C317.092 357.448 315.087 357.896 312.911 357.896C310.266 357.896 307.748 357.235 305.359 355.912C303.012 354.632 300.367 352.456 297.423 349.384C293.114 349.256 289.231 348.189 285.775 346.184C282.319 344.179 279.61 341.469 277.647 338.056C275.684 334.643 274.703 330.824 274.703 326.6C274.703 322.291 275.706 318.408 277.711 314.952C279.759 311.496 282.575 308.787 286.159 306.824C289.786 304.819 293.818 303.816 298.255 303.816C302.692 303.816 306.682 304.797 310.223 306.76C313.807 308.723 316.623 311.453 318.671 314.952C320.719 318.408 321.743 322.291 321.743 326.6C321.743 330.355 320.954 333.811 319.375 336.968C317.839 340.083 315.663 342.685 312.847 344.776C310.074 346.867 306.874 348.253 303.247 348.936C306.532 352.392 309.775 354.12 312.975 354.12C316.303 354.12 319.14 352.755 321.487 350.024L323.791 352.776ZM279.375 326.6C279.375 330.099 280.186 333.256 281.807 336.072C283.471 338.888 285.732 341.107 288.591 342.728C291.492 344.349 294.714 345.16 298.255 345.16C301.796 345.16 304.996 344.349 307.855 342.728C310.714 341.107 312.954 338.888 314.575 336.072C316.196 333.256 317.007 330.099 317.007 326.6C317.007 323.101 316.196 319.944 314.575 317.128C312.954 314.312 310.714 312.093 307.855 310.472C304.996 308.851 301.796 308.04 298.255 308.04C294.714 308.04 291.492 308.851 288.591 310.472C285.732 312.093 283.471 314.312 281.807 317.128C280.186 319.944 279.375 323.101 279.375 326.6ZM332.359 304.2H337.095V344.904H362.183V349H332.359V304.2Z" fill="#E0E0E0"/>
<path d="M237.464 423.472C239.176 423.872 240.032 424.904 240.032 426.568C240.032 427.672 239.624 428.52 238.808 429.112C237.992 429.704 236.776 430 235.16 430H229.424V417.376H234.992C236.432 417.376 237.56 417.656 238.376 418.216C239.192 418.776 239.6 419.576 239.6 420.616C239.6 421.304 239.408 421.896 239.024 422.392C238.656 422.872 238.136 423.232 237.464 423.472ZM231.08 422.992H234.872C235.848 422.992 236.592 422.808 237.104 422.44C237.632 422.072 237.896 421.536 237.896 420.832C237.896 420.128 237.632 419.6 237.104 419.248C236.592 418.896 235.848 418.72 234.872 418.72H231.08V422.992ZM235.088 428.656C236.176 428.656 236.992 428.48 237.536 428.128C238.08 427.776 238.352 427.224 238.352 426.472C238.352 425.72 238.104 425.168 237.608 424.816C237.112 424.448 236.328 424.264 235.256 424.264H231.08V428.656H235.088ZM250.715 413.2H263.003V414.712H252.467V420.208H257.963C259.947 420.208 261.451 420.616 262.475 421.432C263.515 422.248 264.035 423.432 264.035 424.984C264.035 426.6 263.475 427.84 262.355 428.704C261.251 429.568 259.659 430 257.579 430H250.715V413.2ZM257.555 428.584C259.107 428.584 260.275 428.288 261.059 427.696C261.859 427.104 262.259 426.224 262.259 425.056C262.259 423.904 261.867 423.048 261.083 422.488C260.315 421.912 259.139 421.624 257.555 421.624H252.467V428.584H257.555ZM283.139 428.464V433.768H281.483V430H266.819L266.795 433.768H265.139L265.163 428.464H266.003C267.107 428.4 267.875 427.528 268.307 425.848C268.739 424.152 269.003 421.752 269.099 418.648L269.291 413.2H280.619V428.464H283.139ZM270.683 418.816C270.603 421.376 270.403 423.488 270.083 425.152C269.779 426.8 269.259 427.904 268.523 428.464H278.867V414.736H270.827L270.683 418.816ZM300.291 430.144C298.627 430.144 297.115 429.776 295.755 429.04C294.411 428.288 293.355 427.264 292.587 425.968C291.835 424.672 291.459 423.216 291.459 421.6C291.459 419.984 291.835 418.528 292.587 417.232C293.355 415.936 294.411 414.92 295.755 414.184C297.115 413.432 298.627 413.056 300.291 413.056C301.955 413.056 303.451 413.424 304.779 414.16C306.123 414.896 307.179 415.92 307.947 417.232C308.715 418.528 309.099 419.984 309.099 421.6C309.099 423.216 308.715 424.68 307.947 425.992C307.179 427.288 306.123 428.304 304.779 429.04C303.451 429.776 301.955 430.144 300.291 430.144ZM300.291 428.56C301.619 428.56 302.819 428.264 303.891 427.672C304.963 427.064 305.803 426.232 306.411 425.176C307.019 424.104 307.323 422.912 307.323 421.6C307.323 420.288 307.019 419.104 306.411 418.048C305.803 416.976 304.963 416.144 303.891 415.552C302.819 414.944 301.619 414.64 300.291 414.64C298.963 414.64 297.755 414.944 296.667 415.552C295.595 416.144 294.747 416.976 294.123 418.048C293.515 419.104 293.211 420.288 293.211 421.6C293.211 422.912 293.515 424.104 294.123 425.176C294.747 426.232 295.595 427.064 296.667 427.672C297.755 428.264 298.963 428.56 300.291 428.56ZM314.352 419.848C314.752 419 315.344 418.36 316.128 417.928C316.928 417.496 317.912 417.28 319.08 417.28V418.936L318.672 418.912C317.344 418.912 316.304 419.32 315.552 420.136C314.8 420.952 314.424 422.096 314.424 423.568V430H312.72V417.376H314.352V419.848ZM326.558 417.28C328.206 417.28 329.47 417.696 330.35 418.528C331.23 419.344 331.67 420.56 331.67 422.176V430H330.038V428.032C329.654 428.688 329.086 429.2 328.334 429.568C327.598 429.936 326.718 430.12 325.694 430.12C324.286 430.12 323.166 429.784 322.334 429.112C321.502 428.44 321.086 427.552 321.086 426.448C321.086 425.376 321.47 424.512 322.238 423.856C323.022 423.2 324.262 422.872 325.958 422.872H329.966V422.104C329.966 421.016 329.662 420.192 329.054 419.632C328.446 419.056 327.558 418.768 326.39 418.768C325.59 418.768 324.822 418.904 324.086 419.176C323.35 419.432 322.718 419.792 322.19 420.256L321.422 418.984C322.062 418.44 322.83 418.024 323.726 417.736C324.622 417.432 325.566 417.28 326.558 417.28ZM325.958 428.776C326.918 428.776 327.742 428.56 328.43 428.128C329.118 427.68 329.63 427.04 329.966 426.208V424.144H326.006C323.846 424.144 322.766 424.896 322.766 426.4C322.766 427.136 323.046 427.72 323.606 428.152C324.166 428.568 324.95 428.776 325.958 428.776ZM341.577 430.12C340.329 430.12 339.209 429.848 338.217 429.304C337.241 428.76 336.473 428 335.913 427.024C335.353 426.032 335.073 424.92 335.073 423.688C335.073 422.456 335.353 421.352 335.913 420.376C336.473 419.4 337.241 418.64 338.217 418.096C339.209 417.552 340.329 417.28 341.577 417.28C342.665 417.28 343.633 417.496 344.481 417.928C345.345 418.344 346.025 418.96 346.521 419.776L345.249 420.64C344.833 420.016 344.305 419.552 343.665 419.248C343.025 418.928 342.329 418.768 341.577 418.768C340.665 418.768 339.841 418.976 339.105 419.392C338.385 419.792 337.817 420.368 337.401 421.12C337.001 421.872 336.801 422.728 336.801 423.688C336.801 424.664 337.001 425.528 337.401 426.28C337.817 427.016 338.385 427.592 339.105 428.008C339.841 428.408 340.665 428.608 341.577 428.608C342.329 428.608 343.025 428.456 343.665 428.152C344.305 427.848 344.833 427.384 345.249 426.76L346.521 427.624C346.025 428.44 345.345 429.064 344.481 429.496C343.617 429.912 342.649 430.12 341.577 430.12ZM349.681 412.192H351.385V430H349.681V412.192ZM367.118 424.216H356.558C356.654 425.528 357.158 426.592 358.07 427.408C358.982 428.208 360.134 428.608 361.526 428.608C362.31 428.608 363.03 428.472 363.686 428.2C364.342 427.912 364.91 427.496 365.39 426.952L366.35 428.056C365.79 428.728 365.086 429.24 364.238 429.592C363.406 429.944 362.486 430.12 361.478 430.12C360.182 430.12 359.03 429.848 358.022 429.304C357.03 428.744 356.254 427.976 355.694 427C355.134 426.024 354.854 424.92 354.854 423.688C354.854 422.456 355.118 421.352 355.646 420.376C356.19 419.4 356.926 418.64 357.854 418.096C358.798 417.552 359.854 417.28 361.022 417.28C362.19 417.28 363.238 417.552 364.166 418.096C365.094 418.64 365.822 419.4 366.35 420.376C366.878 421.336 367.142 422.44 367.142 423.688L367.118 424.216ZM361.022 418.744C359.806 418.744 358.782 419.136 357.95 419.92C357.134 420.688 356.67 421.696 356.558 422.944H365.51C365.398 421.696 364.926 420.688 364.094 419.92C363.278 419.136 362.254 418.744 361.022 418.744Z" fill="white"/>
<path d="M222.064 220.4L206.8 248.672C205.712 250.688 204.432 252.192 202.96 253.184C201.52 254.144 199.936 254.624 198.208 254.624C196.928 254.624 195.552 254.32 194.08 253.712L195.088 250.832C196.24 251.28 197.296 251.504 198.256 251.504C200.464 251.504 202.272 250.304 203.68 247.904L204.64 246.272L191.008 220.4H194.8L206.512 243.152L218.512 220.4H222.064ZM245.029 228.752V254H241.621V243.488C238.709 244.768 235.845 245.408 233.029 245.408C229.989 245.408 227.621 244.72 225.925 243.344C224.229 241.936 223.381 239.84 223.381 237.056V228.752H226.789V236.864C226.789 238.752 227.397 240.192 228.613 241.184C229.829 242.144 231.509 242.624 233.653 242.624C236.021 242.624 238.677 242 241.621 240.752V228.752H245.029ZM276.787 242.432H255.667C255.859 245.056 256.867 247.184 258.691 248.816C260.515 250.416 262.819 251.216 265.603 251.216C267.171 251.216 268.611 250.944 269.923 250.4C271.235 249.824 272.371 248.992 273.331 247.904L275.251 250.112C274.131 251.456 272.723 252.48 271.027 253.184C269.363 253.888 267.523 254.24 265.507 254.24C262.915 254.24 260.611 253.696 258.595 252.608C256.611 251.488 255.059 249.952 253.939 248C252.819 246.048 252.259 243.84 252.259 241.376C252.259 238.912 252.787 236.704 253.843 234.752C254.931 232.8 256.403 231.28 258.259 230.192C260.147 229.104 262.259 228.56 264.595 228.56C266.931 228.56 269.027 229.104 270.883 230.192C272.739 231.28 274.195 232.8 275.251 234.752C276.307 236.672 276.835 238.88 276.835 241.376L276.787 242.432ZM264.595 231.488C262.163 231.488 260.115 232.272 258.451 233.84C256.819 235.376 255.891 237.392 255.667 239.888H273.571C273.347 237.392 272.403 235.376 270.739 233.84C269.107 232.272 267.059 231.488 264.595 231.488ZM296.619 229.376C298.955 229.376 301.035 229.904 302.859 230.96C304.715 231.984 306.155 233.44 307.179 235.328C308.203 237.184 308.715 239.312 308.715 241.712C308.715 244.176 308.171 246.368 307.083 248.288C306.027 250.176 304.539 251.648 302.619 252.704C300.699 253.76 298.491 254.288 295.995 254.288C291.803 254.288 288.555 252.816 286.251 249.872C283.947 246.928 282.795 242.864 282.795 237.68C282.795 232.272 283.819 228.128 285.867 225.248C287.947 222.368 291.179 220.416 295.563 219.392L306.891 216.8L307.467 219.92L296.811 222.368C293.195 223.168 290.539 224.592 288.843 226.64C287.147 228.656 286.219 231.648 286.059 235.616C287.083 233.664 288.507 232.144 290.331 231.056C292.155 229.936 294.251 229.376 296.619 229.376ZM296.091 251.456C297.851 251.456 299.419 251.056 300.795 250.256C302.203 249.424 303.291 248.272 304.059 246.8C304.859 245.328 305.259 243.664 305.259 241.808C305.259 239.952 304.875 238.32 304.107 236.912C303.339 235.504 302.251 234.416 300.843 233.648C299.467 232.848 297.883 232.448 296.091 232.448C294.299 232.448 292.699 232.848 291.291 233.648C289.915 234.416 288.827 235.504 288.027 236.912C287.259 238.32 286.875 239.952 286.875 241.808C286.875 243.664 287.259 245.328 288.027 246.8C288.827 248.272 289.931 249.424 291.339 250.256C292.747 251.056 294.331 251.456 296.091 251.456ZM316.02 228.752H319.428V239.936H335.316V228.752H338.724V254H335.316V242.864H319.428V254H316.02V228.752ZM348.411 228.752H351.819V248.816L368.667 228.752H371.691V254H368.283V233.936L351.483 254H348.411V228.752ZM390.625 242.768H384.865V254H381.457V228.752H384.865V239.84H390.673L399.553 228.752H403.249L393.313 240.992L403.969 254H399.937L390.625 242.768Z" fill="white"/>
<path d="M497.652 814.09C496.74 814.09 495.918 813.886 495.186 813.478C494.454 813.058 493.878 812.482 493.458 811.75C493.038 811.018 492.828 810.19 492.828 809.266C492.828 808.342 493.038 807.514 493.458 806.782C493.878 806.05 494.454 805.48 495.186 805.072C495.918 804.664 496.74 804.46 497.652 804.46C498.564 804.46 499.386 804.664 500.118 805.072C500.85 805.48 501.42 806.05 501.828 806.782C502.248 807.514 502.458 808.342 502.458 809.266C502.458 810.19 502.248 811.018 501.828 811.75C501.42 812.482 500.85 813.058 500.118 813.478C499.386 813.886 498.564 814.09 497.652 814.09ZM497.652 812.956C498.324 812.956 498.924 812.806 499.452 812.506C499.992 812.194 500.412 811.756 500.712 811.192C501.012 810.628 501.162 809.986 501.162 809.266C501.162 808.546 501.012 807.904 500.712 807.34C500.412 806.776 499.992 806.344 499.452 806.044C498.924 805.732 498.324 805.576 497.652 805.576C496.98 805.576 496.374 805.732 495.834 806.044C495.306 806.344 494.886 806.776 494.574 807.34C494.274 807.904 494.124 808.546 494.124 809.266C494.124 809.986 494.274 810.628 494.574 811.192C494.886 811.756 495.306 812.194 495.834 812.506C496.374 812.806 496.98 812.956 497.652 812.956ZM506.291 806.386C506.591 805.75 507.035 805.27 507.623 804.946C508.223 804.622 508.961 804.46 509.837 804.46V805.702L509.531 805.684C508.535 805.684 507.755 805.99 507.191 806.602C506.627 807.214 506.345 808.072 506.345 809.176V814H505.067V804.532H506.291V806.386ZM515.446 804.46C516.682 804.46 517.63 804.772 518.29 805.396C518.95 806.008 519.28 806.92 519.28 808.132V814H518.056V812.524C517.768 813.016 517.342 813.4 516.778 813.676C516.226 813.952 515.566 814.09 514.798 814.09C513.742 814.09 512.902 813.838 512.278 813.334C511.654 812.83 511.342 812.164 511.342 811.336C511.342 810.532 511.63 809.884 512.206 809.392C512.794 808.9 513.724 808.654 514.996 808.654H518.002V808.078C518.002 807.262 517.774 806.644 517.318 806.224C516.862 805.792 516.196 805.576 515.32 805.576C514.72 805.576 514.144 805.678 513.592 805.882C513.04 806.074 512.566 806.344 512.17 806.692L511.594 805.738C512.074 805.33 512.65 805.018 513.322 804.802C513.994 804.574 514.702 804.46 515.446 804.46ZM514.996 813.082C515.716 813.082 516.334 812.92 516.85 812.596C517.366 812.26 517.75 811.78 518.002 811.156V809.608H515.032C513.412 809.608 512.602 810.172 512.602 811.3C512.602 811.852 512.812 812.29 513.232 812.614C513.652 812.926 514.24 813.082 514.996 813.082ZM525.289 814.09C524.521 814.09 523.783 813.982 523.075 813.766C522.379 813.538 521.833 813.256 521.437 812.92L522.013 811.912C522.409 812.224 522.907 812.482 523.507 812.686C524.107 812.878 524.731 812.974 525.379 812.974C526.243 812.974 526.879 812.842 527.287 812.578C527.707 812.302 527.917 811.918 527.917 811.426C527.917 811.078 527.803 810.808 527.575 810.616C527.347 810.412 527.059 810.262 526.711 810.166C526.363 810.058 525.901 809.956 525.325 809.86C524.557 809.716 523.939 809.572 523.471 809.428C523.003 809.272 522.601 809.014 522.265 808.654C521.941 808.294 521.779 807.796 521.779 807.16C521.779 806.368 522.109 805.72 522.769 805.216C523.429 804.712 524.347 804.46 525.523 804.46C526.135 804.46 526.747 804.544 527.359 804.712C527.971 804.868 528.475 805.078 528.871 805.342L528.313 806.368C527.533 805.828 526.603 805.558 525.523 805.558C524.707 805.558 524.089 805.702 523.669 805.99C523.261 806.278 523.057 806.656 523.057 807.124C523.057 807.484 523.171 807.772 523.399 807.988C523.639 808.204 523.933 808.366 524.281 808.474C524.629 808.57 525.109 808.672 525.721 808.78C526.477 808.924 527.083 809.068 527.539 809.212C527.995 809.356 528.385 809.602 528.709 809.95C529.033 810.298 529.195 810.778 529.195 811.39C529.195 812.218 528.847 812.878 528.151 813.37C527.467 813.85 526.513 814.09 525.289 814.09ZM540.197 804.532V817.492H538.919V812.218C538.523 812.83 538.013 813.298 537.389 813.622C536.777 813.934 536.087 814.09 535.319 814.09C534.419 814.09 533.609 813.892 532.889 813.496C532.181 813.088 531.623 812.518 531.215 811.786C530.807 811.054 530.603 810.214 530.603 809.266C530.603 808.33 530.807 807.496 531.215 806.764C531.623 806.032 532.187 805.468 532.907 805.072C533.627 804.664 534.431 804.46 535.319 804.46C536.111 804.46 536.819 804.628 537.443 804.964C538.079 805.3 538.589 805.78 538.973 806.404V804.532H540.197ZM535.427 812.956C536.087 812.956 536.681 812.806 537.209 812.506C537.749 812.194 538.169 811.756 538.469 811.192C538.781 810.628 538.937 809.986 538.937 809.266C538.937 808.546 538.781 807.91 538.469 807.358C538.169 806.794 537.749 806.356 537.209 806.044C536.681 805.732 536.087 805.576 535.427 805.576C534.755 805.576 534.149 805.732 533.609 806.044C533.081 806.356 532.661 806.794 532.349 807.358C532.049 807.91 531.899 808.546 531.899 809.266C531.899 809.986 532.049 810.628 532.349 811.192C532.661 811.756 533.081 812.194 533.609 812.506C534.149 812.806 534.755 812.956 535.427 812.956ZM543.757 800.644H545.035V814H543.757V800.644ZM548.717 814.09C548.453 814.09 548.225 813.994 548.033 813.802C547.853 813.61 547.763 813.376 547.763 813.1C547.763 812.824 547.853 812.596 548.033 812.416C548.225 812.224 548.453 812.128 548.717 812.128C548.981 812.128 549.209 812.224 549.401 812.416C549.593 812.596 549.689 812.824 549.689 813.1C549.689 813.376 549.593 813.61 549.401 813.802C549.209 813.994 548.981 814.09 548.717 814.09ZM553.629 806.386C553.929 805.75 554.373 805.27 554.961 804.946C555.561 804.622 556.299 804.46 557.175 804.46V805.702L556.869 805.684C555.873 805.684 555.093 805.99 554.529 806.602C553.965 807.214 553.683 808.072 553.683 809.176V814H552.405V804.532H553.629V806.386ZM568.162 804.532V814H566.938V812.272C566.602 812.848 566.14 813.298 565.552 813.622C564.964 813.934 564.292 814.09 563.536 814.09C562.3 814.09 561.322 813.748 560.602 813.064C559.894 812.368 559.54 811.354 559.54 810.022V804.532H560.818V809.896C560.818 810.892 561.064 811.648 561.556 812.164C562.048 812.68 562.75 812.938 563.662 812.938C564.658 812.938 565.444 812.638 566.02 812.038C566.596 811.426 566.884 810.58 566.884 809.5V804.532H568.162Z" fill="white"/>
<g opacity="0.4" filter="url(#filter0_f_12_5)">
<rect x="24" width="7" height="842" fill="black"/>
</g>
<rect width="2" height="842" fill="black"/>
</g>
<defs>
<filter id="filter0_f_12_5" x="17" y="-7" width="21" height="856" filterUnits="userSpaceOnUse" color-interpolation-filters="sRGB">
<feFlood flood-opacity="0" result="BackgroundImageFix"/>
<feBlend mode="normal" in="SourceGraphic" in2="BackgroundImageFix" result="shape"/>
<feGaussianBlur stdDeviation="3.5" result="effect1_foregroundBlur_12_5"/>
</filter>
<clipPath id="clip0_12_5">
<rect width="595" height="842" fill="white"/>
</clipPath>
</defs>
</svg>
